<svg width="3241" height="1816" viewBox="0 0 3241 1816" fill="none" xmlns="http://www.w3.org/2000/svg">
<g clip-path="url(#clip0_2_1091)">
<rect width="3241" height="1816" fill="white"/>
<g filter="url(#filter0_f_2_1091)">
<circle cx="2342.1" cy="907.5" r="504.5" fill="#FF2A00"/>
</g>
<g filter="url(#filter1_f_2_1091)">
<circle cx="898.5" cy="907.5" r="504.5" fill="#02D5FF"/>
</g>
<path d="M2411.38 611.472C2383.03 614.108 2354.31 615.455 2325.27 615.455C1951.77 615.455 1630.34 392.528 1486.77 72.4722" stroke="white" stroke-width="10"/>
<path d="M980.969 352.69C1222.2 518.22 1380.43 795.931 1380.43 1110.6C1380.43 1311.09 1316.2 1496.57 1207.19 1647.6" stroke="white" stroke-width="10"/>
<path d="M962.199 1447.84C1167.1 1239.02 1468.07 1131.42 1777.96 1186.06C1975.4 1220.88 2146.92 1316.34 2276.72 1449.92" stroke="white" stroke-width="10"/>
<path d="M2297.55 384.627C2152.68 701.477 1832.93 921.63 1461.76 921.63C1205.66 921.63 974.032 816.817 807.445 647.747" stroke="white" stroke-width="10"/>
<path d="M1188.28 181.308C1209.84 259.358 1221.36 341.577 1221.36 426.487C1221.36 742.139 1062.14 1020.6 819.633 1185.95" stroke="white" stroke-width="10"/>
<path d="M2468.79 894.743C2439.66 891.959 2410.14 890.534 2380.28 890.534C1896.33 890.534 1499.8 1264.81 1464.34 1739.69" stroke="white" stroke-width="10"/>
<path d="M1719.82 -0.19902C1713.74 33.4414 1736.37 65.6336 1769.93 71.6921L1770.01 71.7076L1770.1 71.72C1773.84 72.262 1777.36 72.5314 1780.97 72.5314C1810.44 72.5314 1836.58 51.6108 1841.87 21.5542L1841.87 21.5423L1841.88 21.5304C1847.62 -12.0031 1825.4 -44.5206 1791.43 -50.3265C1757.83 -56.3794 1725.84 -34.0368 1719.82 -0.19902ZM1719.82 -0.19902C1719.82 -0.201725 1719.82 -0.204426 1719.82 -0.20713L1724.74 0.683384L1719.82 -0.190907C1719.82 -0.193611 1719.82 -0.196316 1719.82 -0.19902ZM1524.96 -0.672337C1519.19 -34.577 1487.16 -56.8657 1453.36 -51.0899L1453.36 -51.0891C1419.67 -45.2985 1397.15 -13.0683 1402.9 20.5213L1402.9 20.5348C1408.13 50.5773 1434.31 71.7717 1463.81 71.7717C1467.34 71.7717 1470.93 71.5038 1474.47 70.96L1474.51 70.9536L1474.56 70.9465C1508.44 65.1558 1530.77 32.9035 1524.96 -0.672337ZM1524.96 -0.672337C1524.96 -0.667603 1524.96 -0.662865 1524.96 -0.658131L1520.03 0.178844M1524.96 -0.672337C1524.96 -0.672977 1524.96 -0.673618 1524.96 -0.674259L1520.03 0.178844M1520.03 0.178844C1525.38 31.0683 1504.83 60.6996 1473.71 66.018C1470.43 66.5225 1467.09 66.7717 1463.81 66.7717C1436.7 66.7717 1412.63 47.2789 1407.83 19.6778C1402.54 -11.2178 1423.26 -40.843 1454.2 -46.1614C1485.32 -51.4798 1514.74 -30.9659 1520.03 0.178844ZM2272.58 362.973L2272.58 362.979L2272.59 362.985C2284.92 377.546 2302.55 385.262 2320.23 385.262C2334.29 385.262 2348.37 380.285 2359.9 370.682L2359.91 370.674L2359.92 370.666C2386.07 348.654 2389.67 309.556 2367.65 283.367C2345.57 256.93 2306.43 253.613 2280.3 275.646C2254.11 297.424 2250.55 336.798 2272.58 362.973ZM883.339 368.387L883.347 368.394C895.159 378.292 909.253 382.982 923.271 382.982C940.925 382.982 958.257 375.531 970.659 360.965L970.669 360.954L970.678 360.943C992.667 334.814 989.666 295.689 963.196 273.623C937.075 251.593 897.946 254.906 875.869 281.068L875.864 281.074C853.851 307.238 857.151 346.345 883.339 368.387ZM2024.33 88.3171L2024.33 88.3248C2007.26 117.821 2017.45 155.549 2047.16 172.628C2056.81 178.406 2067.29 181.167 2078.07 181.167C2099.28 181.167 2120.23 170.159 2131.8 150.326L2131.81 150.319L2131.81 150.311C2148.88 120.818 2138.7 82.8192 2109.2 65.7394L2109.2 65.7346L2109.19 65.7298C2079.46 48.665 2041.46 58.8397 2024.33 88.3171ZM1135.34 64.2102L1135.33 64.215L1135.33 64.2199C1105.85 81.2933 1095.64 119.03 1112.71 148.531C1124.28 168.632 1145.25 179.648 1166.46 179.648C1176.83 179.648 1187.63 177.19 1197.37 171.364C1227.09 154.276 1237.26 116.548 1220.15 86.8155L1220.14 86.8048C1203.07 57.3165 1165.07 47.1471 1135.34 64.2102Z" stroke="white" stroke-width="10"/>
<path d="M2470.77 909.242C2470.77 943.4 2498.53 971.213 2532.72 971.213C2566.89 971.213 2594.73 943.67 2594.73 909.242C2594.73 875.092 2567.16 847.265 2532.72 847.265C2498.53 847.265 2470.77 875.085 2470.77 909.242Z" stroke="white" stroke-width="10"/>
<path d="M647 907.212V908.227C647 942.377 674.574 970.204 709.014 970.204C743.139 970.204 770.966 942.388 770.966 908.227V907.212V906.203C770.966 872.042 743.139 844.226 709.014 844.226C674.86 844.226 647 871.754 647 905.948V907.212Z" stroke="white" stroke-width="10"/>
<path d="M741.889 652.455L742.167 652.74L743.255 653.128C750.102 655.574 757.236 656.969 764.447 656.969C789.575 656.969 813.499 641.286 822.632 616.208C834.462 583.983 817.924 548.454 785.688 536.618C753.758 524.783 717.924 541.024 706.083 573.265C694.38 605.131 710.419 640.225 741.889 652.455Z" stroke="white" stroke-width="10"/>
<path d="M1789.52 1867.32L1789.59 1867.31L1789.66 1867.29C1823.26 1861.51 1845.88 1829.28 1839.8 1795.66C1834.04 1762.07 1801.81 1739.21 1768.19 1745.26C1734.26 1751.06 1711.99 1783.31 1718 1816.9C1723.29 1846.91 1749.14 1868.13 1778.9 1868.13C1782.53 1868.13 1785.81 1867.85 1789.52 1867.32Z" stroke="white" stroke-width="10"/>
<path d="M1451.35 1867.04L1451.43 1867.05L1451.5 1867.06C1455.25 1867.59 1458.47 1867.87 1462.04 1867.87C1491.53 1867.87 1517.71 1846.68 1522.95 1816.65C1529.02 1783.3 1506.68 1750.79 1472.8 1745C1439.17 1739.22 1406.97 1761.78 1401.14 1795.4C1395.06 1828.77 1417.68 1861.25 1451.35 1867.04Z" stroke="white" stroke-width="10"/>
<path d="M2022.81 1729.14L2022.83 1729.18L2022.86 1729.22C2034.64 1748.7 2055.29 1759.99 2076.79 1759.99C2087.17 1759.99 2097.97 1757.54 2107.71 1751.71C2137.19 1734.62 2147.35 1696.89 2130.3 1667.18L2130.29 1667.15L2130.27 1667.12C2112.91 1637.69 2075.18 1627.49 2045.43 1644.56C2015.65 1661.66 2005.75 1699.68 2022.81 1729.14Z" stroke="white" stroke-width="10"/>
<path d="M1133.81 1750.97L1133.82 1750.98L1133.83 1750.99C1143.47 1756.48 1154.17 1759.24 1164.7 1759.24C1185.91 1759.24 1206.8 1748.23 1218.37 1728.39L1218.37 1728.39C1235.52 1698.89 1225.25 1660.89 1195.84 1643.82L1195.82 1643.81L1195.81 1643.8C1166.03 1626.74 1128.03 1636.9 1110.95 1666.4L1110.95 1666.41L1110.94 1666.42C1093.88 1696.18 1104.34 1733.91 1133.81 1750.97Z" stroke="white" stroke-width="10"/>
<path d="M2271.55 1454.75L2271.54 1454.75C2249.54 1480.89 2252.81 1520.28 2279.03 1542.08C2290.84 1551.97 2304.87 1556.66 2318.95 1556.66C2336.57 1556.66 2354.17 1549.24 2366.36 1534.61C2388.37 1508.45 2385.07 1469.35 2358.88 1447.31C2332.7 1425.27 2293.63 1428.58 2271.55 1454.75Z" stroke="white" stroke-width="10"/>
<path d="M962.169 1541.61L962.213 1541.58L962.255 1541.54C988.077 1519.53 991.747 1480.44 969.643 1454.25C947.644 1428.1 908.512 1424.49 882.307 1446.55C856.623 1468.16 852.687 1506.26 873.475 1532.43V1532.73L874.66 1534.13C887.017 1548.72 904.421 1556.16 922.299 1556.16C936.375 1556.16 950.428 1551.17 962.169 1541.61Z" stroke="white" stroke-width="10"/>
<path d="M2419.34 1199.51C2407.82 1231.6 2424.17 1266.97 2456.17 1278.94L2456.16 1279.02C2463.18 1281.84 2470.39 1282.93 2477.53 1282.93C2502.81 1282.93 2526.58 1267.52 2535.66 1242.16C2547.48 1209.93 2530.94 1174.42 2498.77 1162.58C2466.73 1150.72 2431.24 1167.29 2419.35 1199.47L2419.34 1199.49L2419.34 1199.51Z" stroke="white" stroke-width="10"/>
<path d="M705.281 1241.14L705.279 1241.13C693.716 1208.92 710.238 1173.4 742.482 1161.57L705.281 1241.14ZM705.281 1241.14C714.422 1266.52 738.383 1281.91 763.716 1281.91C770.698 1281.91 777.817 1280.52 784.854 1278.1L784.91 1278.08M705.281 1241.14L784.91 1278.08M784.91 1278.08L784.966 1278.06M784.91 1278.08L784.966 1278.06M784.966 1278.06C816.864 1266.23 833.678 1230.73 821.842 1198.47M784.966 1278.06L821.842 1198.47M821.842 1198.47C810.264 1166.52 774.697 1149.71 742.483 1161.57L821.842 1198.47Z" stroke="white" stroke-width="10"/>
<path d="M2477.88 656.459H2475.77C2450.38 656.459 2426.71 640.771 2417.58 615.704C2405.75 583.471 2422.29 547.945 2454.53 536.112M2477.88 656.459L2454.53 536.112M2477.88 656.459L2478.16 656.169C2484.64 655.922 2491.04 654.571 2497.2 652.369L2497.23 652.358L2497.26 652.348C2529.2 640.505 2545.7 604.991 2534.14 572.795L2534.13 572.771L2534.13 572.748C2522.29 540.794 2486.73 524.267 2454.53 536.111L2456.26 540.805L2454.53 536.113C2454.53 536.112 2454.53 536.112 2454.53 536.112M2477.88 656.459L2454.53 536.112" stroke="white" stroke-width="10"/>
</g>
<defs>
<filter id="filter0_f_2_1091" x="1537.6" y="103" width="1609" height="1609" filterUnits="userSpaceOnUse" color-interpolation-filters="sRGB">
<feFlood flood-opacity="0" result="BackgroundImageFix"/>
<feBlend mode="normal" in="SourceGraphic" in2="BackgroundImageFix" result="shape"/>
<feGaussianBlur stdDeviation="150" result="effect1_foregroundBlur_2_1091"/>
</filter>
<filter id="filter1_f_2_1091" x="94" y="103" width="1609" height="1609" filterUnits="userSpaceOnUse" color-interpolation-filters="sRGB">
<feFlood flood-opacity="0" result="BackgroundImageFix"/>
<feBlend mode="normal" in="SourceGraphic" in2="BackgroundImageFix" result="shape"/>
<feGaussianBlur stdDeviation="150" result="effect1_foregroundBlur_2_1091"/>
</filter>
<clipPath id="clip0_2_1091">
<rect width="3241" height="1816" fill="white"/>
</clipPath>
</defs>
</svg>
