<svg width="3227" height="1791" viewBox="0 0 3227 1791" fill="none" xmlns="http://www.w3.org/2000/svg">
<rect width="3227" height="1791" fill="white"/>
<circle cx="1071.5" cy="1003.36" r="594" transform="rotate(6.50129 1071.5 1003.36)" fill="black" stroke="black" stroke-width="20"/>
<g filter="url(#filter0_f_2_750)">
<circle cx="2669.04" cy="731.699" r="250" transform="rotate(6.50129 2669.04 731.699)" fill="black"/>
</g>
<g filter="url(#filter1_f_2_750)">
<circle cx="559.699" cy="1069.06" r="250" transform="rotate(6.50129 559.699 1069.06)" fill="white"/>
</g>
<g style="mix-blend-mode:difference">
<path d="M2542.9 679.398C2536.02 658.912 2547.24 636.578 2567.68 629.849C2588.14 622.942 2610.38 633.951 2617.24 654.615C2624.13 675.097 2612.97 697.267 2592.47 704.159C2583.44 707.147 2574.01 706.801 2565.77 703.555C2555.39 699.466 2546.79 690.844 2542.9 679.398ZM1652.81 332.31C1642.52 313.29 1649.64 289.53 1668.65 279.244C1687.69 268.973 1711.47 276.095 1721.72 295.1C1732.17 314.182 1724.89 337.884 1705.89 348.167C1695.2 353.871 1683.29 354.232 1672.91 350.143C1664.67 346.897 1657.48 340.883 1652.81 332.31ZM2446.14 499.842C2432.6 482.91 2435.35 458.367 2452.21 444.988C2469.1 431.628 2493.82 434.439 2507.36 451.371C2520.74 468.242 2517.92 492.949 2501.06 506.328C2489.67 515.306 2474.79 516.932 2462.31 512.016C2455.98 509.52 2450.47 505.479 2446.14 499.842ZM1855.28 250.618C1852.08 229.338 1866.8 209.511 1888.1 206.3C1909.55 203.15 1929.54 217.95 1932.74 239.226C1935.92 260.686 1921.19 280.513 1899.74 283.662C1892.73 284.828 1885.82 283.79 1879.67 281.37C1867.2 276.454 1857.43 265.12 1855.28 250.618ZM2293.37 364.641C2275.03 353.297 2269.2 329.117 2280.56 310.766C2291.94 292.241 2315.92 286.533 2334.27 297.877C2352.87 309.134 2358.44 333.405 2347.28 351.828C2337.21 368.256 2317.01 374.514 2299.67 367.684C2297.53 366.842 2295.5 365.856 2293.37 364.641ZM2073.08 243.069C2077.49 221.977 2098.21 208.252 2119.33 212.646C2140.58 217.085 2154.22 237.616 2149.76 258.867C2145.4 279.97 2124.79 293.745 2103.55 289.306C2101.32 288.802 2099.12 288.119 2097.02 287.292C2079.68 280.462 2069.2 261.931 2073.08 243.069Z" fill="white"/>
<path d="M2554.04 1131.84C2533.94 1123.92 2524.06 1101.14 2531.97 1081.05C2539.88 1060.97 2562.65 1051.05 2582.75 1058.96C2603 1066.94 2612.77 1089.68 2604.86 1109.77C2596.88 1130.01 2574.14 1139.76 2554.04 1131.84Z" fill="white"/>
<path d="M1365.83 620.918L1366.08 620.269L1366.4 619.46C1374.31 599.378 1397.06 589.631 1417.16 597.548C1437.22 605.45 1447.14 628.255 1439.23 648.337L1438.97 648.982L1438.72 649.631C1430.8 669.713 1408 679.624 1387.94 671.722C1367.68 663.744 1357.92 641 1365.83 620.918Z" fill="white"/>
<path d="M1490.63 477.952C1474.44 463.528 1472.96 438.809 1487.38 422.603C1501.8 406.398 1526.63 405.142 1542.67 419.501C1558.89 433.936 1560.38 458.659 1545.96 474.865C1534.79 487.489 1517.08 491.177 1502.31 485.358C1498.11 483.704 1494.23 481.238 1490.72 478.172L1490.63 477.952Z" fill="white"/>
<path d="M1822.02 1471.32C1826.27 1450.16 1846.84 1436.38 1868.12 1440.83C1889.27 1445.05 1902.94 1465.96 1898.54 1487.05C1894.34 1508.22 1873.58 1521.93 1852.49 1517.55C1850.11 1516.99 1848.1 1516.38 1845.96 1515.54C1828.47 1508.65 1818.18 1490.19 1822.02 1471.32Z" fill="white"/>
<path d="M1637.27 1432.58C1618.83 1421.39 1613.06 1397.04 1624.36 1378.85C1635.56 1360.44 1659.72 1354.62 1678.17 1365.81C1696.73 1377.06 1702.34 1401.34 1691.05 1419.53C1681.02 1435.97 1660.72 1442.38 1643.38 1435.55C1641.28 1434.72 1639.44 1433.81 1637.27 1432.58Z" fill="white"/>
<path d="M2039.11 1490.79C2035.9 1469.51 2050.54 1449.46 2071.99 1446.31C2093.44 1443.16 2113.27 1457.9 2116.67 1479.25C2119.81 1500.69 2105.08 1520.52 2083.79 1523.73C2076.77 1524.9 2069.86 1523.86 2063.72 1521.44C2051.09 1516.46 2041.54 1505.03 2039.11 1490.79Z" fill="white"/>
<path d="M1464.34 1279.15C1450.96 1262.28 1453.55 1237.67 1470.47 1224.13C1487.33 1210.75 1512.04 1213.57 1525.62 1230.52C1538.96 1247.37 1536.18 1272.09 1519.29 1285.45C1507.89 1294.43 1493.06 1296.07 1480.58 1291.16C1474.4 1288.72 1468.74 1284.62 1464.34 1279.15Z" fill="white"/>
<path d="M2249.72 1434.57C2239.37 1415.71 2246.55 1391.79 2265.55 1381.51C2284.6 1371.23 2308.34 1378.34 2318.63 1397.36C2328.92 1416.38 2321.81 1440.14 2302.8 1450.43C2292.27 1456.19 2280.2 1456.49 2269.82 1452.41C2261.54 1449.14 2254.39 1443.14 2249.72 1434.57Z" fill="white"/>
<path d="M1353.86 1076.04C1346.94 1055.55 1358.09 1033.38 1378.59 1026.48C1399.09 1019.59 1421.27 1030.76 1428.16 1051.25C1435.08 1071.75 1423.88 1093.9 1403.58 1100.87C1394.39 1103.8 1384.96 1103.45 1376.72 1100.21C1366.18 1096.06 1357.68 1087.65 1353.79 1076.21L1353.86 1076.04Z" fill="white"/>
<path d="M2428.78 1310.17C2412.55 1295.74 2411.06 1271.02 2425.33 1254.75C2439.79 1238.56 2464.5 1237.06 2480.57 1251.44C2496.75 1265.86 2498.24 1290.58 2483.82 1306.79C2472.63 1319.59 2455.1 1323.16 2440.21 1317.29C2435.97 1315.62 2432.03 1313.32 2428.62 1310.11L2428.78 1310.17Z" fill="white"/>
<path d="M1320.4 847.723C1321.06 826.093 1339.01 809.03 1360.72 809.541C1382.4 810.033 1399.42 828.153 1398.82 849.617C1398.31 871.309 1380.21 888.31 1358.69 887.875C1353.88 887.664 1349.36 886.819 1345.32 885.226C1330.39 879.346 1319.89 864.733 1320.4 847.723Z" fill="white"/>
<path d="M2596.92 916.187C2581.99 910.307 2571.71 895.596 2572.15 878.746C2572.66 857.054 2590.6 839.992 2612.32 840.503C2633.99 840.994 2651.08 858.951 2650.63 880.48C2649.97 902.107 2632.03 919.169 2610.51 918.735C2605.85 918.585 2601.33 917.743 2597.13 916.089L2596.92 916.187Z" fill="white"/>
</g>
<defs>
<filter id="filter0_f_2_750" x="2269.02" y="331.676" width="800.047" height="800.046" filterUnits="userSpaceOnUse" color-interpolation-filters="sRGB">
<feFlood flood-opacity="0" result="BackgroundImageFix"/>
<feBlend mode="normal" in="SourceGraphic" in2="BackgroundImageFix" result="shape"/>
<feGaussianBlur stdDeviation="75" result="effect1_foregroundBlur_2_750"/>
</filter>
<filter id="filter1_f_2_750" x="159.676" y="669.039" width="800.047" height="800.046" filterUnits="userSpaceOnUse" color-interpolation-filters="sRGB">
<feFlood flood-opacity="0" result="BackgroundImageFix"/>
<feBlend mode="normal" in="SourceGraphic" in2="BackgroundImageFix" result="shape"/>
<feGaussianBlur stdDeviation="75" result="effect1_foregroundBlur_2_750"/>
</filter>
</defs>
</svg>
