<svg width="412" height="288" viewBox="0 0 412 288" fill="none" xmlns="http://www.w3.org/2000/svg">
<g clip-path="url(#clip0_4_880)">
<rect width="412" height="288" fill="white"/>
<g filter="url(#filter0_f_4_880)">
<circle cx="299.936" cy="143.93" r="65.5031" fill="#FF2A00"/>
</g>
<g filter="url(#filter1_f_4_880)">
<circle cx="112.503" cy="143.93" r="65.5031" fill="#02D5FF"/>
</g>
<path d="M310 105.5C306 106 301.024 106.012 297.253 106.012C248.759 106.012 206.64 76.5553 188 35" stroke="white"/>
<path d="M122.502 71.5001C153.823 92.9921 174.578 129.444 174.578 170.3C174.578 196.331 166.238 220.414 152.084 240.023" stroke="white"/>
<path d="M120.276 214.087C146.88 186.974 185.957 173.003 226.192 180.098C251.828 184.618 274.597 197.513 291.45 214.857" stroke="white"/>
<path d="M293.802 75.5C274.992 116.639 233.329 145.765 185.137 145.765C151.885 145.765 121.631 131.452 100.002 109.5" stroke="white"/>
<path d="M149.5 49C152.3 59.1339 153.925 70.4521 153.925 81.4766C153.925 122.46 132.989 159.032 101.502 180.5" stroke="white"/>
<path d="M317.002 142.274C313.22 141.912 308.273 141.727 304.397 141.727C241.561 141.727 190.076 190.822 185.472 252.48" stroke="white"/>
<circle cx="227.423" cy="27.4066" r="8" transform="rotate(10.1718 227.423 27.4066)" stroke="white"/>
<circle cx="266.051" cy="41.4489" r="8" transform="rotate(10.1718 266.051 41.4489)" stroke="white"/>
<circle cx="297.372" cy="67.8961" r="8" transform="rotate(10.1718 297.372 67.8961)" stroke="white"/>
<circle cx="317.893" cy="103.581" r="8" transform="rotate(10.1718 317.893 103.581)" stroke="white"/>
<circle cx="324.785" cy="144.44" r="8" transform="rotate(10.1718 324.785 144.44)" stroke="white"/>
<circle cx="317.545" cy="184.796" r="8" transform="rotate(10.1718 317.545 184.796)" stroke="white"/>
<circle cx="297.458" cy="220.307" r="8" transform="rotate(10.1718 297.458 220.307)" stroke="white"/>
<circle cx="265.231" cy="247.035" r="8" transform="rotate(10.1718 265.231 247.035)" stroke="white"/>
<circle cx="226.669" cy="260.944" r="8" transform="rotate(10.1718 226.669 260.944)" stroke="white"/>
<circle cx="185.077" cy="260.593" r="8" transform="rotate(10.1718 185.077 260.593)" stroke="white"/>
<circle cx="146.942" cy="246.639" r="8" transform="rotate(10.1718 146.942 246.639)" stroke="white"/>
<circle cx="115.62" cy="220.192" r="8" transform="rotate(10.1718 115.62 220.192)" stroke="white"/>
<circle cx="95.0994" cy="184.507" r="8" transform="rotate(10.1718 95.0994 184.507)" stroke="white"/>
<circle cx="88.2068" cy="143.648" r="8" transform="rotate(10.1718 88.2068 143.648)" stroke="white"/>
<circle cx="94.9553" cy="103.204" r="8" transform="rotate(10.1718 94.9553 103.204)" stroke="white"/>
<circle cx="116.115" cy="67.3778" r="8" transform="rotate(10.1718 116.115 67.3778)" stroke="white"/>
<circle cx="147.761" cy="41.0527" r="8" transform="rotate(10.1718 147.761 41.0527)" stroke="white"/>
<circle cx="186.324" cy="27.1442" r="8" transform="rotate(10.1718 186.324 27.1442)" stroke="white"/>
</g>
<defs>
<filter id="filter0_f_4_880" x="194.433" y="38.427" width="211.006" height="211.006" filterUnits="userSpaceOnUse" color-interpolation-filters="sRGB">
<feFlood flood-opacity="0" result="BackgroundImageFix"/>
<feBlend mode="normal" in="SourceGraphic" in2="BackgroundImageFix" result="shape"/>
<feGaussianBlur stdDeviation="20" result="effect1_foregroundBlur_4_880"/>
</filter>
<filter id="filter1_f_4_880" x="7" y="38.427" width="211.006" height="211.006" filterUnits="userSpaceOnUse" color-interpolation-filters="sRGB">
<feFlood flood-opacity="0" result="BackgroundImageFix"/>
<feBlend mode="normal" in="SourceGraphic" in2="BackgroundImageFix" result="shape"/>
<feGaussianBlur stdDeviation="20" result="effect1_foregroundBlur_4_880"/>
</filter>
<clipPath id="clip0_4_880">
<rect width="412" height="288" fill="white"/>
</clipPath>
</defs>
</svg>
