<svg width="412" height="288" viewBox="0 0 412 288" fill="none" xmlns="http://www.w3.org/2000/svg">
<rect width="412" height="288" fill="white"/>
<g filter="url(#filter0_f_4_880)">
<circle cx="299.936" cy="143.93" r="65.5031" fill="#FF2A00"/>
</g>
<g filter="url(#filter1_f_4_880)">
<circle cx="112.503" cy="143.93" r="65.5031" fill="#02D5FF"/>
</g>
<path d="M309.3 105.495C305.619 105.837 301.522 106.012 297.752 106.012C249.257 106.012 207.524 77.0674 188.883 35.5121" stroke="white"/>
<path d="M123 71.5001C154.321 92.9921 175.076 129.444 175.076 170.3C175.076 196.331 166.736 220.414 152.582 240.023" stroke="white"/>
<path d="M120.774 214.087C147.378 186.974 186.455 173.003 226.69 180.098C252.326 184.618 274.595 197.013 291.448 214.357" stroke="white"/>
<path d="M294.3 75.5C275.49 116.639 233.827 145.765 185.636 145.765C152.384 145.765 121.629 130.952 100 109" stroke="white"/>
<path d="M150.127 49.6431C152.927 59.7769 154.423 70.4521 154.423 81.4766C154.423 122.46 133.487 159.032 102 180.5" stroke="white"/>
<path d="M317 142.274C313.218 141.912 308.771 141.727 304.895 141.727C242.06 141.727 190.574 190.322 185.97 251.98" stroke="white"/>
<path d="M143.327 34.5696L143.328 34.5687C147.117 32.3939 151.96 33.6905 154.135 37.4476L154.136 37.4487C156.317 41.238 155.021 46.0458 151.233 48.223C149.994 48.9644 148.618 49.2782 147.294 49.2782C144.591 49.2782 141.92 47.8745 140.446 45.3132L143.327 34.5696ZM143.327 34.5696C139.57 36.7453 138.271 41.5536 140.445 45.3122L143.327 34.5696ZM193.694 26.0404C192.96 21.7207 188.878 18.8798 184.57 19.616L184.569 19.6161C180.278 20.3539 177.407 24.4608 178.14 28.7416L178.14 28.743C178.806 32.5708 182.143 35.2718 185.901 35.2718C186.352 35.2718 186.812 35.2376 187.263 35.1682L187.263 35.1683L187.272 35.1668C191.589 34.4291 194.435 30.3197 193.694 26.0404ZM193.694 26.0404C193.694 26.0409 193.694 26.0414 193.694 26.0419L193.201 26.1256M193.694 26.0404C193.694 26.0404 193.694 26.0403 193.694 26.0403L193.201 26.1256M193.201 26.1256C193.896 30.1362 191.228 33.9835 187.187 34.674C186.761 34.7395 186.327 34.7718 185.901 34.7718C182.381 34.7718 179.256 32.241 178.633 28.6573C177.946 24.6459 180.637 20.7994 184.654 20.1089C188.695 19.4184 192.514 22.0818 193.201 26.1256ZM291.024 73.1339L291.025 73.1351C292.597 74.9916 294.845 75.9746 297.097 75.9746C298.888 75.9746 300.682 75.341 302.152 74.1163L302.154 74.1147C305.487 71.3089 305.945 66.3257 303.139 62.9893C300.325 59.6206 295.338 59.1984 292.009 62.0058C288.672 64.7805 288.218 69.7985 291.024 73.1339ZM110.631 73.8187L110.631 73.8194C112.137 75.0813 113.933 75.6787 115.719 75.6787C117.969 75.6787 120.177 74.7296 121.758 72.8725L121.76 72.8703C124.563 69.5397 124.18 64.5544 120.807 61.7433C117.479 58.9358 112.492 59.3578 109.679 62.6918L109.678 62.6924C106.873 66.0266 107.294 71.0101 110.631 73.8187ZM258.807 37.6442L258.807 37.645C256.632 41.4031 257.931 46.2109 261.717 48.3873C262.948 49.1237 264.282 49.4755 265.656 49.4755C268.359 49.4755 271.029 48.0724 272.504 45.5452L272.505 45.5437C274.679 41.7859 273.381 36.9434 269.623 34.7669L269.622 34.766C265.833 32.591 260.99 33.8882 258.807 37.6442ZM225.674 35.2639L225.682 35.2654L225.691 35.2667C226.17 35.3361 226.621 35.3705 227.081 35.3705C230.836 35.3705 234.167 32.7042 234.841 28.875L234.842 28.8726C235.574 24.5977 232.74 20.4544 228.414 19.7151C224.132 18.9434 220.055 21.7898 219.288 26.1029C218.513 30.3888 221.396 34.4917 225.674 35.2639Z" stroke="white"/>
<path d="M316.792 144.156C316.792 148.509 320.33 152.053 324.686 152.053C329.041 152.053 332.589 148.544 332.589 144.156C332.589 139.805 329.075 136.259 324.686 136.259C320.33 136.259 316.792 139.804 316.792 144.156Z" stroke="white"/>
<path d="M79.9981 143.893V144.024C79.9981 148.376 83.5117 151.922 87.9006 151.922C92.249 151.922 95.7952 148.377 95.7952 144.024V143.893V143.762C95.7952 139.409 92.249 135.864 87.9006 135.864C83.5476 135.864 79.9981 139.372 79.9981 143.729V143.893Z" stroke="white"/>
<path d="M92.2531 110.688L92.2877 110.724L92.3965 110.763C93.2717 111.075 94.1809 111.253 95.0979 111.253C98.2999 111.253 101.349 109.254 102.512 106.058C104.02 101.952 101.913 97.4242 97.8042 95.9159C93.7352 94.4075 89.1688 96.4774 87.6601 100.585C86.1651 104.656 88.2226 109.14 92.2531 110.688Z" stroke="white"/>
<path d="M228.169 268.403L228.176 268.402L228.183 268.401C232.465 267.663 235.347 263.556 234.573 259.273C233.839 254.992 229.731 252.078 225.447 252.85C221.124 253.589 218.285 257.698 219.052 261.979C219.726 265.803 223.021 268.506 226.812 268.506C227.275 268.506 227.693 268.471 228.169 268.403Z" stroke="white"/>
<path d="M184.309 268.367L184.317 268.369L184.324 268.37C184.806 268.438 185.217 268.473 185.672 268.473C189.43 268.473 192.766 265.772 193.433 261.946C194.207 257.697 191.36 253.554 187.043 252.817C182.757 252.08 178.655 254.955 177.912 259.239C177.137 263.49 180.019 267.63 184.309 268.367Z" stroke="white"/>
<path d="M258.61 250.535L258.609 250.535L258.614 250.543C260.118 253.027 262.75 254.467 265.49 254.467C266.814 254.467 268.19 254.153 269.429 253.412C273.185 251.234 274.48 246.427 272.308 242.639L272.308 242.639L272.305 242.633C270.092 238.882 265.283 237.582 261.492 239.758C257.698 241.936 256.436 246.781 258.61 250.535Z" stroke="white"/>
<path d="M143.129 253.315L143.132 253.317C144.36 254.017 145.724 254.368 147.065 254.368C149.769 254.368 152.431 252.965 153.905 250.438L153.906 250.437C156.09 246.679 154.783 241.837 151.034 239.661L151.034 239.661L151.031 239.659C147.235 237.485 142.392 238.78 140.217 242.538L140.217 242.538L140.216 242.54C138.041 246.332 139.374 251.14 143.129 253.315Z" stroke="white"/>
<path d="M290.89 215.08L290.89 215.08C288.086 218.412 288.503 223.431 291.844 226.208C293.349 227.469 295.137 228.067 296.931 228.067C299.177 228.067 301.42 227.12 302.973 225.257C305.777 221.923 305.356 216.94 302.02 214.132C298.684 211.324 293.704 211.745 290.89 215.08Z" stroke="white"/>
<path d="M120.675 226.146L120.676 226.146L120.684 226.139C123.975 223.333 124.442 218.351 121.626 215.014C118.822 211.682 113.835 211.223 110.497 214.033C107.21 216.799 106.718 221.682 109.403 225.017V225.054L109.521 225.194C111.096 227.053 113.314 228.001 115.593 228.001C117.385 228.001 119.177 227.367 120.675 226.146Z" stroke="white"/>
<path d="M310.105 181.895C308.637 185.986 310.722 190.495 314.803 192.019L314.801 192.03C315.692 192.387 316.609 192.526 317.521 192.526C320.744 192.526 323.772 190.562 324.928 187.331C326.434 183.224 324.327 178.698 320.227 177.19C316.145 175.678 311.622 177.789 310.107 181.891L310.107 181.891L310.105 181.895Z" stroke="white"/>
<path d="M87.5565 187.198L87.5563 187.197C86.0826 183.092 88.1882 178.566 92.2977 177.057L87.5565 187.198ZM87.5565 187.198C88.7208 190.431 91.7735 192.394 95.0033 192.394C95.8901 192.394 96.7978 192.217 97.6992 191.906L97.6992 191.907M87.5565 187.198L97.6992 191.907M97.6992 191.907L97.7103 191.902M97.6992 191.907L97.7103 191.902M97.7103 191.902C101.776 190.395 103.918 185.87 102.41 181.761M97.7103 191.902L102.41 181.761M102.41 181.761C100.935 177.689 96.4024 175.547 92.2978 177.057L102.41 181.761Z" stroke="white"/>
<path d="M317.503 111.186H317.292C314.057 111.186 311.04 109.187 309.877 105.993C308.37 101.885 310.477 97.3583 314.586 95.8501L317.503 111.186ZM317.503 111.186L317.537 111.151M317.503 111.186L317.537 111.151M317.537 111.151C318.382 111.126 319.218 110.952 320.025 110.664L320.025 110.664L320.03 110.662C324.1 109.153 326.204 104.627 324.731 100.523L324.731 100.523L324.729 100.519C323.221 96.4465 318.689 94.3405 314.586 95.8501L317.537 111.151Z" stroke="white"/>
<defs>
<filter id="filter0_f_4_880" x="194.433" y="38.427" width="211.006" height="211.006" filterUnits="userSpaceOnUse" color-interpolation-filters="sRGB">
<feFlood flood-opacity="0" result="BackgroundImageFix"/>
<feBlend mode="normal" in="SourceGraphic" in2="BackgroundImageFix" result="shape"/>
<feGaussianBlur stdDeviation="20" result="effect1_foregroundBlur_4_880"/>
</filter>
<filter id="filter1_f_4_880" x="7" y="38.427" width="211.006" height="211.006" filterUnits="userSpaceOnUse" color-interpolation-filters="sRGB">
<feFlood flood-opacity="0" result="BackgroundImageFix"/>
<feBlend mode="normal" in="SourceGraphic" in2="BackgroundImageFix" result="shape"/>
<feGaussianBlur stdDeviation="20" result="effect1_foregroundBlur_4_880"/>
</filter>
</defs>
</svg>
