<svg width="412" height="288" viewBox="0 0 412 288" fill="none" xmlns="http://www.w3.org/2000/svg">
<rect width="412" height="288" fill="white"/>
<g style="mix-blend-mode:difference">
<path d="M295.879 166.347C294.216 163.423 295.914 161.436 299.623 161.93C303.334 162.404 307.706 165.164 309.369 168.107C311.032 171.031 309.344 173.002 305.625 172.524C303.985 172.307 302.211 171.661 300.606 170.739C298.584 169.579 296.816 167.983 295.879 166.347ZM122.637 67.2465C120.361 64.2823 121.263 61.8588 124.641 61.8303C128.026 61.8059 132.615 64.1928 134.883 67.1529C137.19 70.1347 136.257 72.5411 132.879 72.5694C130.979 72.5756 128.751 71.8563 126.731 70.6956C125.126 69.7741 123.668 68.5841 122.637 67.2465ZM274.465 138.386C271.618 135.467 271.687 132.669 274.605 132.128C277.532 131.591 282.217 133.516 285.064 136.435C287.88 139.337 287.8 142.151 284.882 142.692C282.91 143.05 280.148 142.294 277.72 140.898C276.486 140.19 275.381 139.347 274.465 138.386ZM159.12 70.3209C158.133 67.5368 160.534 66.0778 164.469 67.0532C168.435 68.046 172.454 71.1203 173.441 73.9042C174.426 76.7083 172.027 78.1673 168.061 77.1746C166.766 76.8664 165.452 76.2977 164.256 75.6109C161.825 74.2155 159.788 72.2159 159.12 70.3209ZM243.355 112.212C239.707 109.662 238.174 106.358 239.971 104.862C241.77 103.347 246.163 104.192 249.809 106.742C253.503 109.298 254.99 112.597 253.231 114.114C251.643 115.46 247.968 114.924 244.592 112.985C244.175 112.746 243.776 112.496 243.355 112.212ZM199.831 83.3632C200.273 81.0894 203.908 80.7537 207.952 82.64C212.016 84.5393 214.949 87.9019 214.497 90.1911C214.064 92.469 210.449 92.8179 206.385 90.9186C205.958 90.7149 205.533 90.4912 205.126 90.2565C201.749 88.3178 199.446 85.4003 199.831 83.3632Z" fill="white"/>
<path d="M306.196 221.889C302.282 219.642 300.014 216.248 301.134 214.321C302.251 212.394 306.342 212.65 310.254 214.898C314.197 217.162 316.444 220.545 315.324 222.472C314.197 224.413 310.11 224.136 306.196 221.889Z" fill="white"/>
<path d="M74.0658 83.8316L74.1014 83.7694L74.1474 83.6918C75.2644 81.765 79.3539 82.0413 83.2656 84.2885C87.171 86.5316 89.4469 89.931 88.3299 91.8578L88.2943 91.9196L88.2567 91.982C87.1396 93.9086 83.0418 93.6481 79.1364 91.405C75.1933 89.1403 72.9467 85.7584 74.0658 83.8316Z" fill="white"/>
<path d="M94.869 74.5033C91.5724 71.7179 90.8423 68.6271 93.2521 67.5874C95.6618 66.5476 100.297 67.9869 103.565 70.7543C106.872 73.5436 107.6 76.635 105.19 77.6748C103.324 78.4888 100.071 77.8009 97.1951 76.1492C96.3772 75.6797 95.6054 75.1323 94.8921 74.5359L94.869 74.5033Z" fill="white"/>
<path d="M175.092 216.121C175.504 213.83 179.108 213.477 183.181 215.381C187.224 217.247 190.169 220.658 189.728 222.932C189.324 225.227 185.68 225.558 181.645 223.677C181.189 223.456 180.8 223.254 180.384 223.015C176.978 221.059 174.713 218.163 175.092 216.121Z" fill="white"/>
<path d="M139.739 199.587C136.076 197.049 134.551 193.73 136.34 192.248C138.105 190.736 142.531 191.578 146.194 194.117C149.88 196.67 151.373 199.972 149.587 201.452C148.006 202.802 144.314 202.278 140.937 200.339C140.53 200.103 140.168 199.875 139.739 199.587Z" fill="white"/>
<path d="M216.157 232.393C215.17 229.609 217.55 228.117 221.514 229.109C225.48 230.102 229.467 233.159 230.494 235.964C231.473 238.764 229.072 240.223 225.137 239.247C223.842 238.939 222.526 238.371 221.332 237.684C218.872 236.272 216.872 234.274 216.157 232.393Z" fill="white"/>
<path d="M104.514 169.912C101.698 167.01 101.738 164.195 104.664 163.638C107.583 163.097 112.268 165.022 115.124 167.946C117.931 170.843 117.86 173.661 114.935 174.198C112.961 174.556 110.208 173.804 107.779 172.408C106.576 171.717 105.441 170.858 104.514 169.912Z" fill="white"/>
<path d="M254.632 239.076C252.348 236.128 253.258 233.687 256.636 233.66C260.021 233.635 264.602 236.018 266.878 238.983C269.154 241.946 268.252 244.37 264.874 244.399C263.004 244.422 260.747 243.685 258.726 242.524C257.113 241.598 255.664 240.414 254.632 239.076Z" fill="white"/>
<path d="M80.1014 138.219C78.43 135.292 80.1181 133.32 83.8373 133.798C87.5566 134.277 91.9201 137.052 93.5831 139.976C95.2545 142.903 93.558 144.871 89.8764 144.414C88.2071 144.18 86.4333 143.534 84.8268 142.612C82.7768 141.434 81.0301 139.871 80.093 138.235L80.1014 138.219Z" fill="white"/>
<path d="M285.949 235.475C282.644 232.685 281.914 229.595 284.294 228.538C286.713 227.501 291.317 228.904 294.592 231.675C297.891 234.462 298.619 237.551 296.209 238.592C294.343 239.426 291.122 238.735 288.223 237.071C287.397 236.596 286.616 236.066 285.92 235.458L285.949 235.475Z" fill="white"/>
<path d="M69.6706 108.406C69.4029 105.827 72.4569 104.909 76.538 106.362C80.6129 107.811 84.1355 111.098 84.4137 113.661C84.7128 116.257 81.6274 117.157 77.5839 115.725C76.6761 115.391 75.8143 115 75.0278 114.548C72.1201 112.878 69.8861 110.435 69.6706 108.406Z" fill="white"/>
<path d="M310.314 198.503C307.407 196.835 305.213 194.394 304.987 192.38C304.687 189.783 307.744 188.865 311.825 190.32C315.9 191.768 319.431 195.039 319.738 197.619C320.008 200.197 316.952 201.115 312.908 199.683C312.034 199.367 311.17 198.976 310.352 198.505L310.314 198.503Z" fill="white"/>
</g>
<g filter="url(#filter0_f_4_952)">
<path d="M36.4902 259.376C44.7284 246.985 56.0863 242.009 70.564 244.448C85.0414 246.889 96.3999 241.914 104.637 229.523C112.877 217.132 124.234 212.156 138.713 214.595C153.191 217.036 164.549 212.061 172.787 199.67C181.024 187.279 192.383 182.303 206.86 184.742C221.338 187.183 232.696 182.206 240.934 169.816C249.173 157.425 260.53 152.45 275.009 154.889C289.487 157.329 300.843 152.353 309.083 139.963C317.32 127.572 328.679 122.596 343.156 125.036C357.634 127.476 368.992 122.5 377.23 110.109" stroke="#02D5FF" stroke-width="2" stroke-linecap="round"/>
</g>
<path d="M37.2051 258.514C41.4774 244.533 51.024 236.643 65.8449 234.843C80.6648 233.041 90.2118 225.151 94.4854 211.172C98.7568 197.191 108.304 189.301 123.124 187.501C137.945 185.699 147.492 177.809 151.765 163.829C156.037 149.85 165.584 141.959 180.404 140.158C195.225 138.357 204.772 130.466 209.043 116.487C213.317 102.508 222.864 94.6173 237.685 92.8159C252.505 91.0144 262.052 83.124 266.323 69.1447C270.597 55.1656 280.144 47.2751 294.965 45.4737C309.785 43.6724 319.332 35.7821 323.604 21.8027" stroke="#FF2A00" stroke-width="2" stroke-linecap="round"/>
<defs>
<filter id="filter0_f_4_952" x="30.4901" y="104.109" width="352.74" height="161.266" filterUnits="userSpaceOnUse" color-interpolation-filters="sRGB">
<feFlood flood-opacity="0" result="BackgroundImageFix"/>
<feBlend mode="normal" in="SourceGraphic" in2="BackgroundImageFix" result="shape"/>
<feGaussianBlur stdDeviation="2.5" result="effect1_foregroundBlur_4_952"/>
</filter>
</defs>
</svg>
