<svg width="3227" height="1791" viewBox="0 0 3227 1791" fill="none" xmlns="http://www.w3.org/2000/svg">
<rect width="3227" height="1791" fill="white"/>
<g style="mix-blend-mode:difference">
<path d="M2096.75 958.82C2088.8 944.769 2096.92 935.218 2114.65 937.592C2132.39 939.87 2153.29 953.133 2161.24 967.28C2169.19 981.329 2161.12 990.804 2143.34 988.506C2135.5 987.463 2127.02 984.358 2119.35 979.929C2109.68 974.351 2101.23 966.684 2096.75 958.82ZM1268.56 482.556C1257.68 468.309 1261.99 456.663 1278.14 456.525C1294.32 456.408 1316.26 467.879 1327.1 482.105C1338.13 496.435 1333.67 508 1317.52 508.136C1308.44 508.166 1297.79 504.709 1288.13 499.131C1280.46 494.703 1273.49 488.984 1268.56 482.556ZM1994.38 824.445C1980.77 810.414 1981.1 796.968 1995.05 794.367C2009.04 791.789 2031.44 801.037 2045.05 815.068C2058.51 829.015 2058.13 842.537 2044.18 845.137C2034.75 846.857 2021.55 843.222 2009.94 836.517C2004.04 833.111 1998.76 829.063 1994.38 824.445ZM1442.97 497.331C1438.25 483.95 1449.73 476.938 1468.54 481.626C1487.5 486.397 1506.71 501.173 1511.43 514.551C1516.14 528.027 1504.67 535.04 1485.71 530.269C1479.52 528.787 1473.24 526.054 1467.52 522.753C1455.9 516.047 1446.16 506.437 1442.97 497.331ZM1845.66 698.656C1828.22 686.4 1820.89 670.521 1829.48 663.332C1838.08 656.049 1859.08 660.11 1876.51 672.366C1894.17 684.652 1901.28 700.503 1892.87 707.794C1885.28 714.263 1867.71 711.686 1851.57 702.368C1849.58 701.219 1847.67 700.018 1845.66 698.656ZM1637.59 560.01C1639.7 549.082 1657.08 547.47 1676.41 556.535C1695.84 565.662 1709.86 581.823 1707.7 592.824C1705.63 603.772 1688.35 605.448 1668.92 596.321C1666.88 595.341 1664.85 594.266 1662.9 593.138C1646.76 583.821 1635.75 569.8 1637.59 560.01Z" fill="white"/>
<path d="M2146.08 1225.75C2127.37 1214.95 2116.53 1198.64 2121.88 1189.38C2127.22 1180.12 2146.78 1181.35 2165.48 1192.15C2184.33 1203.03 2195.07 1219.29 2189.72 1228.55C2184.33 1237.88 2164.79 1236.55 2146.08 1225.75Z" fill="white"/>
<path d="M1036.37 562.261L1036.54 561.962L1036.76 561.589C1042.1 552.329 1061.65 553.657 1080.35 564.458C1099.02 575.237 1109.9 591.574 1104.56 600.834L1104.39 601.131L1104.21 601.431C1098.87 610.69 1079.28 609.438 1060.61 598.658C1041.76 587.774 1031.02 571.521 1036.37 562.261Z" fill="white"/>
<path d="M1135.82 517.431C1120.06 504.045 1116.57 489.191 1128.09 484.194C1139.61 479.197 1161.77 486.114 1177.39 499.414C1193.2 512.819 1196.68 527.676 1185.16 532.673C1176.24 536.585 1160.69 533.279 1146.94 525.341C1143.03 523.085 1139.34 520.454 1135.93 517.588L1135.82 517.431Z" fill="white"/>
<path d="M1519.33 1198.03C1521.29 1187.02 1538.53 1185.32 1558 1194.47C1577.33 1203.44 1591.41 1219.83 1589.3 1230.76C1587.37 1241.79 1569.95 1243.39 1550.66 1234.34C1548.48 1233.28 1546.62 1232.31 1544.63 1231.16C1528.35 1221.76 1517.52 1207.84 1519.33 1198.03Z" fill="white"/>
<path d="M1350.32 1118.57C1332.81 1106.37 1325.52 1090.42 1334.07 1083.3C1342.51 1076.03 1363.67 1080.08 1381.18 1092.28C1398.8 1104.55 1405.94 1120.42 1397.4 1127.53C1389.84 1134.02 1372.19 1131.5 1356.05 1122.18C1354.1 1121.05 1352.37 1119.95 1350.32 1118.57Z" fill="white"/>
<path d="M1715.64 1276.23C1710.92 1262.85 1722.3 1255.68 1741.25 1260.45C1760.21 1265.22 1779.27 1279.91 1784.18 1293.39C1788.86 1306.85 1777.38 1313.86 1758.57 1309.17C1752.38 1307.69 1746.09 1304.96 1740.38 1301.66C1728.62 1294.87 1719.06 1285.27 1715.64 1276.23Z" fill="white"/>
<path d="M1181.93 975.956C1168.47 962.009 1168.66 948.477 1182.65 945.803C1196.6 943.202 1219 952.452 1232.64 966.504C1246.07 980.43 1245.73 993.972 1231.75 996.55C1222.31 998.271 1209.15 994.656 1197.54 987.95C1191.79 984.629 1186.35 980.499 1181.93 975.956Z" fill="white"/>
<path d="M1899.58 1308.35C1888.66 1294.18 1893.01 1282.45 1909.16 1282.32C1925.34 1282.2 1947.24 1293.65 1958.12 1307.9C1969 1322.14 1964.69 1333.79 1948.54 1333.93C1939.6 1334.04 1928.81 1330.5 1919.15 1324.92C1911.44 1320.47 1904.5 1314.78 1899.58 1308.35Z" fill="white"/>
<path d="M1065.22 823.642C1057.23 809.572 1065.3 800.096 1083.08 802.395C1100.86 804.693 1121.72 818.032 1129.67 832.083C1137.66 846.152 1129.55 855.607 1111.95 853.413C1103.97 852.287 1095.49 849.182 1087.81 844.753C1078.01 839.092 1069.66 831.581 1065.18 823.717L1065.22 823.642Z" fill="white"/>
<path d="M2049.29 1291.04C2033.49 1277.63 2030 1262.78 2041.38 1257.7C2052.94 1252.72 2074.95 1259.46 2090.61 1272.78C2106.38 1286.16 2109.86 1301.02 2098.34 1306.02C2089.42 1310.02 2074.02 1306.71 2060.16 1298.71C2056.21 1296.43 2052.48 1293.87 2049.15 1290.95L2049.29 1291.04Z" fill="white"/>
<path d="M1015.36 680.361C1014.08 667.967 1028.68 663.558 1048.19 670.542C1067.67 677.504 1084.51 693.299 1085.84 705.616C1087.27 718.093 1072.52 722.419 1053.19 715.539C1048.85 713.934 1044.73 712.051 1040.97 709.878C1027.07 701.856 1016.39 690.113 1015.36 680.361Z" fill="white"/>
<path d="M2165.77 1113.36C2151.87 1105.34 2141.38 1093.61 2140.31 1083.93C2138.87 1071.45 2153.48 1067.04 2172.99 1074.02C2192.47 1080.99 2209.35 1096.71 2210.82 1109.11C2212.11 1121.5 2197.5 1125.91 2178.17 1119.03C2173.99 1117.51 2169.86 1115.63 2165.95 1113.37L2165.77 1113.36Z" fill="white"/>
</g>
<g filter="url(#filter0_f_2_790)">
<path d="M856.729 1405.9C896.112 1346.35 950.409 1322.44 1019.62 1334.16C1088.83 1345.89 1143.13 1321.98 1182.51 1262.43C1221.9 1202.88 1276.19 1178.97 1345.41 1190.69C1414.62 1202.42 1468.92 1178.5 1508.3 1118.96C1547.68 1059.41 1601.98 1035.5 1671.19 1047.22C1740.4 1058.95 1794.7 1035.03 1834.08 975.486C1873.47 915.937 1927.76 892.026 1996.98 903.75C2066.19 915.475 2120.48 891.563 2159.87 832.015C2199.25 772.467 2253.55 748.555 2322.76 760.28C2391.97 772.004 2446.27 748.092 2485.65 688.544" stroke="#02D5FF" stroke-width="20" stroke-linecap="round"/>
</g>
<path d="M860.139 1401.76C880.563 1334.57 926.201 1296.65 997.053 1288C1067.9 1279.34 1113.54 1241.42 1133.97 1174.24C1154.39 1107.05 1200.03 1069.13 1270.88 1060.48C1341.73 1051.82 1387.37 1013.9 1407.8 946.715C1428.22 879.533 1473.86 841.613 1544.71 832.955C1615.56 824.298 1661.2 786.378 1681.62 719.195C1702.05 652.012 1747.69 614.092 1818.54 605.435C1889.39 596.777 1935.03 558.857 1955.45 491.674C1975.88 424.492 2021.52 386.571 2092.37 377.914C2163.22 369.257 2208.86 331.337 2229.28 264.154" stroke="#FF2A00" stroke-width="10" stroke-linecap="round"/>
<defs>
<filter id="filter0_f_2_790" x="806.795" y="638.477" width="1728.79" height="817.489" filterUnits="userSpaceOnUse" color-interpolation-filters="sRGB">
<feFlood flood-opacity="0" result="BackgroundImageFix"/>
<feBlend mode="normal" in="SourceGraphic" in2="BackgroundImageFix" result="shape"/>
<feGaussianBlur stdDeviation="20" result="effect1_foregroundBlur_2_790"/>
</filter>
</defs>
</svg>
