<svg width="3246" height="1052" viewBox="0 0 3246 1052" fill="none" xmlns="http://www.w3.org/2000/svg">
<g clip-path="url(#clip0_2_1044)">
<rect width="3246" height="1052" fill="white"/>
<circle cx="3018" cy="20" r="384" stroke="black" stroke-width="8"/>
<circle cx="2239" cy="611" r="384" stroke="black" stroke-width="8"/>
<circle cx="2657" cy="148" r="384" stroke="black" stroke-width="8"/>
<circle cx="2172.5" cy="325" r="384" stroke="black" stroke-width="8"/>
<circle cx="3110.5" cy="527" r="384" stroke="black" stroke-width="8"/>
<circle cx="3041" cy="903" r="384" stroke="black" stroke-width="8"/>
<circle cx="2497.5" cy="1148" r="384" stroke="black" stroke-width="8"/>
<path fill-rule="evenodd" clip-rule="evenodd" d="M3581.5 0H1695.5V1052H3581.5V0ZM2722.5 910C2934.58 910 3106.5 738.077 3106.5 526C3106.5 313.923 2934.58 142 2722.5 142C2510.42 142 2338.5 313.923 2338.5 526C2338.5 738.077 2510.42 910 2722.5 910Z" fill="white"/>
<path d="M2994.51 299.676L2994.52 299.686C3000.04 306.209 3007.95 309.674 3015.89 309.674C3022.22 309.674 3028.54 307.434 3033.7 303.137L3033.71 303.13L3033.71 303.124C3045.45 293.25 3047.07 275.701 3037.18 263.937C3027.27 252.077 3009.7 250.588 2997.97 260.477C2986.22 270.261 2984.62 287.926 2994.51 299.676ZM2413.96 302.171L2413.96 302.176C2419.26 306.613 2425.59 308.721 2431.88 308.721C2439.8 308.721 2447.59 305.372 2453.14 298.845L2453.15 298.836L2453.16 298.827C2463.02 287.11 2461.69 269.545 2449.8 259.63C2438.07 249.743 2420.51 251.232 2410.6 262.974L2410.6 262.978C2400.72 274.721 2402.2 292.275 2413.96 302.171ZM2890.54 182.664L2890.54 182.67C2882.87 195.918 2887.45 212.85 2900.77 220.518C2905.1 223.109 2909.82 224.35 2914.66 224.35C2924.17 224.35 2933.57 219.414 2938.77 210.51L2938.77 210.503L2938.78 210.497C2946.44 197.252 2941.87 180.2 2928.63 172.532L2928.62 172.528L2928.62 172.524C2915.28 164.869 2898.23 169.429 2890.54 182.664ZM2519.59 171.889L2519.58 171.893L2519.57 171.897C2506.35 179.559 2501.76 196.498 2509.42 209.749C2514.62 218.772 2524.03 223.715 2533.55 223.715C2538.18 223.715 2543.04 222.619 2547.44 219.989C2560.77 212.315 2565.32 195.382 2557.65 182.043L2557.64 182.035C2549.98 168.791 2532.92 164.235 2519.59 171.889ZM2785.49 178.553L2785.56 178.565L2785.63 178.575C2787.28 178.813 2788.84 178.934 2790.45 178.934C2803.67 178.934 2815.41 169.547 2817.79 156.044L2817.79 156.034L2817.79 156.025C2820.37 140.996 2810.42 126.395 2795.16 123.781C2780.06 121.067 2765.7 131.109 2763.01 146.288C2760.28 161.398 2770.44 175.835 2785.49 178.553ZM2630.51 155.603L2630.51 155.614C2632.86 169.106 2644.62 178.616 2657.86 178.616C2659.43 178.616 2661.03 178.497 2662.61 178.255L2662.64 178.25L2662.67 178.244C2677.89 175.643 2687.91 161.164 2685.3 146.105C2682.72 130.871 2668.32 120.871 2653.17 123.46L2653.16 123.461C2638.03 126.062 2627.93 140.531 2630.51 155.603Z" fill="white" stroke="black" stroke-width="8"/>
<path d="M3076.92 526.82C3076.92 542.153 3089.38 554.637 3104.73 554.637C3120.06 554.637 3132.56 542.275 3132.56 526.82C3132.56 511.493 3120.18 499 3104.73 499C3089.38 499 3076.92 511.487 3076.92 526.82Z" fill="white" stroke="black" stroke-width="8"/>
<path d="M2314.47 525.972V526.397C2314.47 541.724 2326.85 554.217 2342.31 554.217C2357.63 554.217 2370.12 541.732 2370.12 526.397V525.972V525.55C2370.12 510.215 2357.63 497.73 2342.31 497.73C2326.99 497.73 2314.47 510.082 2314.47 525.444V525.972Z" fill="white" stroke="black" stroke-width="8"/>
<path d="M2354.97 421.093L2355.11 421.237L2355.98 421.548C2359.02 422.634 2362.22 423.265 2365.48 423.265C2376.76 423.265 2387.5 416.232 2391.6 404.971C2396.91 390.506 2389.48 374.56 2375.02 369.249C2360.69 363.939 2344.61 371.226 2339.29 385.703C2334.08 399.876 2341.11 415.469 2354.97 421.093Z" fill="white" stroke="black" stroke-width="8"/>
<path d="M2794.29 929.244L2794.35 929.236L2794.41 929.226C2809.5 926.627 2819.65 912.162 2816.93 897.066C2814.34 881.997 2799.88 871.731 2784.78 874.447C2769.54 877.056 2759.55 891.538 2762.24 906.611C2764.62 920.075 2776.23 929.602 2789.58 929.602C2791.21 929.602 2792.67 929.476 2794.29 929.244Z" fill="white" stroke="black" stroke-width="8"/>
<path d="M2652.33 929.121L2652.39 929.131L2652.45 929.14C2654.08 929.37 2655.52 929.497 2657.12 929.497C2670.35 929.497 2682.11 919.991 2684.46 906.508C2687.18 891.533 2677.15 876.94 2661.94 874.339C2646.85 871.746 2632.4 881.858 2629.78 896.954C2627.05 911.947 2637.2 926.522 2652.33 929.121Z" fill="white" stroke="black" stroke-width="8"/>
<path d="M2889.9 870.544L2889.92 870.577L2889.94 870.611C2895.21 879.323 2904.46 884.396 2914.12 884.396C2918.75 884.396 2923.61 883.299 2928.02 880.669C2941.24 872.993 2945.79 856.063 2938.15 842.732L2938.14 842.711L2938.12 842.69C2930.34 829.493 2913.41 824.908 2900.06 832.573C2886.69 840.251 2882.25 857.321 2889.9 870.544Z" fill="white" stroke="black" stroke-width="8"/>
<path d="M2518.94 880.367L2518.95 880.374L2518.96 880.38C2523.28 882.843 2528.08 884.08 2532.81 884.08C2542.33 884.08 2551.7 879.143 2556.9 870.239L2556.9 870.233C2564.6 856.982 2559.99 839.931 2546.79 832.266L2546.78 832.26L2546.77 832.255C2533.41 824.606 2516.36 829.152 2508.69 842.402L2508.68 842.409L2508.68 842.416C2501.02 855.781 2505.72 872.713 2518.94 880.367Z" fill="white" stroke="black" stroke-width="8"/>
<path d="M2994.08 753.643L2994.08 753.647C2984.21 765.374 2985.66 783.05 2997.45 792.851C3002.74 797.283 3009.04 799.391 3015.36 799.391C3023.25 799.391 3031.16 796.062 3036.64 789.489C3046.52 777.746 3045.04 760.197 3033.28 750.304C3021.53 740.415 3003.99 741.897 2994.08 753.643Z" fill="white" stroke="black" stroke-width="8"/>
<path d="M2449.35 792.67L2449.38 792.642L2449.41 792.613C2460.99 782.742 2462.65 765.201 2452.72 753.434C2442.86 741.707 2425.29 740.079 2413.52 749.986C2402.18 759.537 2400.28 776.27 2409.15 788.003V788.177L2410.1 789.295C2415.64 795.842 2423.46 799.18 2431.47 799.18C2437.81 799.18 2444.11 796.936 2449.35 792.67Z" fill="white" stroke="black" stroke-width="8"/>
<path d="M3055.53 647.527C3050.36 661.912 3057.68 677.767 3072.02 683.152L3072.01 683.186C3075.21 684.469 3078.48 684.954 3081.65 684.954C3092.99 684.954 3103.67 678.045 3107.75 666.652C3113.05 652.188 3105.63 636.251 3091.2 630.942C3076.8 625.613 3060.87 633.064 3055.54 647.493L3055.53 647.51L3055.53 647.527Z" fill="white" stroke="black" stroke-width="8"/>
<path d="M2338.95 666.216L2338.95 666.22C2343.06 677.629 2353.82 684.53 2365.18 684.53C2368.35 684.53 2371.53 683.898 2374.63 682.831L2374.68 682.816L2374.72 682.799C2389.03 677.495 2396.58 661.57 2391.27 647.084C2386.07 632.741 2370.11 625.194 2355.64 630.516C2341.17 635.826 2333.76 651.763 2338.95 666.216Z" fill="white" stroke="black" stroke-width="8"/>
<path d="M3071.38 369.037C3056.92 374.345 3049.49 390.29 3054.8 404.759C3058.9 416.012 3069.52 423.051 3080.92 423.051H3082.6L3082.76 422.887C3085.42 422.706 3088.02 422.121 3090.52 421.23L3090.54 421.222L3090.57 421.214C3104.9 415.897 3112.3 399.961 3107.12 385.519L3107.11 385.501L3107.1 385.482C3101.79 371.138 3085.83 363.721 3071.38 369.037ZM3071.38 369.037C3071.38 369.036 3071.38 369.036 3071.38 369.036L3072.76 372.791M3071.38 369.037C3071.38 369.037 3071.38 369.037 3071.38 369.037L3072.76 372.791M3072.76 372.791C3060.36 377.342 3054.01 390.998 3058.55 403.386C3062.06 413.019 3071.16 419.051 3080.92 419.051L3103.35 386.871C3098.81 374.59 3085.13 368.238 3072.76 372.791Z" fill="white" stroke="black" stroke-width="8"/>
<path fill-rule="evenodd" clip-rule="evenodd" d="M1391.5 0H-494.5V1052H1391.5V0ZM532.5 910C744.577 910 916.5 738.077 916.5 526C916.5 313.923 744.577 142 532.5 142C320.423 142 148.5 313.923 148.5 526C148.5 738.077 320.423 910 532.5 910Z" fill="white"/>
<path d="M804.51 299.676L804.519 299.686C810.043 306.209 817.951 309.674 825.892 309.674C832.224 309.674 838.54 307.434 843.699 303.137L843.706 303.13L843.714 303.124C855.445 293.25 857.072 275.701 847.177 263.937C837.269 252.077 819.701 250.588 807.972 260.477C796.217 270.261 794.624 287.926 804.51 299.676ZM223.956 302.171L223.962 302.176C229.256 306.613 235.587 308.721 241.88 308.721C249.804 308.721 257.587 305.372 263.145 298.845L263.152 298.836L263.16 298.827C273.02 287.11 271.687 269.545 259.798 259.63C248.071 249.743 230.511 251.232 220.603 262.974L220.599 262.978C210.719 274.721 212.198 292.275 223.956 302.171ZM700.539 182.664L700.535 182.67C692.869 195.918 697.448 212.85 710.765 220.518C715.102 223.109 719.819 224.35 724.656 224.35C734.17 224.35 743.574 219.414 748.77 210.51L748.773 210.503L748.777 210.497C756.442 197.252 751.868 180.2 738.629 172.532L738.622 172.528L738.616 172.524C725.279 164.869 708.23 169.429 700.539 182.664ZM329.588 171.889L329.581 171.893L329.575 171.897C316.345 179.559 311.758 196.498 319.423 209.749C324.617 218.772 334.027 223.715 343.548 223.715C348.175 223.715 353.035 222.619 357.438 219.989C370.767 212.315 375.325 195.382 367.648 182.043L367.643 182.035C359.977 168.791 342.923 164.235 329.588 171.889ZM595.495 178.553L595.563 178.565L595.632 178.575C597.279 178.813 598.844 178.934 600.449 178.934C613.67 178.934 625.412 169.547 627.791 156.044L627.793 156.034L627.795 156.025C630.367 140.996 620.416 126.395 605.156 123.781C590.061 121.067 575.701 131.109 573.006 146.288C570.278 161.398 580.439 175.835 595.495 178.553ZM440.51 155.603L440.512 155.614C442.859 169.106 454.617 178.616 467.856 178.616C469.428 178.616 471.029 178.497 472.606 178.255L472.639 178.25L472.672 178.244C487.89 175.643 497.906 161.164 495.305 146.105C492.717 130.871 478.322 120.871 463.168 123.46L463.164 123.461C448.033 126.062 437.931 140.531 440.51 155.603Z" fill="white" stroke="black" stroke-width="8"/>
<path d="M886.918 526.82C886.918 542.153 899.379 554.637 914.728 554.637C930.06 554.637 942.563 542.275 942.563 526.82C942.563 511.493 930.185 499 914.728 499C899.378 499 886.918 511.487 886.918 526.82Z" fill="white" stroke="black" stroke-width="8"/>
<path d="M124.471 525.972V526.397C124.471 541.724 136.849 554.217 152.306 554.217C167.627 554.217 180.116 541.732 180.116 526.397V525.972V525.55C180.116 510.215 167.627 497.73 152.306 497.73C136.985 497.73 124.471 510.082 124.471 525.444V525.972Z" fill="white" stroke="black" stroke-width="8"/>
<path d="M164.968 421.093L165.109 421.237L165.979 421.548C169.019 422.634 172.219 423.265 175.481 423.265C186.761 423.265 197.496 416.232 201.599 404.971C206.909 390.506 199.482 374.56 185.022 369.249C170.69 363.939 154.606 371.226 149.289 385.703C144.084 399.876 151.106 415.469 164.968 421.093Z" fill="white" stroke="black" stroke-width="8"/>
<path d="M604.293 929.244L604.35 929.236L604.406 929.226C619.496 926.627 629.65 912.162 626.927 897.066C624.338 881.997 609.883 871.731 594.777 874.447C579.54 877.056 569.548 891.538 572.243 906.611C574.618 920.075 586.227 929.602 599.585 929.602C601.208 929.602 602.672 929.476 604.293 929.244Z" fill="white" stroke="black" stroke-width="8"/>
<path d="M462.325 929.121L462.385 929.131L462.445 929.14C464.078 929.37 465.515 929.497 467.119 929.497C480.354 929.497 492.106 919.991 494.46 906.508C497.184 891.533 487.154 876.94 471.937 874.339C456.849 871.746 442.401 881.858 439.778 896.954C437.052 911.947 447.205 926.522 462.325 929.121Z" fill="white" stroke="black" stroke-width="8"/>
<path d="M699.9 870.544L699.92 870.577L699.94 870.611C705.212 879.323 714.463 884.396 724.123 884.396C728.753 884.396 733.615 883.299 738.019 880.669C751.243 872.993 755.794 856.063 748.15 842.732L748.137 842.711L748.125 842.69C740.339 829.493 723.414 824.908 710.061 832.573C696.686 840.251 692.246 857.321 699.9 870.544Z" fill="white" stroke="black" stroke-width="8"/>
<path d="M328.938 880.367L328.949 880.374L328.96 880.38C333.276 882.843 338.076 884.08 342.809 884.08C352.327 884.08 361.704 879.143 366.898 870.239L366.901 870.233C374.601 856.982 369.99 839.931 356.786 832.266L356.776 832.26L356.766 832.255C343.41 824.606 326.356 829.152 318.688 842.402L318.684 842.409L318.68 842.416C311.016 855.781 315.721 872.713 328.938 880.367Z" fill="white" stroke="black" stroke-width="8"/>
<path d="M804.082 753.643L804.078 753.647C794.209 765.374 795.66 783.05 807.447 792.851C812.738 797.283 819.04 799.391 825.358 799.391C833.254 799.391 841.164 796.062 846.645 789.489C856.518 777.746 855.037 760.197 843.282 750.304C831.533 740.415 813.994 741.897 804.082 753.643Z" fill="white" stroke="black" stroke-width="8"/>
<path d="M259.346 792.67L259.381 792.642L259.415 792.613C270.995 782.742 272.654 765.201 262.724 753.434C252.856 741.707 235.293 740.079 223.523 749.986C212.175 759.537 210.281 776.27 219.151 788.003V788.177L220.098 789.295C225.643 795.842 233.461 799.18 241.472 799.18C247.81 799.18 254.109 796.936 259.346 792.67Z" fill="white" stroke="black" stroke-width="8"/>
<path d="M865.528 647.527C860.364 661.912 867.684 677.767 882.015 683.152L882.009 683.186C885.21 684.469 888.475 684.954 891.654 684.954C902.991 684.954 913.67 678.045 917.751 666.652C923.052 652.188 915.627 636.251 901.196 630.942C886.796 625.613 870.869 633.064 865.541 647.493L865.534 647.51L865.528 647.527Z" fill="white" stroke="black" stroke-width="8"/>
<path d="M148.948 666.216L148.949 666.22C153.058 677.629 163.824 684.53 175.176 684.53C178.347 684.53 181.535 683.898 184.634 682.831L184.679 682.816L184.723 682.799C199.029 677.495 206.583 661.57 201.27 647.084C196.07 632.741 180.105 625.194 165.639 630.516C151.174 635.826 143.76 651.763 148.948 666.216Z" fill="white" stroke="black" stroke-width="8"/>
<path d="M881.38 369.037C866.917 374.345 859.489 390.29 864.798 404.759C868.897 416.012 879.525 423.051 890.916 423.051H892.604L892.764 422.887C895.421 422.706 898.024 422.121 900.52 421.23L900.543 421.222L900.565 421.214C914.902 415.897 922.304 399.961 917.118 385.519L917.112 385.501L917.105 385.482C911.792 371.138 895.829 363.721 881.38 369.037ZM881.38 369.037C881.38 369.036 881.381 369.036 881.381 369.036L882.759 372.791M881.38 369.037C881.379 369.037 881.379 369.037 881.378 369.037L882.759 372.791M882.759 372.791C870.359 377.342 864.006 390.998 868.555 403.386C872.062 413.019 881.159 419.051 890.916 419.051L913.354 386.871C908.805 374.59 895.134 368.238 882.759 372.791Z" fill="white" stroke="black" stroke-width="8"/>
<path d="M1102.04 530.729C1159.47 492.805 1217.62 492.73 1276.5 530.505C1335.38 568.281 1393.54 568.206 1450.96 530.282C1508.39 492.357 1566.54 492.283 1625.42 530.058C1684.3 567.833 1742.46 567.759 1799.88 529.834C1857.31 491.91 1915.46 491.835 1974.34 529.611C2033.22 567.386 2091.38 567.311 2148.8 529.387" stroke="black" stroke-width="8"/>
<path d="M2107.98 517.682L2149.15 529.158L2137.67 570.323" stroke="black" stroke-width="8"/>
<path d="M1548.79 690.391C1548.79 689.844 1548.87 689.128 1549.02 688.242C1549.21 687.357 1549.56 685.977 1550.08 684.102L1556.09 662.422H1552.03V659.648C1554.66 658.581 1556.88 657.409 1558.67 656.133C1561.85 653.893 1564.51 651.016 1566.64 647.5H1569.53L1566.37 659.102H1572.11V662.422H1565.43L1560.27 680.938C1559.8 682.578 1559.44 683.945 1559.18 685.039C1558.74 686.914 1558.52 688.203 1558.52 688.906C1558.52 689.401 1558.66 689.727 1558.95 689.883C1559.26 690.039 1559.52 690.117 1559.73 690.117C1560.48 690.117 1561.45 689.466 1562.62 688.164C1563.82 686.862 1564.91 685.378 1565.9 683.711L1567.66 684.844C1565.29 688.438 1563.39 690.938 1561.95 692.344C1559.53 694.688 1556.97 695.859 1554.26 695.859C1552.7 695.859 1551.39 695.352 1550.35 694.336C1549.31 693.294 1548.79 691.979 1548.79 690.391ZM1571.88 690.391C1571.88 689.74 1572.03 688.711 1572.34 687.305C1572.53 686.497 1572.8 685.43 1573.16 684.102L1577.97 666.133C1578.02 665.924 1578.06 665.716 1578.09 665.508C1578.14 665.299 1578.16 665.104 1578.16 664.922C1578.16 663.854 1577.83 663.19 1577.15 662.93C1576.47 662.669 1575.23 662.5 1573.44 662.422V660.312C1574.95 660.208 1577.14 660 1580 659.688C1582.89 659.349 1584.93 659.062 1586.13 658.828L1589.57 658.164L1583.36 680.938C1582.84 682.891 1582.49 684.245 1582.3 685C1581.84 686.927 1581.6 688.177 1581.6 688.75C1581.6 689.323 1581.73 689.701 1581.99 689.883C1582.25 690.039 1582.54 690.117 1582.85 690.117C1583.66 690.117 1584.66 689.427 1585.86 688.047C1587.06 686.667 1588.11 685.221 1589.02 683.711L1590.78 684.844C1588.18 688.672 1586.18 691.25 1584.8 692.578C1582.54 694.766 1580.12 695.859 1577.54 695.859C1576.08 695.859 1574.77 695.417 1573.59 694.531C1572.45 693.62 1571.88 692.24 1571.88 690.391ZM1587.34 640.312C1588.83 640.312 1590.09 640.833 1591.13 641.875C1592.17 642.917 1592.7 644.18 1592.7 645.664C1592.7 647.148 1592.17 648.424 1591.13 649.492C1590.09 650.534 1588.83 651.055 1587.34 651.055C1585.86 651.055 1584.58 650.534 1583.52 649.492C1582.47 648.424 1581.95 647.148 1581.95 645.664C1581.95 644.18 1582.47 642.917 1583.52 641.875C1584.58 640.833 1585.86 640.312 1587.34 640.312ZM1593.32 695L1600.43 669.453C1600.85 667.943 1601.12 666.888 1601.25 666.289C1601.38 665.664 1601.45 665.065 1601.45 664.492C1601.45 663.633 1601.17 663.099 1600.62 662.891C1600.1 662.682 1598.93 662.526 1597.11 662.422V660.312C1600.47 660.104 1603.32 659.831 1605.66 659.492C1607.17 659.284 1609.66 658.841 1613.12 658.164L1608.32 672.969L1608.59 673.164C1612.08 667.878 1614.71 664.336 1616.48 662.539C1619.38 659.622 1622.42 658.164 1625.62 658.164C1627.11 658.164 1628.35 658.633 1629.34 659.57C1630.33 660.482 1630.82 661.745 1630.82 663.359C1630.82 664.583 1630.59 666.029 1630.12 667.695C1629.86 668.633 1629.51 669.805 1629.06 671.211C1631.8 667.018 1634.01 664.076 1635.7 662.383C1638.52 659.57 1641.43 658.164 1644.45 658.164C1646.48 658.164 1648.03 658.711 1649.1 659.805C1650.17 660.872 1650.7 662.396 1650.7 664.375C1650.7 665.495 1650.46 666.992 1649.96 668.867C1649.91 669.128 1649.64 670.065 1649.14 671.68L1644.88 684.375C1644.57 685.26 1644.27 686.185 1643.98 687.148C1643.72 688.086 1643.59 688.75 1643.59 689.141C1643.59 689.505 1643.74 689.792 1644.02 690C1644.34 690.208 1644.62 690.312 1644.88 690.312C1645.64 690.312 1646.69 689.44 1648.05 687.695C1648.78 686.758 1649.57 685.586 1650.43 684.18L1652.19 685.312C1650.21 688.516 1648.53 690.82 1647.15 692.227C1644.75 694.648 1642.23 695.859 1639.57 695.859C1638.22 695.859 1636.95 695.469 1635.78 694.688C1634.61 693.906 1634.02 692.617 1634.02 690.82C1634.02 689.336 1634.38 687.253 1635.08 684.57C1635.52 682.93 1636.11 681.042 1636.84 678.906L1640.82 666.875C1640.87 666.693 1640.91 666.51 1640.94 666.328C1640.99 666.12 1641.02 665.924 1641.02 665.742C1641.02 665.247 1640.87 664.831 1640.59 664.492C1640.27 664.154 1639.82 663.984 1639.22 663.984C1637.55 663.984 1635.66 665.378 1633.55 668.164C1631.47 670.951 1629.73 673.828 1628.32 676.797C1627.8 677.865 1627.28 679.167 1626.76 680.703C1626.26 682.24 1624.74 687.005 1622.19 695H1612.58L1620.7 669.102C1620.91 668.451 1621.08 667.865 1621.21 667.344C1621.34 666.797 1621.41 666.276 1621.41 665.781C1621.41 665 1621.25 664.505 1620.94 664.297C1620.62 664.089 1620.27 663.984 1619.88 663.984C1618.63 663.984 1616.98 665.182 1614.92 667.578C1612.86 669.948 1610.91 673.034 1609.06 676.836C1608.07 678.867 1606.99 681.706 1605.82 685.352C1605.09 687.565 1604.13 690.781 1602.93 695H1593.32ZM1680.39 663.945C1680.39 663.034 1680.22 662.266 1679.88 661.641C1679.54 660.99 1678.93 660.664 1678.05 660.664C1676.17 660.664 1674.32 662.174 1672.5 665.195C1670.7 668.216 1669.1 672.448 1667.7 677.891C1672.3 676.849 1675.57 674.844 1677.5 671.875C1679.43 668.906 1680.39 666.263 1680.39 663.945ZM1656.33 683.711C1656.33 677.669 1658.65 671.927 1663.28 666.484C1668.07 660.859 1673.33 658.047 1679.06 658.047C1681.54 658.047 1683.58 658.659 1685.2 659.883C1686.84 661.107 1687.66 662.839 1687.66 665.078C1687.66 668.464 1685.76 671.667 1681.95 674.688C1678.15 677.708 1673.22 679.635 1667.15 680.469C1666.99 681.276 1666.88 682.031 1666.8 682.734C1666.72 683.438 1666.68 684.01 1666.68 684.453C1666.68 686.094 1666.91 687.383 1667.38 688.32C1668.22 690.065 1669.82 690.938 1672.19 690.938C1674.11 690.938 1676.03 689.948 1677.93 687.969C1678.95 686.927 1680.04 685.482 1681.21 683.633L1683.55 685C1681.55 688.359 1679.66 690.82 1677.89 692.383C1675.08 694.883 1671.78 696.133 1668.01 696.133C1665.2 696.133 1662.54 695.117 1660.04 693.086C1657.57 691.029 1656.33 687.904 1656.33 683.711Z" fill="black"/>
</g>
<defs>
<clipPath id="clip0_2_1044">
<rect width="3246" height="1052" fill="white"/>
</clipPath>
</defs>
</svg>
