<svg width="412" height="288" viewBox="0 0 412 288" fill="none" xmlns="http://www.w3.org/2000/svg">
<rect width="412" height="288" fill="white"/>
<path d="M303.797 29.8538L47.6934 143.947L302 257.6" stroke="#D1D1D1" stroke-width="3"/>
<path d="M305.5 67.5998L49.5 143.85L305.5 220.5" stroke="#D1D1D1" stroke-width="3"/>
<path d="M306.5 107.7L48 143.851L307.5 180.5" stroke="#D1D1D1" stroke-width="3"/>
<path d="M345.007 144.044C345.007 175.97 340.594 204.81 333.503 225.616C329.955 236.026 325.763 244.343 321.183 250.028C316.591 255.725 311.774 258.588 306.955 258.588C302.137 258.588 297.319 255.725 292.728 250.028C288.147 244.343 283.956 236.026 280.408 225.616C273.316 204.81 268.904 175.97 268.904 144.044C268.904 112.119 273.316 83.2786 280.408 62.4725C283.956 52.0619 288.147 43.7448 292.728 38.0605C297.319 32.3628 302.137 29.5 306.955 29.5C311.774 29.5 316.591 32.3628 321.183 38.0605C325.763 43.7448 329.955 52.0619 333.503 62.4725C340.594 83.2786 345.007 112.119 345.007 144.044Z" stroke="#D1D1D1" stroke-width="3"/>
<path d="M332.049 144.044C332.049 165.502 329.097 184.866 324.367 198.813C322 205.794 319.215 211.336 316.195 215.102C313.165 218.882 310.065 220.68 307.052 220.68C304.039 220.68 300.939 218.882 297.909 215.102C294.889 211.336 292.104 205.794 289.737 198.813C285.007 184.866 282.055 165.502 282.055 144.044C282.055 122.586 285.007 103.222 289.737 89.2751C292.104 82.294 294.889 76.7524 297.909 72.9863C300.939 69.2062 304.039 67.4077 307.052 67.4077C310.065 67.4077 313.165 69.2062 316.195 72.9863C319.215 76.7524 322 82.294 324.367 89.2751C329.097 103.222 332.049 122.586 332.049 144.044Z" stroke="#D1D1D1" stroke-width="3"/>
<path d="M295.787 144.044C295.787 154.394 297.202 163.702 299.447 170.37C300.573 173.712 301.879 176.308 303.257 178.039C304.647 179.784 305.94 180.452 307.052 180.452C308.164 180.452 309.457 179.784 310.847 178.039C312.225 176.308 313.531 173.712 314.657 170.37C316.902 163.702 318.317 154.394 318.317 144.044C318.317 133.694 316.902 124.386 314.657 117.718C313.531 114.376 312.225 111.78 310.847 110.05C309.457 108.304 308.164 107.636 307.052 107.636C305.94 107.636 304.647 108.304 303.257 110.05C301.879 111.78 300.573 114.376 299.447 117.718C297.202 124.386 295.787 133.694 295.787 144.044Z" stroke="#D1D1D1" stroke-width="3"/>
<g filter="url(#filter0_f_4_875)">
<ellipse cx="307.125" cy="144.088" rx="25.5" ry="77" fill="#02D5FF" fill-opacity="0.75"/>
</g>
<path d="M277.116 137.244H285.666L285.267 139.562H279.51L278.864 143.324H284.298L283.899 145.642H278.446L277.515 151H274.703L277.116 137.244ZM288.281 147.219C288.281 147.827 288.452 148.283 288.794 148.568C289.136 148.853 289.573 149.005 290.105 149.005C290.751 149.005 291.264 148.796 291.663 148.359C292.043 147.941 292.309 147.276 292.48 146.364L294.076 137.244H296.888L295.292 146.288C295.159 147.067 294.95 147.77 294.703 148.378C294.456 149.005 294.114 149.518 293.696 149.955C293.278 150.392 292.765 150.715 292.176 150.943C291.568 151.171 290.846 151.285 290.01 151.285C289.326 151.285 288.699 151.209 288.148 151.057C287.578 150.905 287.103 150.677 286.704 150.354C286.305 150.031 285.982 149.651 285.773 149.176C285.564 148.701 285.45 148.15 285.45 147.523C285.45 147.352 285.45 147.162 285.469 146.991C285.488 146.82 285.507 146.63 285.545 146.44L287.16 137.244H289.972L288.376 146.364C288.319 146.725 288.281 147.01 288.281 147.219ZM301.231 139.581H297.697L298.096 137.244H307.976L307.577 139.581H304.043L302.029 151H299.217L301.231 139.581ZM310.306 147.219C310.306 147.827 310.477 148.283 310.819 148.568C311.161 148.853 311.598 149.005 312.13 149.005C312.776 149.005 313.289 148.796 313.688 148.359C314.068 147.941 314.334 147.276 314.505 146.364L316.101 137.244H318.913L317.317 146.288C317.184 147.067 316.975 147.77 316.728 148.378C316.481 149.005 316.139 149.518 315.721 149.955C315.303 150.392 314.79 150.715 314.201 150.943C313.593 151.171 312.871 151.285 312.035 151.285C311.351 151.285 310.724 151.209 310.173 151.057C309.603 150.905 309.128 150.677 308.729 150.354C308.33 150.031 308.007 149.651 307.798 149.176C307.589 148.701 307.475 148.15 307.475 147.523C307.475 147.352 307.475 147.162 307.494 146.991C307.513 146.82 307.532 146.63 307.57 146.44L309.185 137.244H311.997L310.401 146.364C310.344 146.725 310.306 147.01 310.306 147.219ZM320.578 137.244H324.606C325.195 137.244 325.784 137.301 326.354 137.396C326.905 137.51 327.418 137.7 327.855 137.947C328.292 138.213 328.634 138.574 328.9 139.011C329.147 139.448 329.28 139.999 329.28 140.664C329.28 141.785 328.957 142.64 328.292 143.267C327.627 143.894 326.696 144.293 325.537 144.464V144.54C325.936 144.616 326.24 144.749 326.487 144.939C326.734 145.148 326.924 145.376 327.057 145.661C327.19 145.946 327.304 146.269 327.38 146.63C327.456 146.991 327.532 147.39 327.589 147.808L328.083 151H324.948L324.625 147.732C324.587 147.333 324.53 147.01 324.473 146.725C324.416 146.459 324.302 146.25 324.15 146.079C323.998 145.927 323.789 145.813 323.523 145.737C323.238 145.68 322.877 145.642 322.421 145.642H321.908L320.977 151H318.165L320.578 137.244ZM322.991 139.448L322.307 143.438H323.637C323.998 143.438 324.34 143.381 324.663 143.286C324.986 143.191 325.29 143.058 325.537 142.849C325.784 142.659 325.993 142.412 326.164 142.108C326.316 141.804 326.392 141.443 326.392 141.025C326.392 140.474 326.183 140.056 325.784 139.809C325.385 139.562 324.853 139.448 324.207 139.448H322.991ZM332.122 137.244H340.368L339.969 139.562H334.516L333.946 142.849H339.076L338.677 145.167H333.547L332.92 148.682H338.639L338.24 151H329.709L332.122 137.244Z" fill="black"/>
<g filter="url(#filter1_f_4_875)">
<ellipse cx="194.125" cy="144.588" rx="14.5" ry="43.5" fill="#02D5FF" fill-opacity="0.75"/>
</g>
<path d="M175.398 144.825C175.037 144.673 174.695 144.483 174.391 144.236C174.068 143.989 173.802 143.723 173.574 143.4C173.346 143.096 173.175 142.773 173.042 142.412C172.909 142.051 172.833 141.69 172.833 141.31C172.833 140.531 172.985 139.866 173.289 139.315C173.593 138.764 173.992 138.327 174.486 137.966C174.98 137.624 175.55 137.377 176.177 137.206C176.804 137.035 177.431 136.959 178.077 136.959C178.704 136.959 179.274 137.054 179.825 137.225C180.357 137.396 180.832 137.643 181.231 137.966C181.63 138.289 181.934 138.688 182.162 139.144C182.371 139.6 182.485 140.113 182.485 140.664C182.485 140.797 182.485 140.949 182.466 141.082C182.447 141.215 182.428 141.367 182.409 141.5H179.445C179.483 141.367 179.502 141.253 179.521 141.139C179.521 141.025 179.521 140.911 179.521 140.797C179.521 140.322 179.369 139.923 179.065 139.6C178.742 139.296 178.343 139.144 177.83 139.144C177.279 139.144 176.823 139.296 176.424 139.6C176.025 139.904 175.835 140.36 175.835 140.949C175.835 141.31 175.968 141.633 176.253 141.899C176.519 142.184 176.918 142.431 177.469 142.64L178.97 143.248C179.806 143.59 180.452 144.046 180.908 144.635C181.364 145.224 181.592 145.889 181.592 146.63C181.592 147.485 181.421 148.207 181.098 148.796C180.775 149.385 180.338 149.879 179.806 150.24C179.274 150.601 178.666 150.867 177.982 151.038C177.298 151.209 176.614 151.285 175.911 151.285C175.189 151.285 174.543 151.19 173.992 151C173.441 150.829 172.966 150.563 172.586 150.221C172.206 149.879 171.921 149.461 171.712 148.986C171.503 148.511 171.408 147.998 171.408 147.428C171.408 147.105 171.446 146.744 171.522 146.364H174.429C174.391 146.535 174.372 146.706 174.353 146.839C174.334 146.972 174.334 147.124 174.334 147.276C174.334 147.827 174.505 148.264 174.847 148.549C175.189 148.853 175.645 149.005 176.215 149.005C176.519 149.005 176.823 148.967 177.108 148.891C177.393 148.834 177.64 148.72 177.849 148.568C178.058 148.416 178.248 148.226 178.381 147.979C178.514 147.751 178.571 147.466 178.571 147.143C178.571 146.44 178.039 145.889 176.956 145.452L175.398 144.825ZM187.38 149.005C187.817 149.005 188.197 148.872 188.539 148.625C188.862 148.378 189.166 148.055 189.413 147.656C189.66 147.257 189.888 146.82 190.059 146.307C190.23 145.813 190.382 145.3 190.496 144.787C190.591 144.274 190.667 143.78 190.724 143.305C190.781 142.83 190.8 142.412 190.8 142.07C190.8 141.177 190.667 140.474 190.382 139.98C190.097 139.486 189.679 139.239 189.109 139.239C188.672 139.239 188.292 139.353 187.969 139.6C187.627 139.847 187.323 140.17 187.076 140.569C186.829 140.968 186.601 141.424 186.43 141.918C186.259 142.431 186.107 142.925 186.012 143.438C185.898 143.951 185.822 144.464 185.765 144.939C185.708 145.414 185.689 145.832 185.689 146.174C185.689 147.067 185.822 147.77 186.107 148.264C186.392 148.758 186.81 149.005 187.38 149.005ZM187.209 151.285C186.544 151.285 185.936 151.171 185.385 150.943C184.834 150.734 184.359 150.411 183.979 149.974C183.58 149.537 183.295 149.005 183.086 148.378C182.877 147.751 182.763 147.029 182.763 146.212C182.763 145.547 182.801 144.863 182.896 144.16C182.991 143.457 183.143 142.754 183.352 142.07C183.561 141.386 183.827 140.74 184.15 140.113C184.473 139.486 184.891 138.954 185.366 138.479C185.841 138.004 186.411 137.643 187.057 137.358C187.703 137.092 188.444 136.959 189.28 136.959C189.945 136.959 190.572 137.073 191.123 137.282C191.674 137.51 192.13 137.833 192.529 138.27C192.909 138.707 193.213 139.239 193.422 139.866C193.631 140.493 193.726 141.215 193.726 142.032C193.726 142.697 193.688 143.381 193.593 144.084C193.498 144.787 193.365 145.49 193.156 146.174C192.947 146.858 192.662 147.504 192.339 148.131C192.016 148.758 191.598 149.29 191.123 149.765C190.648 150.24 190.078 150.601 189.432 150.867C188.786 151.152 188.045 151.285 187.209 151.285ZM198.564 149.005C199.001 149.005 199.381 148.872 199.723 148.625C200.046 148.378 200.35 148.055 200.597 147.656C200.844 147.257 201.072 146.82 201.243 146.307C201.414 145.813 201.566 145.3 201.68 144.787C201.775 144.274 201.851 143.78 201.908 143.305C201.965 142.83 201.984 142.412 201.984 142.07C201.984 141.177 201.851 140.474 201.566 139.98C201.281 139.486 200.863 139.239 200.293 139.239C199.856 139.239 199.476 139.353 199.153 139.6C198.811 139.847 198.507 140.17 198.26 140.569C198.013 140.968 197.785 141.424 197.614 141.918C197.443 142.431 197.291 142.925 197.196 143.438C197.082 143.951 197.006 144.464 196.949 144.939C196.892 145.414 196.873 145.832 196.873 146.174C196.873 147.067 197.006 147.77 197.291 148.264C197.576 148.758 197.994 149.005 198.564 149.005ZM198.393 151.285C197.728 151.285 197.12 151.171 196.569 150.943C196.018 150.734 195.543 150.411 195.163 149.974C194.764 149.537 194.479 149.005 194.27 148.378C194.061 147.751 193.947 147.029 193.947 146.212C193.947 145.547 193.985 144.863 194.08 144.16C194.175 143.457 194.327 142.754 194.536 142.07C194.745 141.386 195.011 140.74 195.334 140.113C195.657 139.486 196.075 138.954 196.55 138.479C197.025 138.004 197.595 137.643 198.241 137.358C198.887 137.092 199.628 136.959 200.464 136.959C201.129 136.959 201.756 137.073 202.307 137.282C202.858 137.51 203.314 137.833 203.713 138.27C204.093 138.707 204.397 139.239 204.606 139.866C204.815 140.493 204.91 141.215 204.91 142.032C204.91 142.697 204.872 143.381 204.777 144.084C204.682 144.787 204.549 145.49 204.34 146.174C204.131 146.858 203.846 147.504 203.523 148.131C203.2 148.758 202.782 149.29 202.307 149.765C201.832 150.24 201.262 150.601 200.616 150.867C199.97 151.152 199.229 151.285 198.393 151.285ZM213.946 137.244H216.53L214.117 151H210.773L208.968 141.348H208.816C208.702 142.26 208.588 143.134 208.474 143.951C208.341 144.787 208.208 145.642 208.056 146.516L207.277 151H204.693L207.106 137.244H210.45L212.274 146.744H212.426C212.54 145.832 212.654 144.958 212.787 144.122C212.901 143.305 213.034 142.45 213.186 141.576L213.946 137.244Z" fill="black"/>
<g filter="url(#filter2_f_4_875)">
<ellipse cx="96.1255" cy="144.088" rx="6.5" ry="20" fill="#02D5FF" fill-opacity="0.75"/>
</g>
<path d="M87.9871 137.244H90.5711L88.1581 151H84.8141L83.0091 141.348H82.8571C82.7431 142.26 82.6291 143.134 82.5151 143.951C82.3821 144.787 82.2491 145.642 82.0971 146.516L81.3181 151H78.7341L81.1471 137.244H84.4911L86.3151 146.744H86.4671C86.5811 145.832 86.6951 144.958 86.8281 144.122C86.9421 143.305 87.0751 142.45 87.2271 141.576L87.9871 137.244ZM94.9717 149.005C95.4087 149.005 95.7887 148.872 96.1307 148.625C96.4537 148.378 96.7577 148.055 97.0047 147.656C97.2517 147.257 97.4797 146.82 97.6507 146.307C97.8217 145.813 97.9737 145.3 98.0877 144.787C98.1827 144.274 98.2587 143.78 98.3157 143.305C98.3727 142.83 98.3917 142.412 98.3917 142.07C98.3917 141.177 98.2587 140.474 97.9737 139.98C97.6887 139.486 97.2707 139.239 96.7007 139.239C96.2637 139.239 95.8837 139.353 95.5607 139.6C95.2187 139.847 94.9147 140.17 94.6677 140.569C94.4207 140.968 94.1927 141.424 94.0217 141.918C93.8507 142.431 93.6987 142.925 93.6037 143.438C93.4897 143.951 93.4137 144.464 93.3567 144.939C93.2997 145.414 93.2807 145.832 93.2807 146.174C93.2807 147.067 93.4137 147.77 93.6987 148.264C93.9837 148.758 94.4017 149.005 94.9717 149.005ZM94.8007 151.285C94.1357 151.285 93.5277 151.171 92.9767 150.943C92.4257 150.734 91.9507 150.411 91.5707 149.974C91.1717 149.537 90.8867 149.005 90.6777 148.378C90.4687 147.751 90.3547 147.029 90.3547 146.212C90.3547 145.547 90.3927 144.863 90.4877 144.16C90.5827 143.457 90.7347 142.754 90.9437 142.07C91.1527 141.386 91.4187 140.74 91.7417 140.113C92.0647 139.486 92.4827 138.954 92.9577 138.479C93.4327 138.004 94.0027 137.643 94.6487 137.358C95.2947 137.092 96.0357 136.959 96.8717 136.959C97.5367 136.959 98.1637 137.073 98.7147 137.282C99.2657 137.51 99.7217 137.833 100.121 138.27C100.501 138.707 100.805 139.239 101.014 139.866C101.223 140.493 101.318 141.215 101.318 142.032C101.318 142.697 101.28 143.381 101.185 144.084C101.09 144.787 100.957 145.49 100.748 146.174C100.539 146.858 100.254 147.504 99.9307 148.131C99.6077 148.758 99.1897 149.29 98.7147 149.765C98.2397 150.24 97.6697 150.601 97.0237 150.867C96.3777 151.152 95.6367 151.285 94.8007 151.285ZM104.597 151H101.367L102.735 137.244H105.129L103.913 147.732H103.989L107.219 137.244H109.347L108.891 147.732H108.967L111.437 137.244H113.755L110.259 151H107.067L107.466 141.88H107.39L104.597 151Z" fill="black"/>
<defs>
<filter id="filter0_f_4_875" x="266.625" y="52.0883" width="81" height="184" filterUnits="userSpaceOnUse" color-interpolation-filters="sRGB">
<feFlood flood-opacity="0" result="BackgroundImageFix"/>
<feBlend mode="normal" in="SourceGraphic" in2="BackgroundImageFix" result="shape"/>
<feGaussianBlur stdDeviation="7.5" result="effect1_foregroundBlur_4_875"/>
</filter>
<filter id="filter1_f_4_875" x="169.625" y="91.0883" width="49" height="107" filterUnits="userSpaceOnUse" color-interpolation-filters="sRGB">
<feFlood flood-opacity="0" result="BackgroundImageFix"/>
<feBlend mode="normal" in="SourceGraphic" in2="BackgroundImageFix" result="shape"/>
<feGaussianBlur stdDeviation="5" result="effect1_foregroundBlur_4_875"/>
</filter>
<filter id="filter2_f_4_875" x="84.6255" y="119.088" width="23" height="50" filterUnits="userSpaceOnUse" color-interpolation-filters="sRGB">
<feFlood flood-opacity="0" result="BackgroundImageFix"/>
<feBlend mode="normal" in="SourceGraphic" in2="BackgroundImageFix" result="shape"/>
<feGaussianBlur stdDeviation="2.5" result="effect1_foregroundBlur_4_875"/>
</filter>
</defs>
</svg>
