<svg width="412" height="288" viewBox="0 0 412 288" fill="none" xmlns="http://www.w3.org/2000/svg">
<g clip-path="url(#clip0_83_906)">
<rect width="412" height="288" fill="white"/>
<path d="M-178.469 106C-178.469 97.2 -173.269 92 -164.469 92H-24.4687C-15.6687 92 -10.4687 86.8 -10.4687 78V50C-10.4687 41.2 -15.6687 36 -24.4687 36H-108.469C-117.269 36 -122.469 30.8 -122.469 22V-6.00001C-122.469 -14.8 -127.669 -20 -136.469 -20H-164.469C-173.269 -20 -178.469 -25.2 -178.469 -34V-62C-178.469 -70.8 -173.269 -76 -164.469 -76H-136.469C-127.669 -76 -122.469 -81.2 -122.469 -90V-118C-122.469 -126.8 -117.269 -132 -108.469 -132H-24.4687C-15.6687 -132 -10.4687 -126.8 -10.4687 -118V-90C-10.4687 -81.2 -5.26874 -76 3.53126 -76H31.5313C40.3313 -76 45.5313 -81.2 45.5313 -90V-118C45.5313 -126.8 50.7313 -132 59.5313 -132H87.5313C96.3313 -132 101.531 -126.8 101.531 -118V-34C101.531 -25.2 96.3313 -20 87.5313 -20H0.731253C-6.46875 -20 -10.4687 -26.4 -10.4687 -34V-62C-10.4687 -70.8 -15.6687 -76 -24.4687 -76H-108.469C-117.269 -76 -122.469 -70.8 -122.469 -62V-34C-122.469 -25.2 -117.269 -20 -108.469 -20H-24.4687C-15.6687 -20 -10.4687 -14.8 -10.4687 -6.00001V22C-10.4687 30.8 -5.26874 36 3.53126 36H87.5313C96.3313 36 101.531 41.2 101.531 50V78C101.531 86.8 96.3313 92 87.5313 92H59.5313C50.7313 92 45.5313 97.2 45.5313 106V134C45.5313 142.8 40.3313 148 31.5313 148H-164.469C-173.269 148 -178.469 142.8 -178.469 134V106Z" fill="black"/>
<path d="M316.916 220C308.916 220 302.516 213.6 302.516 205.6V178.4C302.516 170.4 296.116 164 288.116 164H260.916C252.916 164 246.516 157.6 246.516 149.6V122.4C246.516 114.4 252.916 108 260.916 108H288.116C296.116 108 302.516 114.4 302.516 122.4V149.6C302.516 157.6 308.916 164 316.916 164H344.116C352.116 164 358.516 157.6 358.516 149.6V10.4C358.516 2.4 352.116 -4 344.116 -4H316.916C308.916 -4 302.516 -10.4 302.516 -18.4V-45.6C302.516 -53.6 308.916 -60 316.916 -60H400.116C408.116 -60 414.516 -53.6 414.516 -45.6V149.6C414.516 157.6 408.116 164 400.116 164H372.916C364.916 164 358.516 170.4 358.516 178.4V205.6C358.516 213.6 352.116 220 344.116 220H316.916ZM358.516 -130.4V-157.6C358.516 -165.6 364.916 -172 372.916 -172H400.916C408.916 -172 414.516 -165.6 414.516 -157.6V-130.4C414.516 -122.4 408.116 -116 400.116 -116H372.916C364.916 -116 358.516 -122.4 358.516 -130.4Z" fill="black"/>
<path d="M73.8609 276C65.8609 276 59.4609 269.6 59.4609 261.6V234.4C59.4609 226.4 65.8609 220 73.8609 220H101.061C109.061 220 115.461 213.6 115.461 205.6V178.4C115.461 170.4 109.061 164 101.061 164H73.8609C65.8609 164 59.4609 157.6 59.4609 149.6V122.4C59.4609 114.4 65.8609 108 73.8609 108H101.061C109.061 108 115.461 101.6 115.461 93.6V66.4C115.461 58.4 121.861 52 129.861 52H157.061C165.061 52 171.461 45.6 171.461 37.6V10.4C171.461 2.39999 177.861 -4.00002 185.861 -4.00002H269.061C277.061 -4.00002 283.461 2.39999 283.461 10.4V37.6C283.461 45.6 277.061 52 269.061 52H185.861C177.861 52 171.461 58.4 171.461 66.4V93.6C171.461 101.6 177.861 108 185.861 108H213.061C221.061 108 227.461 114.4 227.461 122.4V149.6C227.461 157.6 221.061 164 213.061 164H185.861C177.861 164 171.461 170.4 171.461 178.4V205.6C171.461 213.6 177.861 220 185.861 220H213.061C221.061 220 227.461 226.4 227.461 234.4V261.6C227.461 269.6 221.061 276 213.061 276H73.8609Z" fill="#FF2A00"/>
<path d="M-29.4687 418C-29.4687 409.2 -24.2687 404 -15.4687 404H124.531C133.331 404 138.531 398.8 138.531 390V362C138.531 353.2 133.331 348 124.531 348H40.5313C31.7313 348 26.5313 342.8 26.5313 334V306C26.5313 297.2 21.3313 292 12.5313 292H-15.4687C-24.2687 292 -29.4687 286.8 -29.4687 278V250C-29.4687 241.2 -24.2687 236 -15.4687 236H12.5313C21.3313 236 26.5313 230.8 26.5313 222V194C26.5313 185.2 31.7313 180 40.5313 180H124.531C133.331 180 138.531 185.2 138.531 194V222C138.531 230.8 143.731 236 152.531 236H180.531C189.331 236 194.531 230.8 194.531 222V194C194.531 185.2 199.731 180 208.531 180H236.531C245.331 180 250.531 185.2 250.531 194V278C250.531 286.8 245.331 292 236.531 292H149.731C142.531 292 138.531 285.6 138.531 278V250C138.531 241.2 133.331 236 124.531 236H40.5313C31.7313 236 26.5313 241.2 26.5313 250V278C26.5313 286.8 31.7313 292 40.5313 292H124.531C133.331 292 138.531 297.2 138.531 306V334C138.531 342.8 143.731 348 152.531 348H236.531C245.331 348 250.531 353.2 250.531 362V390C250.531 398.8 245.331 404 236.531 404H208.531C199.731 404 194.531 409.2 194.531 418V446C194.531 454.8 189.331 460 180.531 460H-15.4687C-24.2687 460 -29.4687 454.8 -29.4687 446V418Z" fill="black"/>
<path d="M407.931 527C399.931 527 393.531 520.6 393.531 512.6V485.4C393.531 477.4 399.931 471 407.931 471H435.131C443.131 471 449.531 464.6 449.531 456.6V429.4C449.531 421.4 443.131 415 435.131 415H351.931C343.931 415 337.531 408.6 337.531 400.6V373.4C337.531 365.4 331.131 359 323.131 359H295.931C287.931 359 281.531 352.6 281.531 344.6V261.4C281.531 253.4 287.931 247 295.931 247H323.131C331.131 247 337.531 240.6 337.531 232.6V205.4C337.531 197.4 343.931 191 351.931 191H435.131C443.131 191 449.531 197.4 449.531 205.4V232.6C449.531 240.6 455.931 247 463.931 247H491.131C499.131 247 505.531 253.4 505.531 261.4V456.6C505.531 464.6 511.931 471 519.931 471H547.131C555.131 471 561.531 477.4 561.531 485.4V512.6C561.531 520.6 555.131 527 547.131 527H407.931ZM337.531 344.6C337.531 352.6 343.931 359 351.931 359H435.131C443.131 359 449.531 352.6 449.531 344.6V261.4C449.531 253.4 443.131 247 435.131 247H351.931C343.931 247 337.531 253.4 337.531 261.4V344.6Z" fill="#FF2A00"/>
<path d="M97.9313 28C89.9313 28 83.5313 21.6 83.5313 13.6V-13.6C83.5313 -21.6 89.9313 -28 97.9313 -28H125.131C133.131 -28 139.531 -34.4 139.531 -42.4V-69.6C139.531 -77.6 133.131 -84 125.131 -84H41.9313C33.9313 -84 27.5313 -90.4 27.5313 -98.4V-125.6C27.5313 -133.6 21.1313 -140 13.1313 -140H-14.0687C-22.0687 -140 -28.4687 -146.4 -28.4687 -154.4V-237.6C-28.4687 -245.6 -22.0687 -252 -14.0687 -252H13.1313C21.1313 -252 27.5313 -258.4 27.5313 -266.4V-293.6C27.5313 -301.6 33.9313 -308 41.9313 -308H125.131C133.131 -308 139.531 -301.6 139.531 -293.6V-266.4C139.531 -258.4 145.931 -252 153.931 -252H181.131C189.131 -252 195.531 -245.6 195.531 -237.6V-42.4C195.531 -34.4 201.931 -28 209.931 -28H237.131C245.131 -28 251.531 -21.6 251.531 -13.6V13.6C251.531 21.6 245.131 28 237.131 28H97.9313ZM27.5313 -154.4C27.5313 -146.4 33.9313 -140 41.9313 -140H125.131C133.131 -140 139.531 -146.4 139.531 -154.4V-237.6C139.531 -245.6 133.131 -252 125.131 -252H41.9313C33.9313 -252 27.5313 -245.6 27.5313 -237.6V-154.4Z" fill="black"/>
</g>
<defs>
<clipPath id="clip0_83_906">
<rect width="412" height="288" fill="white"/>
</clipPath>
</defs>
</svg>
