<svg width="364" height="204" viewBox="0 0 364 204" fill="none" xmlns="http://www.w3.org/2000/svg">
<g clip-path="url(#clip0_116_20)">
<path fill-rule="evenodd" clip-rule="evenodd" d="M269.778 32L269.832 32L269.885 32C271.335 32.0026 272.508 33.1799 272.505 34.6296C272.503 36.0793 271.326 37.2525 269.876 37.2499L269.832 37.2499L269.787 37.2499C268.337 37.2525 267.16 36.0793 267.158 34.6296C267.155 33.1799 268.328 32.0026 269.778 32ZM252.357 40.7604C253.38 41.7873 253.377 43.4493 252.35 44.4726L252.288 44.5349C251.265 45.5618 249.603 45.5648 248.576 44.5415C247.549 43.5182 247.546 41.8562 248.569 40.8292L248.645 40.7538C249.672 39.7306 251.334 39.7335 252.357 40.7604ZM287.306 40.7604C288.329 39.7335 289.991 39.7306 291.018 40.7538L291.094 40.8292C292.117 41.8561 292.114 43.5182 291.087 44.5415C290.06 45.5648 288.398 45.5618 287.375 44.5349L287.313 44.4726C286.286 43.4493 286.283 41.7873 287.306 40.7604ZM242.445 59.3422C243.895 59.3447 245.068 60.522 245.065 61.9717V62.0161V62.0604C245.068 63.5102 243.895 64.6874 242.445 64.69C240.995 64.6925 239.818 63.5193 239.815 62.0696V62.0161V61.9625C239.818 60.5128 240.995 59.3396 242.445 59.3422ZM297.218 59.3422C298.668 59.3397 299.845 60.5128 299.848 61.9625V62.0161V62.0696C299.845 63.5193 298.668 64.6925 297.218 64.69C295.768 64.6874 294.595 63.5102 294.598 62.0604V62.0161V61.9717C294.595 60.522 295.768 59.3447 297.218 59.3422ZM248.576 79.4907C249.603 78.4674 251.265 78.4703 252.288 79.4972L252.35 79.5595C253.377 80.5828 253.38 82.2448 252.357 83.2718C251.334 84.2987 249.672 84.3016 248.645 83.2783L248.569 83.2029C247.546 82.176 247.549 80.514 248.576 79.4907ZM291.087 79.4907C292.114 80.514 292.117 82.176 291.094 83.2029L291.018 83.2783C289.991 84.3016 288.329 84.2987 287.306 83.2718C286.283 82.2448 286.286 80.5828 287.313 79.5595L287.375 79.4972C288.398 78.4703 290.06 78.4674 291.087 79.4907ZM267.158 89.4026C267.16 87.9529 268.337 86.7797 269.787 86.7822L269.832 86.7823L269.876 86.7822C271.326 86.7797 272.503 87.9529 272.505 89.4026C272.508 90.8523 271.335 92.0296 269.885 92.0321L269.832 92.0322L269.778 92.0321C268.328 92.0296 267.155 90.8523 267.158 89.4026Z" fill="black"/>
<path d="M91.562 171.123C106.784 171.123 119.124 158.978 119.124 143.998C119.124 129.018 106.784 116.874 91.562 116.874C76.3399 116.874 64 129.018 64 143.998C64 158.978 76.3399 171.123 91.562 171.123Z" fill="black"/>
<path d="M91.5801 143.736L269.622 61.562" stroke="black"/>
<path d="M91.5771 143.737L116.287 132.17" stroke="white"/>
<path d="M269.621 66.1244C272.037 66.1244 273.996 64.1656 273.996 61.7494C273.996 59.3332 272.037 57.3745 269.621 57.3745C267.205 57.3745 265.246 59.3332 265.246 61.7494C265.246 64.1656 267.205 66.1244 269.621 66.1244Z" fill="black"/>
<path d="M91.1239 148.373C93.5401 148.373 95.4989 146.414 95.4989 143.998C95.4989 141.582 93.5401 139.623 91.1239 139.623C88.7077 139.623 86.749 141.582 86.749 143.998C86.749 146.414 88.7077 148.373 91.1239 148.373Z" fill="white"/>
</g>
<defs>
<clipPath id="clip0_116_20">
<rect width="236" height="140" fill="white" transform="translate(64 32)"/>
</clipPath>
</defs>
</svg>
