<svg width="560" height="303" viewBox="0 0 560 303" fill="none" xmlns="http://www.w3.org/2000/svg">
<rect width="560" height="303" fill="white"/>
<circle cx="214.561" cy="151.499" r="100.577" fill="black"/>
<path fill-rule="evenodd" clip-rule="evenodd" d="M340.212 45.7656H340.351C343.199 45.7675 345.507 48.0782 345.505 50.9267C345.503 53.7753 343.192 56.083 340.344 56.0812H340.219C337.37 56.083 335.059 53.7753 335.057 50.9267C335.056 48.0782 337.363 45.7675 340.212 45.7656ZM373.955 56.5575C375.044 53.9255 378.061 52.675 380.693 53.7644L380.82 53.8172C383.451 54.9101 384.697 57.9286 383.604 60.5591C382.511 63.1897 379.493 64.4362 376.862 63.3434L376.748 63.2958C374.116 62.2063 372.865 59.1895 373.955 56.5575ZM306.608 56.5575C307.697 59.1895 306.447 62.2063 303.815 63.2958L303.7 63.3434C301.069 64.4363 298.051 63.1897 296.958 60.5591C295.865 57.9286 297.112 54.9101 299.742 53.8172L299.87 53.7644C302.502 52.675 305.519 53.9255 306.608 56.5575ZM272.859 76.6905C274.872 78.706 274.87 81.9717 272.854 83.9847L272.766 84.0727C270.753 86.0883 267.487 86.0904 265.472 84.0775C263.456 82.0645 263.454 78.7988 265.467 76.7833L265.565 76.6857C267.58 74.6728 270.846 74.6749 272.859 76.6905ZM407.704 76.6905C409.717 74.6749 412.982 74.6728 414.998 76.6857L415.095 76.7833C417.108 78.7988 417.106 82.0645 415.091 84.0775C413.075 86.0904 409.81 86.0883 407.797 84.0727L407.709 83.9847C405.693 81.9717 405.691 78.706 407.704 76.6905ZM431.222 108.177C433.853 107.084 436.871 108.331 437.964 110.961L438.017 111.088C439.106 113.72 437.856 116.737 435.224 117.827C432.592 118.916 429.575 117.666 428.485 115.034L428.438 114.919C427.345 112.288 428.592 109.27 431.222 108.177ZM249.34 108.177C251.971 109.27 253.217 112.288 252.125 114.919L252.077 115.034C250.988 117.666 247.971 118.916 245.339 117.827C242.707 116.737 241.456 113.72 242.546 111.088L242.598 110.961C243.691 108.331 246.71 107.084 249.34 108.177ZM440.855 146.276C443.703 146.274 446.014 148.582 446.016 151.431V151.569C446.014 154.418 443.703 156.726 440.855 156.724C438.006 156.722 435.698 154.411 435.7 151.563V151.437C435.698 148.589 438.006 146.278 440.855 146.276ZM239.708 146.276C242.557 146.278 244.864 148.589 244.862 151.437V151.563C244.864 154.411 242.557 156.722 239.708 156.724C236.859 156.726 234.549 154.418 234.547 151.569V151.431C234.549 148.582 236.859 146.274 239.708 146.276ZM245.339 185.173C247.971 184.084 250.988 185.334 252.077 187.966L252.125 188.081C253.218 190.712 251.971 193.73 249.34 194.823C246.71 195.916 243.691 194.669 242.598 192.039L242.546 191.912C241.456 189.28 242.707 186.263 245.339 185.173ZM435.224 185.173C437.856 186.263 439.106 189.28 438.017 191.912L437.964 192.039C436.871 194.669 433.853 195.916 431.222 194.823C428.592 193.73 427.345 190.712 428.438 188.081L428.485 187.966C429.575 185.334 432.592 184.084 435.224 185.173ZM265.472 218.923C267.487 216.91 270.753 216.912 272.766 218.927L272.854 219.015C274.87 221.028 274.872 224.294 272.859 226.31C270.846 228.325 267.58 228.327 265.565 226.314L265.467 226.217C263.454 224.201 263.456 220.935 265.472 218.923ZM415.091 218.923C417.106 220.935 417.108 224.201 415.095 226.217L414.998 226.314C412.982 228.327 409.717 228.325 407.704 226.31C405.691 224.294 405.693 221.028 407.709 219.015L407.797 218.927C409.81 216.912 413.075 216.91 415.091 218.923ZM383.604 242.441C384.697 245.071 383.451 248.09 380.82 249.183L380.693 249.236C378.061 250.325 375.044 249.074 373.955 246.442C372.865 243.81 374.116 240.794 376.748 239.704L376.862 239.657C379.493 238.564 382.511 239.81 383.604 242.441ZM296.958 242.441C298.051 239.81 301.069 238.564 303.7 239.657L303.815 239.704C306.447 240.794 307.697 243.81 306.608 246.442C305.519 249.074 302.502 250.325 299.87 249.236L299.742 249.183C297.112 248.09 295.865 245.071 296.958 242.441ZM335.057 252.073C335.059 249.225 337.37 246.917 340.219 246.919H340.344C343.192 246.917 345.503 249.225 345.505 252.073C345.507 254.922 343.199 257.233 340.351 257.234H340.212C337.363 257.233 335.056 254.922 335.057 252.073Z" fill="black"/>
<mask id="mask0_105_17" style="mask-type:alpha" maskUnits="userSpaceOnUse" x="113" y="50" width="203" height="203">
<circle cx="214.561" cy="151.499" r="100.577" fill="black"/>
</mask>
<g mask="url(#mask0_105_17)">
<circle cx="340.283" cy="151.499" r="100.577" stroke="white" stroke-width="10.3155" stroke-linecap="round" stroke-dasharray="0.13 38.68"/>
</g>
</svg>
