<svg xmlns="http://www.w3.org/2000/svg" width="126" height="126" viewBox="0 0 126 126" fill="none">
<path fill-rule="evenodd" clip-rule="evenodd" d="M62.7474 0H62.8298C64.5214 0.0010877 65.8918 1.37326 65.8907 3.06483C65.8896 4.7564 64.5174 6.1268 62.8259 6.12571H62.7513C61.0597 6.1268 59.6876 4.7564 59.6865 3.06483C59.6854 1.37326 61.0558 0.00108788 62.7474 0ZM102.826 18.3642C104.022 17.1673 105.961 17.166 107.158 18.3613L107.216 18.4193C108.411 19.6162 108.41 21.5555 107.213 22.7509C106.016 23.9462 104.077 23.945 102.881 22.7481L102.829 22.6957C101.632 21.5003 101.631 19.5611 102.826 18.3642ZM22.7509 18.3642C23.9462 19.5611 23.945 21.5003 22.7481 22.6957L22.6957 22.7481C21.5003 23.945 19.5611 23.9462 18.3642 22.7509C17.1673 21.5555 17.166 19.6162 18.3613 18.4194L18.4193 18.3613C19.6162 17.166 21.5555 17.1673 22.7509 18.3642ZM122.512 59.6865C124.204 59.6854 125.576 61.0558 125.577 62.7474V62.8298C125.576 64.5214 124.204 65.8918 122.512 65.8907C120.821 65.8896 119.45 64.5174 119.451 62.8259V62.7513C119.45 61.0597 120.821 59.6876 122.512 59.6865ZM3.06483 59.6865C4.7564 59.6876 6.1268 61.0597 6.12571 62.7513V62.8259C6.1268 64.5174 4.7564 65.8896 3.06483 65.8907C1.37326 65.8918 0.00108788 64.5214 0 62.8298V62.7474C0.0010877 61.0558 1.37326 59.6854 3.06483 59.6865ZM18.3642 102.826C19.5611 101.631 21.5003 101.632 22.6957 102.829L22.7481 102.881C23.945 104.077 23.9462 106.016 22.7509 107.213C21.5555 108.41 19.6162 108.411 18.4194 107.216L18.3613 107.158C17.166 105.961 17.1673 104.022 18.3642 102.826ZM107.213 102.826C108.41 104.022 108.411 105.961 107.216 107.158L107.158 107.216C105.961 108.411 104.022 108.41 102.826 107.213C101.631 106.016 101.632 104.077 102.829 102.881L102.881 102.829C104.077 101.632 106.016 101.631 107.213 102.826ZM59.6865 122.512C59.6876 120.821 61.0597 119.45 62.7513 119.451H62.8259C64.5174 119.45 65.8896 120.821 65.8907 122.512C65.8918 124.204 64.5214 125.576 62.8298 125.577H62.7474C61.0558 125.576 59.6854 124.204 59.6865 122.512Z" fill="black"/>
<path d="M62.7883 116.388V62.9605M62.7883 62.9605L24.6498 100.877M62.7883 62.9605H9.1883M62.7883 62.9605L24.6498 24.6994M62.7883 62.9605L100.927 24.6994M62.7883 62.9605H116.388M62.7883 62.9605L100.927 100.877M62.7883 62.9605V9.18817" stroke="black" stroke-width="0.765714"/>
</svg>