<svg width="179" height="107" viewBox="0 0 179 107" fill="none" xmlns="http://www.w3.org/2000/svg">
<g clip-path="url(#clip0_252_11804)">
<path d="M179 0.406738H0V106.593H179V0.406738Z" fill="white"/>
<path d="M14.0317 15.197C31.4767 56.9131 102.015 88.7691 163.451 91.0445" stroke="black" stroke-width="0.758475"/>
<path d="M163.543 94.1724C165.376 94.1724 166.862 92.6873 166.862 90.8541C166.862 89.0216 165.376 87.5358 163.543 87.5358C161.711 87.5358 160.225 89.0216 160.225 90.8541C160.225 92.6873 161.711 94.1724 163.543 94.1724Z" fill="black"/>
<path d="M13.9369 18.4204C15.7695 18.4204 17.2552 16.9348 17.2552 15.1022C17.2552 13.2696 15.7695 11.7839 13.9369 11.7839C12.1043 11.7839 10.6187 13.2696 10.6187 15.1022C10.6187 16.9348 12.1043 18.4204 13.9369 18.4204Z" fill="black"/>
<path fill-rule="evenodd" clip-rule="evenodd" d="M89.0926 52.7416H89.1336H89.1738C90.2736 52.7435 91.1633 53.6365 91.161 54.7361C91.1595 55.8356 90.2667 56.7255 89.167 56.7235H89.1336H89.0995C87.9997 56.7255 87.1069 55.8356 87.1054 54.7361C87.1032 53.6365 87.9928 52.7435 89.0926 52.7416ZM75.8792 59.3861C76.6552 60.165 76.6529 61.4256 75.8739 62.2017L75.8269 62.249C75.051 63.0279 73.7904 63.0301 73.0115 62.254C72.2325 61.4778 72.2302 60.2173 73.0061 59.4383L73.0638 59.3811C73.8427 58.605 75.1033 58.6072 75.8792 59.3861ZM102.387 59.3861C103.163 58.6072 104.424 58.605 105.203 59.3811L105.26 59.4383C106.036 60.2172 106.034 61.4778 105.255 62.254C104.476 63.0301 103.215 63.0279 102.44 62.249L102.392 62.2017C101.614 61.4256 101.611 60.165 102.387 59.3861ZM68.3612 73.4799C69.461 73.4818 70.3507 74.3748 70.3484 75.4744V75.508V75.5416C70.3507 76.6411 69.461 77.5338 68.3612 77.5361C67.2615 77.5376 66.3687 76.6479 66.3665 75.5486V75.508V75.4674C66.3687 74.3678 67.2615 73.478 68.3612 73.4799ZM109.905 73.4799C111.005 73.478 111.898 74.3678 111.9 75.4674V75.508V75.5486C111.898 76.6479 111.005 77.5376 109.905 77.5361C108.805 77.5338 107.916 76.6411 107.918 75.5416V75.508V75.4744C107.916 74.3748 108.805 73.4818 109.905 73.4799ZM73.0115 88.7623C73.7904 87.9856 75.051 87.9879 75.8269 88.7668L75.8739 88.8146C76.6529 89.5905 76.6552 90.8511 75.8792 91.6301C75.1033 92.409 73.8427 92.4113 73.0638 91.6346L73.0061 91.5778C72.2302 90.7988 72.2325 89.5382 73.0115 88.7623ZM105.255 88.7623C106.034 89.5382 106.036 90.7988 105.26 91.5778L105.203 91.6346C104.424 92.4113 103.163 92.409 102.387 91.6301C101.611 90.8511 101.614 89.5905 102.392 88.8146L102.44 88.7668C103.215 87.9879 104.476 87.9856 105.255 88.7623ZM87.1054 96.2803C87.1069 95.1805 87.9997 94.2908 89.0995 94.2923H89.1336H89.167C90.2667 94.2908 91.1595 95.1805 91.161 96.2803C91.1633 97.3793 90.2736 98.2728 89.1738 98.2743H89.1336H89.0926C87.9928 98.2728 87.1032 97.3793 87.1054 96.2803Z" fill="black"/>
<path d="M88.9736 78.6237C90.8061 78.6237 92.2919 77.1386 92.2919 75.3057C92.2919 73.4731 90.8061 71.9874 88.9736 71.9874C87.1411 71.9874 85.6553 73.4731 85.6553 75.3057C85.6553 77.1386 87.1411 78.6237 88.9736 78.6237Z" fill="black"/>
</g>
<defs>
<clipPath id="clip0_252_11804">
<rect width="179" height="106.186" fill="white" transform="translate(0 0.406738)"/>
</clipPath>
</defs>
</svg>
