<svg width="1529" height="1970" viewBox="0 0 1529 1970" fill="none" xmlns="http://www.w3.org/2000/svg">
<circle cx="764.017" cy="1242.6" r="550.017" fill="black"/>
<mask id="mask0_1_209" style="mask-type:alpha" maskUnits="userSpaceOnUse" x="214" y="692" width="1101" height="1101">
<circle cx="764.017" cy="1242.6" r="550.017" fill="black"/>
</mask>
<g mask="url(#mask0_1_209)">
<g filter="url(#filter0_f_1_209)">
<circle cx="764.017" cy="890.958" r="550.017" fill="#02D5FF"/>
</g>
</g>
<mask id="mask1_1_209" style="mask-type:alpha" maskUnits="userSpaceOnUse" x="0" y="0" width="1529" height="1970">
<path fill-rule="evenodd" clip-rule="evenodd" d="M1528.89 0H0V1969.97H1528.89V0ZM764.826 1792.62C1068.59 1792.62 1314.84 1546.37 1314.84 1242.6C1314.84 938.836 1068.59 692.586 764.826 692.586C461.06 692.586 214.809 938.836 214.809 1242.6C214.809 1546.37 461.06 1792.62 764.826 1792.62Z" fill="#D9D9D9"/>
</mask>
<g mask="url(#mask1_1_209)">
<g filter="url(#filter1_f_1_209)">
<circle cx="764.826" cy="738.069" r="550.017" fill="#FF2A00"/>
</g>
</g>
<defs>
<filter id="filter0_f_1_209" x="34" y="160.941" width="1460.03" height="1460.03" filterUnits="userSpaceOnUse" color-interpolation-filters="sRGB">
<feFlood flood-opacity="0" result="BackgroundImageFix"/>
<feBlend mode="normal" in="SourceGraphic" in2="BackgroundImageFix" result="shape"/>
<feGaussianBlur stdDeviation="90" result="effect1_foregroundBlur_1_209"/>
</filter>
<filter id="filter1_f_1_209" x="34.8091" y="8.05273" width="1460.03" height="1460.03" filterUnits="userSpaceOnUse" color-interpolation-filters="sRGB">
<feFlood flood-opacity="0" result="BackgroundImageFix"/>
<feBlend mode="normal" in="SourceGraphic" in2="BackgroundImageFix" result="shape"/>
<feGaussianBlur stdDeviation="90" result="effect1_foregroundBlur_1_209"/>
</filter>
</defs>
</svg>
