<svg width="510" height="603" viewBox="0 0 510 603" fill="none" xmlns="http://www.w3.org/2000/svg">
<circle cx="254.634" cy="299.573" r="171.869" fill="black"/>
<mask id="mask0_49_65" style="mask-type:alpha" maskUnits="userSpaceOnUse" x="82" y="127" width="346" height="346">
<circle cx="254.634" cy="299.702" r="172.119" fill="black" stroke="black" stroke-width="0.5"/>
</mask>
<g mask="url(#mask0_49_65)">
<g filter="url(#filter0_f_49_65)">
<circle cx="254.628" cy="350.568" r="176.551" fill="#02D5FF"/>
</g>
</g>
<mask id="mask1_49_65" style="mask-type:alpha" maskUnits="userSpaceOnUse" x="0" y="0" width="510" height="603">
<path fill-rule="evenodd" clip-rule="evenodd" d="M509.236 0.274353H0.270508V602.462H509.236V0.274353ZM254.639 471.571C349.559 471.571 426.507 394.623 426.507 299.702C426.507 204.782 349.559 127.833 254.639 127.833C159.718 127.833 82.77 204.782 82.77 299.702C82.77 394.623 159.718 471.571 254.639 471.571Z" fill="#D9D9D9"/>
</mask>
<g mask="url(#mask1_49_65)">
<g filter="url(#filter1_f_49_65)">
<circle cx="254.629" cy="350.568" r="176.551" fill="#FF2A00"/>
</g>
</g>
<circle cx="172.466" cy="45.9988" r="8.91034" fill="black"/>
<circle cx="112.15" cy="106.312" r="8.91034" fill="black"/>
<circle cx="89.8747" cy="188.902" r="8.91034" fill="black"/>
<circle cx="112.15" cy="271.04" r="8.91034" fill="white"/>
<circle cx="172.466" cy="331.357" r="8.91034" fill="white"/>
<circle cx="254.602" cy="353.633" r="8.91034" fill="white"/>
<circle cx="337.193" cy="331.357" r="8.91034" fill="white"/>
<circle cx="397.509" cy="271.04" r="8.91034" fill="white"/>
<circle cx="419.328" cy="188.902" r="8.91034" fill="black"/>
<circle cx="397.509" cy="106.312" r="8.91034" fill="black"/>
<circle cx="337.193" cy="45.9988" r="8.91034" fill="black"/>
<circle cx="254.602" cy="24.1776" r="8.91034" fill="black"/>
<defs>
<filter id="filter0_f_49_65" x="11.7197" y="107.66" width="485.817" height="485.817" filterUnits="userSpaceOnUse" color-interpolation-filters="sRGB">
<feFlood flood-opacity="0" result="BackgroundImageFix"/>
<feBlend mode="normal" in="SourceGraphic" in2="BackgroundImageFix" result="shape"/>
<feGaussianBlur stdDeviation="33.179" result="effect1_foregroundBlur_49_65"/>
</filter>
<filter id="filter1_f_49_65" x="11.7202" y="107.66" width="485.817" height="485.817" filterUnits="userSpaceOnUse" color-interpolation-filters="sRGB">
<feFlood flood-opacity="0" result="BackgroundImageFix"/>
<feBlend mode="normal" in="SourceGraphic" in2="BackgroundImageFix" result="shape"/>
<feGaussianBlur stdDeviation="33.179" result="effect1_foregroundBlur_49_65"/>
</filter>
</defs>
</svg>
