<svg width="737" height="737" viewBox="0 0 737 737" fill="none" xmlns="http://www.w3.org/2000/svg">
<circle cx="184.01" cy="184.01" r="184.01" fill="black"/>
<circle cx="552.99" cy="184.01" r="184.01" fill="#02D5FF"/>
<circle cx="184.01" cy="552.99" r="184.01" fill="#02D5FF"/>
<circle cx="552.99" cy="552.99" r="184.01" fill="black"/>
<path d="M67.7014 525.579C67.1914 526.359 66.5314 526.929 65.7514 527.289C64.9714 527.679 64.1314 527.859 63.2614 527.859C62.3314 527.859 61.4914 527.709 60.7414 527.439C59.9614 527.169 59.3014 526.719 58.7614 526.089C58.1914 525.459 57.7714 524.679 57.4714 523.689C57.1714 522.729 57.0214 521.559 57.0214 520.179C57.0214 519.009 57.1714 517.929 57.4714 516.999C57.7714 516.069 58.1914 515.289 58.7314 514.629C59.2714 513.999 59.9314 513.489 60.7114 513.159C61.4614 512.829 62.3314 512.649 63.2614 512.649C64.0714 512.649 64.8814 512.799 65.6614 513.129C66.4414 513.459 67.0714 513.969 67.5814 514.659V512.979H71.6614V526.899C71.6614 528.369 71.4514 529.599 71.0614 530.559C70.6714 531.519 70.1314 532.269 69.4714 532.839C68.8114 533.409 68.0614 533.799 67.1914 534.009C66.3214 534.219 65.3914 534.339 64.4614 534.339C62.3914 534.339 60.7714 533.889 59.6014 533.019C58.4014 532.149 57.7114 530.859 57.5614 529.179H61.9414C61.9714 529.839 62.2414 530.379 62.7214 530.769C63.2014 531.189 63.8314 531.399 64.5814 531.399C66.6514 531.399 67.7014 530.019 67.7014 527.259V525.579ZM64.4614 524.739C65.4214 524.739 66.1714 524.349 66.7414 523.539C67.3114 522.729 67.5814 521.619 67.5814 520.179C67.5814 518.709 67.3114 517.599 66.7414 516.849C66.1714 516.129 65.4214 515.769 64.4614 515.769C63.4714 515.769 62.7214 516.159 62.1814 516.939C61.6114 517.719 61.3414 518.799 61.3414 520.179C61.3414 521.709 61.6114 522.849 62.1814 523.599C62.7514 524.349 63.5014 524.739 64.4614 524.739ZM86.7697 518.739C86.7097 517.869 86.4997 517.149 86.1097 516.579C85.7197 516.039 85.1197 515.769 84.2797 515.769C83.3197 515.769 82.5997 516.159 82.0897 516.939C81.5797 517.749 81.3097 518.979 81.3097 520.689V528.699H77.1097V512.979H80.9497V514.899C82.0597 513.399 83.5297 512.649 85.3897 512.649C86.3197 512.649 87.0997 512.799 87.7297 513.069C88.3597 513.369 88.8397 513.789 89.2297 514.299C89.6197 514.809 89.8897 515.469 90.0697 516.219C90.2197 516.969 90.3397 517.809 90.3697 518.739H86.7697ZM93.568 524.619C93.568 522.729 94.348 521.379 95.878 520.539C97.408 519.699 99.718 519.189 102.808 519.039V517.989C102.808 517.119 102.628 516.459 102.238 516.069C101.848 515.679 101.308 515.469 100.618 515.469C100.198 515.469 99.838 515.529 99.538 515.679C99.238 515.829 98.998 516.039 98.818 516.279C98.608 516.549 98.488 516.819 98.398 517.119C98.308 517.449 98.248 517.749 98.248 518.079H94.168C94.258 516.369 94.858 514.989 95.968 513.999C97.078 513.009 98.698 512.529 100.888 512.529C104.968 512.529 107.008 514.329 107.008 517.959V523.779C107.008 524.769 107.038 525.699 107.068 526.539C107.098 527.379 107.218 528.099 107.368 528.699H103.528C103.468 528.339 103.408 528.009 103.378 527.679C103.318 527.379 103.288 527.079 103.288 526.779C102.718 527.499 102.058 528.069 101.368 528.459C100.678 528.849 99.748 529.059 98.608 529.059C97.048 529.059 95.818 528.669 94.918 527.919C94.018 527.169 93.568 526.059 93.568 524.619ZM99.928 526.179C100.828 526.179 101.548 525.879 102.058 525.249C102.568 524.649 102.808 523.719 102.808 522.459V521.739C101.758 521.799 100.918 521.889 100.288 522.039C99.658 522.189 99.148 522.369 98.788 522.579C98.428 522.789 98.188 523.059 98.068 523.359C97.948 523.659 97.888 523.989 97.888 524.349C97.888 524.859 98.098 525.309 98.488 525.639C98.878 525.999 99.358 526.179 99.928 526.179ZM118.936 515.739C118.006 515.739 117.316 516.099 116.866 516.819C116.416 517.539 116.176 518.739 116.176 520.419V528.699H111.976V512.979H115.816V515.019C116.236 514.239 116.896 513.639 117.766 513.249C118.636 512.859 119.536 512.649 120.496 512.649C121.576 512.649 122.446 512.829 123.106 513.189C123.766 513.549 124.276 514.029 124.636 514.659C124.996 515.289 125.236 516.039 125.356 516.909C125.476 517.779 125.536 518.709 125.536 519.699V528.699H121.336V519.819C121.336 519.249 121.306 518.739 121.246 518.229C121.186 517.719 121.066 517.299 120.886 516.909C120.706 516.549 120.466 516.249 120.166 516.039C119.836 515.829 119.446 515.739 118.936 515.739ZM136.415 525.939C137.345 525.939 138.065 525.579 138.515 524.859C138.965 524.139 139.175 522.939 139.175 521.259V512.979H143.375V528.699H139.535V526.659C139.115 527.439 138.485 528.039 137.615 528.429C136.745 528.819 135.815 529.029 134.855 529.029C133.775 529.029 132.905 528.849 132.245 528.489C131.585 528.129 131.075 527.619 130.715 526.989C130.355 526.359 130.115 525.639 129.995 524.769C129.875 523.899 129.815 522.969 129.815 521.979V512.979H134.015V521.859C134.015 522.429 134.045 522.969 134.105 523.449C134.165 523.959 134.285 524.379 134.465 524.739C134.645 525.129 134.885 525.399 135.215 525.609C135.515 525.819 135.905 525.939 136.415 525.939ZM148.613 506.979H157.133V525.579H161.453V528.699H148.493V525.579H152.933V510.099H148.613V506.979ZM165.521 524.619C165.521 522.729 166.301 521.379 167.831 520.539C169.361 519.699 171.671 519.189 174.761 519.039V517.989C174.761 517.119 174.581 516.459 174.191 516.069C173.801 515.679 173.261 515.469 172.571 515.469C172.151 515.469 171.791 515.529 171.491 515.679C171.191 515.829 170.951 516.039 170.771 516.279C170.561 516.549 170.441 516.819 170.351 517.119C170.261 517.449 170.201 517.749 170.201 518.079H166.121C166.211 516.369 166.811 514.989 167.921 513.999C169.031 513.009 170.651 512.529 172.841 512.529C176.921 512.529 178.961 514.329 178.961 517.959V523.779C178.961 524.769 178.991 525.699 179.021 526.539C179.051 527.379 179.171 528.099 179.321 528.699H175.481C175.421 528.339 175.361 528.009 175.331 527.679C175.271 527.379 175.241 527.079 175.241 526.779C174.671 527.499 174.011 528.069 173.321 528.459C172.631 528.849 171.701 529.059 170.561 529.059C169.001 529.059 167.771 528.669 166.871 527.919C165.971 527.169 165.521 526.059 165.521 524.619ZM171.881 526.179C172.781 526.179 173.501 525.879 174.011 525.249C174.521 524.649 174.761 523.719 174.761 522.459V521.739C173.711 521.799 172.871 521.889 172.241 522.039C171.611 522.189 171.101 522.369 170.741 522.579C170.381 522.789 170.141 523.059 170.021 523.359C169.901 523.659 169.841 523.989 169.841 524.349C169.841 524.859 170.051 525.309 170.441 525.639C170.831 525.999 171.311 526.179 171.881 526.179ZM194.699 518.739C194.639 517.869 194.429 517.149 194.039 516.579C193.649 516.039 193.049 515.769 192.209 515.769C191.249 515.769 190.529 516.159 190.019 516.939C189.509 517.749 189.239 518.979 189.239 520.689V528.699H185.039V512.979H188.879V514.899C189.989 513.399 191.459 512.649 193.319 512.649C194.249 512.649 195.029 512.799 195.659 513.069C196.289 513.369 196.769 513.789 197.159 514.299C197.549 514.809 197.819 515.469 197.999 516.219C198.149 516.969 198.269 517.809 198.299 518.739H194.699Z" fill="black"/>
<path d="M68.7814 554.739C68.7214 553.869 68.5114 553.149 68.1214 552.579C67.7314 552.039 67.1314 551.769 66.2914 551.769C65.3314 551.769 64.6114 552.159 64.1014 552.939C63.5914 553.749 63.3214 554.979 63.3214 556.689V564.699H59.1214V548.979H62.9614V550.899C64.0714 549.399 65.5414 548.649 67.4014 548.649C68.3314 548.649 69.1114 548.799 69.7414 549.069C70.3714 549.369 70.8514 549.789 71.2414 550.299C71.6314 550.809 71.9014 551.469 72.0814 552.219C72.2314 552.969 72.3514 553.809 72.3814 554.739H68.7814ZM79.6297 557.859C79.7197 559.209 80.0797 560.229 80.6497 560.949C81.2197 561.669 81.9697 562.029 82.8997 562.029C83.5897 562.029 84.1597 561.849 84.5797 561.459C84.9997 561.069 85.2997 560.559 85.4797 559.899H89.8297C89.3797 561.669 88.5997 562.989 87.4897 563.859C86.3797 564.729 84.8497 565.149 82.8997 565.149C77.9497 565.149 75.4897 562.389 75.4897 556.899C75.4897 555.639 75.6397 554.499 75.9697 553.449C76.2697 552.429 76.7197 551.559 77.3497 550.809C77.9497 550.089 78.7297 549.519 79.6597 549.129C80.5897 548.739 81.6697 548.529 82.8997 548.529C84.1297 548.529 85.2097 548.709 86.1097 549.099C86.9797 549.489 87.7297 550.059 88.2997 550.779C88.8697 551.529 89.2897 552.399 89.5597 553.449C89.8297 554.499 89.9497 555.699 89.9497 557.019V557.859H79.6297ZM82.8997 551.529C82.0897 551.529 81.3997 551.799 80.8897 552.339C80.3497 552.909 79.9597 553.749 79.7497 554.859H85.8097C85.7197 553.719 85.4197 552.879 84.9097 552.339C84.3997 551.799 83.7097 551.529 82.8997 551.529ZM93.868 553.449C93.868 551.919 94.468 550.719 95.668 549.849C96.838 548.979 98.488 548.529 100.618 548.529C102.808 548.529 104.488 548.979 105.688 549.879C106.888 550.779 107.488 552.129 107.488 553.929H103.108C103.078 553.029 102.838 552.399 102.448 552.039C102.058 551.709 101.428 551.529 100.618 551.529C99.928 551.529 99.388 551.679 98.998 551.949C98.578 552.249 98.368 552.639 98.368 553.089C98.368 553.599 98.608 553.989 99.088 554.259C99.538 554.529 100.138 554.769 100.828 554.949C101.518 555.159 102.298 555.339 103.108 555.519C103.918 555.729 104.698 555.969 105.388 556.299C106.078 556.629 106.678 557.079 107.158 557.649C107.608 558.219 107.848 558.969 107.848 559.899C107.848 561.519 107.218 562.809 105.958 563.739C104.698 564.669 102.958 565.149 100.738 565.149C98.428 565.149 96.658 564.669 95.428 563.739C94.198 562.809 93.538 561.369 93.508 559.419H98.008C98.008 560.379 98.248 561.069 98.698 561.489C99.148 561.939 99.838 562.149 100.738 562.149C101.458 562.149 102.058 561.999 102.538 561.669C102.988 561.369 103.228 560.949 103.228 560.379C103.228 559.869 102.988 559.479 102.538 559.209C102.088 558.939 101.488 558.729 100.798 558.549C100.108 558.369 99.358 558.189 98.548 557.979C97.738 557.799 96.988 557.529 96.298 557.169C95.608 556.839 95.008 556.359 94.558 555.789C94.108 555.219 93.868 554.439 93.868 553.449ZM118.696 561.909C119.686 561.909 120.436 561.459 120.946 560.529C121.456 559.599 121.696 558.369 121.696 556.779C121.696 555.219 121.456 553.989 120.946 553.089C120.436 552.219 119.686 551.769 118.696 551.769C117.706 551.769 116.956 552.219 116.446 553.089C115.936 553.989 115.696 555.219 115.696 556.779C115.696 558.369 115.936 559.599 116.446 560.529C116.956 561.459 117.706 561.909 118.696 561.909ZM118.696 565.149C117.466 565.149 116.386 564.939 115.456 564.549C114.526 564.159 113.746 563.589 113.116 562.839C112.486 562.119 112.036 561.249 111.736 560.199C111.406 559.179 111.256 558.039 111.256 556.779C111.256 555.519 111.406 554.379 111.736 553.359C112.036 552.369 112.486 551.499 113.116 550.779C113.746 550.059 114.526 549.489 115.456 549.099C116.386 548.709 117.466 548.529 118.696 548.529C119.926 548.529 121.036 548.709 121.966 549.099C122.896 549.489 123.646 550.059 124.276 550.779C124.906 551.499 125.356 552.369 125.686 553.359C125.986 554.379 126.136 555.519 126.136 556.779C126.136 558.039 125.986 559.179 125.686 560.199C125.356 561.249 124.906 562.119 124.276 562.839C123.646 563.589 122.896 564.159 121.966 564.549C121.036 564.939 119.926 565.149 118.696 565.149ZM136.415 561.939C137.345 561.939 138.065 561.579 138.515 560.859C138.965 560.139 139.175 558.939 139.175 557.259V548.979H143.375V564.699H139.535V562.659C139.115 563.439 138.485 564.039 137.615 564.429C136.745 564.819 135.815 565.029 134.855 565.029C133.775 565.029 132.905 564.849 132.245 564.489C131.585 564.129 131.075 563.619 130.715 562.989C130.355 562.359 130.115 561.639 129.995 560.769C129.875 559.899 129.815 558.969 129.815 557.979V548.979H134.015V557.859C134.015 558.429 134.045 558.969 134.105 559.449C134.165 559.959 134.285 560.379 134.465 560.739C134.645 561.129 134.885 561.399 135.215 561.609C135.515 561.819 135.905 561.939 136.415 561.939ZM158.723 554.739C158.663 553.869 158.453 553.149 158.063 552.579C157.673 552.039 157.073 551.769 156.233 551.769C155.273 551.769 154.553 552.159 154.043 552.939C153.533 553.749 153.263 554.979 153.263 556.689V564.699H149.063V548.979H152.903V550.899C154.013 549.399 155.483 548.649 157.343 548.649C158.273 548.649 159.053 548.799 159.683 549.069C160.313 549.369 160.793 549.789 161.183 550.299C161.573 550.809 161.843 551.469 162.023 552.219C162.173 552.969 162.293 553.809 162.323 554.739H158.723ZM173.021 548.529C174.131 548.529 175.091 548.679 175.961 548.979C176.801 549.309 177.521 549.729 178.121 550.269C178.721 550.839 179.201 551.499 179.531 552.249C179.861 553.029 180.041 553.869 180.101 554.769H175.781C175.661 553.839 175.361 553.119 174.881 552.579C174.401 552.039 173.771 551.769 173.021 551.769C171.971 551.769 171.191 552.219 170.681 553.089C170.171 553.959 169.901 555.189 169.901 556.779C169.901 558.369 170.171 559.599 170.681 560.529C171.191 561.459 171.971 561.939 173.021 561.939C173.831 561.939 174.461 561.639 174.911 561.039C175.361 560.469 175.661 559.719 175.781 558.819H179.981C179.921 559.749 179.741 560.619 179.411 561.369C179.081 562.149 178.661 562.809 178.091 563.379C177.521 563.949 176.801 564.399 175.961 564.699C175.091 565.029 174.131 565.179 173.021 565.179C171.761 565.179 170.651 564.969 169.721 564.579C168.761 564.189 167.981 563.619 167.351 562.869C166.721 562.149 166.241 561.279 165.941 560.229C165.611 559.179 165.461 558.039 165.461 556.779C165.461 554.229 166.091 552.219 167.351 550.749C168.611 549.279 170.501 548.529 173.021 548.529ZM187.559 557.859C187.649 559.209 188.009 560.229 188.579 560.949C189.149 561.669 189.899 562.029 190.829 562.029C191.519 562.029 192.089 561.849 192.509 561.459C192.929 561.069 193.229 560.559 193.409 559.899H197.759C197.309 561.669 196.529 562.989 195.419 563.859C194.309 564.729 192.779 565.149 190.829 565.149C185.879 565.149 183.419 562.389 183.419 556.899C183.419 555.639 183.569 554.499 183.899 553.449C184.199 552.429 184.649 551.559 185.279 550.809C185.879 550.089 186.659 549.519 187.589 549.129C188.519 548.739 189.599 548.529 190.829 548.529C192.059 548.529 193.139 548.709 194.039 549.099C194.909 549.489 195.659 550.059 196.229 550.779C196.799 551.529 197.219 552.399 197.489 553.449C197.759 554.499 197.879 555.699 197.879 557.019V557.859H187.559ZM190.829 551.529C190.019 551.529 189.329 551.799 188.819 552.339C188.279 552.909 187.889 553.749 187.679 554.859H193.739C193.649 553.719 193.349 552.879 192.839 552.339C192.329 551.799 191.639 551.529 190.829 551.529ZM67.7914 600.699V598.749C67.2514 599.559 66.5914 600.129 65.7814 600.489C64.9714 600.849 64.1014 601.029 63.2314 601.029C62.3014 601.029 61.4614 600.879 60.7114 600.579C59.9314 600.279 59.2714 599.799 58.7314 599.139C58.1614 598.479 57.7414 597.639 57.4414 596.589C57.1414 595.539 56.9914 594.279 56.9914 592.779C56.9914 590.169 57.5614 588.159 58.7014 586.749C59.8114 585.339 61.3414 584.649 63.2314 584.649C64.1314 584.649 64.9114 584.799 65.6014 585.099C66.2914 585.429 66.8914 585.939 67.4314 586.659V578.979H71.6314V600.699H67.7914ZM64.4314 597.909C65.3914 597.909 66.1414 597.459 66.7114 596.529C67.2814 595.629 67.5514 594.369 67.5514 592.779C67.5514 591.069 67.2814 589.809 66.7114 588.999C66.1414 588.189 65.3914 587.769 64.4314 587.769C63.4414 587.769 62.6914 588.219 62.1514 589.119C61.5814 590.019 61.3114 591.249 61.3114 592.779C61.3114 594.549 61.5814 595.839 62.1514 596.649C62.7214 597.489 63.4714 597.909 64.4314 597.909ZM79.6297 593.859C79.7197 595.209 80.0797 596.229 80.6497 596.949C81.2197 597.669 81.9697 598.029 82.8997 598.029C83.5897 598.029 84.1597 597.849 84.5797 597.459C84.9997 597.069 85.2997 596.559 85.4797 595.899H89.8297C89.3797 597.669 88.5997 598.989 87.4897 599.859C86.3797 600.729 84.8497 601.149 82.8997 601.149C77.9497 601.149 75.4897 598.389 75.4897 592.899C75.4897 591.639 75.6397 590.499 75.9697 589.449C76.2697 588.429 76.7197 587.559 77.3497 586.809C77.9497 586.089 78.7297 585.519 79.6597 585.129C80.5897 584.739 81.6697 584.529 82.8997 584.529C84.1297 584.529 85.2097 584.709 86.1097 585.099C86.9797 585.489 87.7297 586.059 88.2997 586.779C88.8697 587.529 89.2897 588.399 89.5597 589.449C89.8297 590.499 89.9497 591.699 89.9497 593.019V593.859H79.6297ZM82.8997 587.529C82.0897 587.529 81.3997 587.799 80.8897 588.339C80.3497 588.909 79.9597 589.749 79.7497 590.859H85.8097C85.7197 589.719 85.4197 588.879 84.9097 588.339C84.3997 587.799 83.7097 587.529 82.8997 587.529ZM94.648 578.979H103.168V597.579H107.488V600.699H94.528V597.579H98.968V582.099H94.648V578.979ZM115.606 593.859C115.696 595.209 116.056 596.229 116.626 596.949C117.196 597.669 117.946 598.029 118.876 598.029C119.566 598.029 120.136 597.849 120.556 597.459C120.976 597.069 121.276 596.559 121.456 595.899H125.806C125.356 597.669 124.576 598.989 123.466 599.859C122.356 600.729 120.826 601.149 118.876 601.149C113.926 601.149 111.466 598.389 111.466 592.899C111.466 591.639 111.616 590.499 111.946 589.449C112.246 588.429 112.696 587.559 113.326 586.809C113.926 586.089 114.706 585.519 115.636 585.129C116.566 584.739 117.646 584.529 118.876 584.529C120.106 584.529 121.186 584.709 122.086 585.099C122.956 585.489 123.706 586.059 124.276 586.779C124.846 587.529 125.266 588.399 125.536 589.449C125.806 590.499 125.926 591.699 125.926 593.019V593.859H115.606ZM118.876 587.529C118.066 587.529 117.376 587.799 116.866 588.339C116.326 588.909 115.936 589.749 115.726 590.859H121.786C121.696 589.719 121.396 588.879 120.886 588.339C120.376 587.799 119.686 587.529 118.876 587.529ZM139.655 597.579C139.145 598.359 138.485 598.929 137.705 599.289C136.925 599.679 136.085 599.859 135.215 599.859C134.285 599.859 133.445 599.709 132.695 599.439C131.915 599.169 131.255 598.719 130.715 598.089C130.145 597.459 129.725 596.679 129.425 595.689C129.125 594.729 128.975 593.559 128.975 592.179C128.975 591.009 129.125 589.929 129.425 588.999C129.725 588.069 130.145 587.289 130.685 586.629C131.225 585.999 131.885 585.489 132.665 585.159C133.415 584.829 134.285 584.649 135.215 584.649C136.025 584.649 136.835 584.799 137.615 585.129C138.395 585.459 139.025 585.969 139.535 586.659V584.979H143.615V598.899C143.615 600.369 143.405 601.599 143.015 602.559C142.625 603.519 142.085 604.269 141.425 604.839C140.765 605.409 140.015 605.799 139.145 606.009C138.275 606.219 137.345 606.339 136.415 606.339C134.345 606.339 132.725 605.889 131.555 605.019C130.355 604.149 129.665 602.859 129.515 601.179H133.895C133.925 601.839 134.195 602.379 134.675 602.769C135.155 603.189 135.785 603.399 136.535 603.399C138.605 603.399 139.655 602.019 139.655 599.259V597.579ZM136.415 596.739C137.375 596.739 138.125 596.349 138.695 595.539C139.265 594.729 139.535 593.619 139.535 592.179C139.535 590.709 139.265 589.599 138.695 588.849C138.125 588.129 137.375 587.769 136.415 587.769C135.425 587.769 134.675 588.159 134.135 588.939C133.565 589.719 133.295 590.799 133.295 592.179C133.295 593.709 133.565 594.849 134.135 595.599C134.705 596.349 135.455 596.739 136.415 596.739ZM147.533 596.619C147.533 594.729 148.313 593.379 149.843 592.539C151.373 591.699 153.683 591.189 156.773 591.039V589.989C156.773 589.119 156.593 588.459 156.203 588.069C155.813 587.679 155.273 587.469 154.583 587.469C154.163 587.469 153.803 587.529 153.503 587.679C153.203 587.829 152.963 588.039 152.783 588.279C152.573 588.549 152.453 588.819 152.363 589.119C152.273 589.449 152.213 589.749 152.213 590.079H148.133C148.223 588.369 148.823 586.989 149.933 585.999C151.043 585.009 152.663 584.529 154.853 584.529C158.933 584.529 160.973 586.329 160.973 589.959V595.779C160.973 596.769 161.003 597.699 161.033 598.539C161.063 599.379 161.183 600.099 161.333 600.699H157.493C157.433 600.339 157.373 600.009 157.343 599.679C157.283 599.379 157.253 599.079 157.253 598.779C156.683 599.499 156.023 600.069 155.333 600.459C154.643 600.849 153.713 601.059 152.573 601.059C151.013 601.059 149.783 600.669 148.883 599.919C147.983 599.169 147.533 598.059 147.533 596.619ZM153.893 598.179C154.793 598.179 155.513 597.879 156.023 597.249C156.533 596.649 156.773 595.719 156.773 594.459V593.739C155.723 593.799 154.883 593.889 154.253 594.039C153.623 594.189 153.113 594.369 152.753 594.579C152.393 594.789 152.153 595.059 152.033 595.359C151.913 595.659 151.853 595.989 151.853 596.349C151.853 596.859 152.063 597.309 152.453 597.639C152.843 597.999 153.323 598.179 153.893 598.179ZM169.721 585.669V580.659H173.921V585.669H179.081V588.789H173.921V595.179C173.921 595.629 174.011 596.019 174.191 596.289C174.371 596.589 174.611 596.829 174.911 596.979C175.181 597.159 175.511 597.279 175.901 597.339C176.261 597.429 176.651 597.459 177.041 597.459C177.431 597.459 177.851 597.429 178.241 597.369C178.631 597.339 178.991 597.279 179.321 597.219V600.699C178.781 600.759 178.241 600.819 177.671 600.849C177.101 600.909 176.531 600.939 175.961 600.939C175.151 600.939 174.371 600.849 173.621 600.669C172.871 600.489 172.181 600.159 171.611 599.709C171.041 599.259 170.561 598.659 170.231 597.879C169.901 597.129 169.721 596.139 169.721 594.939V588.789H165.281V585.669H169.721ZM184.589 585.669H193.469V597.579H198.029V600.699H184.589V597.579H189.269V588.789H184.589V585.669ZM188.909 578.979H193.829V583.059H188.909V578.979ZM208.638 597.909C209.628 597.909 210.378 597.459 210.888 596.529C211.398 595.599 211.638 594.369 211.638 592.779C211.638 591.219 211.398 589.989 210.888 589.089C210.378 588.219 209.628 587.769 208.638 587.769C207.648 587.769 206.898 588.219 206.388 589.089C205.878 589.989 205.638 591.219 205.638 592.779C205.638 594.369 205.878 595.599 206.388 596.529C206.898 597.459 207.648 597.909 208.638 597.909ZM208.638 601.149C207.408 601.149 206.328 600.939 205.398 600.549C204.468 600.159 203.688 599.589 203.058 598.839C202.428 598.119 201.978 597.249 201.678 596.199C201.348 595.179 201.198 594.039 201.198 592.779C201.198 591.519 201.348 590.379 201.678 589.359C201.978 588.369 202.428 587.499 203.058 586.779C203.688 586.059 204.468 585.489 205.398 585.099C206.328 584.709 207.408 584.529 208.638 584.529C209.868 584.529 210.978 584.709 211.908 585.099C212.838 585.489 213.588 586.059 214.218 586.779C214.848 587.499 215.298 588.369 215.628 589.359C215.928 590.379 216.078 591.519 216.078 592.779C216.078 594.039 215.928 595.179 215.628 596.199C215.298 597.249 214.848 598.119 214.218 598.839C213.588 599.589 212.838 600.159 211.908 600.549C210.978 600.939 209.868 601.149 208.638 601.149ZM226.866 587.739C225.936 587.739 225.246 588.099 224.796 588.819C224.346 589.539 224.106 590.739 224.106 592.419V600.699H219.906V584.979H223.746V587.019C224.166 586.239 224.826 585.639 225.696 585.249C226.566 584.859 227.466 584.649 228.426 584.649C229.506 584.649 230.376 584.829 231.036 585.189C231.696 585.549 232.206 586.029 232.566 586.659C232.926 587.289 233.166 588.039 233.286 588.909C233.406 589.779 233.466 590.709 233.466 591.699V600.699H229.266V591.819C229.266 591.249 229.236 590.739 229.176 590.229C229.116 589.719 228.996 589.299 228.816 588.909C228.636 588.549 228.396 588.249 228.096 588.039C227.766 587.829 227.376 587.739 226.866 587.739Z" fill="white"/>
<path d="M447.383 166.727C447.383 165.197 447.983 163.997 449.183 163.127C450.353 162.257 452.003 161.807 454.133 161.807C456.323 161.807 458.003 162.257 459.203 163.157C460.403 164.057 461.003 165.407 461.003 167.207H456.623C456.593 166.307 456.353 165.677 455.963 165.317C455.573 164.987 454.943 164.807 454.133 164.807C453.443 164.807 452.903 164.957 452.513 165.227C452.093 165.527 451.883 165.917 451.883 166.367C451.883 166.877 452.123 167.267 452.603 167.537C453.053 167.807 453.653 168.047 454.343 168.227C455.033 168.437 455.813 168.617 456.623 168.797C457.433 169.007 458.213 169.247 458.903 169.577C459.593 169.907 460.193 170.357 460.673 170.927C461.123 171.497 461.363 172.247 461.363 173.177C461.363 174.797 460.733 176.087 459.473 177.017C458.213 177.947 456.473 178.427 454.253 178.427C451.943 178.427 450.173 177.947 448.943 177.017C447.713 176.087 447.053 174.647 447.023 172.697H451.523C451.523 173.657 451.763 174.347 452.213 174.767C452.663 175.217 453.353 175.427 454.253 175.427C454.973 175.427 455.573 175.277 456.053 174.947C456.503 174.647 456.743 174.227 456.743 173.657C456.743 173.147 456.503 172.757 456.053 172.487C455.603 172.217 455.003 172.007 454.313 171.827C453.623 171.647 452.873 171.467 452.063 171.257C451.253 171.077 450.503 170.807 449.813 170.447C449.123 170.117 448.523 169.637 448.073 169.067C447.623 168.497 447.383 167.717 447.383 166.727ZM472.211 175.187C473.201 175.187 473.951 174.737 474.461 173.807C474.971 172.877 475.211 171.647 475.211 170.057C475.211 168.497 474.971 167.267 474.461 166.367C473.951 165.497 473.201 165.047 472.211 165.047C471.221 165.047 470.471 165.497 469.961 166.367C469.451 167.267 469.211 168.497 469.211 170.057C469.211 171.647 469.451 172.877 469.961 173.807C470.471 174.737 471.221 175.187 472.211 175.187ZM472.211 178.427C470.981 178.427 469.901 178.217 468.971 177.827C468.041 177.437 467.261 176.867 466.631 176.117C466.001 175.397 465.551 174.527 465.251 173.477C464.921 172.457 464.771 171.317 464.771 170.057C464.771 168.797 464.921 167.657 465.251 166.637C465.551 165.647 466.001 164.777 466.631 164.057C467.261 163.337 468.041 162.767 468.971 162.377C469.901 161.987 470.981 161.807 472.211 161.807C473.441 161.807 474.551 161.987 475.481 162.377C476.411 162.767 477.161 163.337 477.791 164.057C478.421 164.777 478.871 165.647 479.201 166.637C479.501 167.657 479.651 168.797 479.651 170.057C479.651 171.317 479.501 172.457 479.201 173.477C478.871 174.527 478.421 175.397 477.791 176.117C477.161 176.867 476.411 177.437 475.481 177.827C474.551 178.217 473.441 178.427 472.211 178.427ZM482.699 162.257H487.379L489.179 170.297C489.329 170.957 489.509 171.617 489.659 172.247C489.809 172.877 489.989 173.567 490.139 174.257H490.379C490.559 173.567 490.739 172.877 490.949 172.247C491.129 171.617 491.309 170.957 491.459 170.297L493.379 162.257H497.819L492.779 177.977H487.499L482.699 162.257ZM505.098 171.137C505.188 172.487 505.548 173.507 506.118 174.227C506.688 174.947 507.438 175.307 508.368 175.307C509.058 175.307 509.628 175.127 510.048 174.737C510.468 174.347 510.768 173.837 510.948 173.177H515.298C514.848 174.947 514.068 176.267 512.958 177.137C511.848 178.007 510.318 178.427 508.368 178.427C503.418 178.427 500.958 175.667 500.958 170.177C500.958 168.917 501.108 167.777 501.438 166.727C501.738 165.707 502.188 164.837 502.818 164.087C503.418 163.367 504.198 162.797 505.128 162.407C506.058 162.017 507.138 161.807 508.368 161.807C509.598 161.807 510.678 161.987 511.578 162.377C512.448 162.767 513.198 163.337 513.768 164.057C514.338 164.807 514.758 165.677 515.028 166.727C515.298 167.777 515.418 168.977 515.418 170.297V171.137H505.098ZM508.368 164.807C507.558 164.807 506.868 165.077 506.358 165.617C505.818 166.187 505.428 167.027 505.218 168.137H511.278C511.188 166.997 510.888 166.157 510.378 165.617C509.868 165.077 509.178 164.807 508.368 164.807ZM530.226 168.017C530.166 167.147 529.956 166.427 529.566 165.857C529.176 165.317 528.576 165.047 527.736 165.047C526.776 165.047 526.056 165.437 525.546 166.217C525.036 167.027 524.766 168.257 524.766 169.967V177.977H520.566V162.257H524.406V164.177C525.516 162.677 526.986 161.927 528.846 161.927C529.776 161.927 530.556 162.077 531.186 162.347C531.816 162.647 532.296 163.067 532.686 163.577C533.076 164.087 533.346 164.747 533.526 165.497C533.676 166.247 533.796 167.087 533.826 168.017H530.226ZM541.074 171.137C541.164 172.487 541.524 173.507 542.094 174.227C542.664 174.947 543.414 175.307 544.344 175.307C545.034 175.307 545.604 175.127 546.024 174.737C546.444 174.347 546.744 173.837 546.924 173.177H551.274C550.824 174.947 550.044 176.267 548.934 177.137C547.824 178.007 546.294 178.427 544.344 178.427C539.394 178.427 536.934 175.667 536.934 170.177C536.934 168.917 537.084 167.777 537.414 166.727C537.714 165.707 538.164 164.837 538.794 164.087C539.394 163.367 540.174 162.797 541.104 162.407C542.034 162.017 543.114 161.807 544.344 161.807C545.574 161.807 546.654 161.987 547.554 162.377C548.424 162.767 549.174 163.337 549.744 164.057C550.314 164.807 550.734 165.677 551.004 166.727C551.274 167.777 551.394 168.977 551.394 170.297V171.137H541.074ZM544.344 164.807C543.534 164.807 542.844 165.077 542.334 165.617C541.794 166.187 541.404 167.027 541.194 168.137H547.254C547.164 166.997 546.864 166.157 546.354 165.617C545.844 165.077 545.154 164.807 544.344 164.807ZM556.092 162.947H564.972V174.857H569.532V177.977H556.092V174.857H560.772V166.067H556.092V162.947ZM560.412 156.257H565.332V160.337H560.412V156.257ZM583.111 174.857C582.601 175.637 581.941 176.207 581.161 176.567C580.381 176.957 579.541 177.137 578.671 177.137C577.741 177.137 576.901 176.987 576.151 176.717C575.371 176.447 574.711 175.997 574.171 175.367C573.601 174.737 573.181 173.957 572.881 172.967C572.581 172.007 572.431 170.837 572.431 169.457C572.431 168.287 572.581 167.207 572.881 166.277C573.181 165.347 573.601 164.567 574.141 163.907C574.681 163.277 575.341 162.767 576.121 162.437C576.871 162.107 577.741 161.927 578.671 161.927C579.481 161.927 580.291 162.077 581.071 162.407C581.851 162.737 582.481 163.247 582.991 163.937V162.257H587.071V176.177C587.071 177.647 586.861 178.877 586.471 179.837C586.081 180.797 585.541 181.547 584.881 182.117C584.221 182.687 583.471 183.077 582.601 183.287C581.731 183.497 580.801 183.617 579.871 183.617C577.801 183.617 576.181 183.167 575.011 182.297C573.811 181.427 573.121 180.137 572.971 178.457H577.351C577.381 179.117 577.651 179.657 578.131 180.047C578.611 180.467 579.241 180.677 579.991 180.677C582.061 180.677 583.111 179.297 583.111 176.537V174.857ZM579.871 174.017C580.831 174.017 581.581 173.627 582.151 172.817C582.721 172.007 582.991 170.897 582.991 169.457C582.991 167.987 582.721 166.877 582.151 166.127C581.581 165.407 580.831 165.047 579.871 165.047C578.881 165.047 578.131 165.437 577.591 166.217C577.021 166.997 576.751 168.077 576.751 169.457C576.751 170.987 577.021 172.127 577.591 172.877C578.161 173.627 578.911 174.017 579.871 174.017ZM598.369 165.017C597.439 165.017 596.749 165.377 596.299 166.097C595.849 166.817 595.609 168.017 595.609 169.697V177.977H591.409V162.257H595.249V164.297C595.669 163.517 596.329 162.917 597.199 162.527C598.069 162.137 598.969 161.927 599.929 161.927C601.009 161.927 601.879 162.107 602.539 162.467C603.199 162.827 603.709 163.307 604.069 163.937C604.429 164.567 604.669 165.317 604.789 166.187C604.909 167.057 604.969 167.987 604.969 168.977V177.977H600.769V169.097C600.769 168.527 600.739 168.017 600.679 167.507C600.619 166.997 600.499 166.577 600.319 166.187C600.139 165.827 599.899 165.527 599.599 165.317C599.269 165.107 598.879 165.017 598.369 165.017ZM641.396 160.007L631.676 174.257H641.876V177.977H626.426V174.077L636.146 159.917H626.906V156.257H641.396V160.007ZM645.254 156.257H649.694V165.737L656.174 156.257H660.854L653.774 166.457L661.574 177.977H656.534L649.694 167.777V177.977H645.254V156.257Z" fill="black"/>
<path d="M505.098 207.137C505.188 208.487 505.548 209.507 506.118 210.227C506.688 210.947 507.438 211.307 508.368 211.307C509.058 211.307 509.628 211.127 510.048 210.737C510.468 210.347 510.768 209.837 510.948 209.177H515.298C514.848 210.947 514.068 212.267 512.958 213.137C511.848 214.007 510.318 214.427 508.368 214.427C503.418 214.427 500.958 211.667 500.958 206.177C500.958 204.917 501.108 203.777 501.438 202.727C501.738 201.707 502.188 200.837 502.818 200.087C503.418 199.367 504.198 198.797 505.128 198.407C506.058 198.017 507.138 197.807 508.368 197.807C509.598 197.807 510.678 197.987 511.578 198.377C512.448 198.767 513.198 199.337 513.768 200.057C514.338 200.807 514.758 201.677 515.028 202.727C515.298 203.777 515.418 204.977 515.418 206.297V207.137H505.098ZM508.368 200.807C507.558 200.807 506.868 201.077 506.358 201.617C505.818 202.187 505.428 203.027 505.218 204.137H511.278C511.188 202.997 510.888 202.157 510.378 201.617C509.868 201.077 509.178 200.807 508.368 200.807ZM528.396 205.877L534.096 213.977H529.416L525.996 209.147L522.456 213.977H518.256L523.956 206.207L518.376 198.257H523.056L526.326 202.937L529.776 198.257H533.976L528.396 205.877ZM541.074 207.137C541.164 208.487 541.524 209.507 542.094 210.227C542.664 210.947 543.414 211.307 544.344 211.307C545.034 211.307 545.604 211.127 546.024 210.737C546.444 210.347 546.744 209.837 546.924 209.177H551.274C550.824 210.947 550.044 212.267 548.934 213.137C547.824 214.007 546.294 214.427 544.344 214.427C539.394 214.427 536.934 211.667 536.934 206.177C536.934 204.917 537.084 203.777 537.414 202.727C537.714 201.707 538.164 200.837 538.794 200.087C539.394 199.367 540.174 198.797 541.104 198.407C542.034 198.017 543.114 197.807 544.344 197.807C545.574 197.807 546.654 197.987 547.554 198.377C548.424 198.767 549.174 199.337 549.744 200.057C550.314 200.807 550.734 201.677 551.004 202.727C551.274 203.777 551.394 204.977 551.394 206.297V207.137H541.074ZM544.344 200.807C543.534 200.807 542.844 201.077 542.334 201.617C541.794 202.187 541.404 203.027 541.194 204.137H547.254C547.164 202.997 546.864 202.157 546.354 201.617C545.844 201.077 545.154 200.807 544.344 200.807ZM562.512 197.807C563.622 197.807 564.582 197.957 565.452 198.257C566.292 198.587 567.012 199.007 567.612 199.547C568.212 200.117 568.692 200.777 569.022 201.527C569.352 202.307 569.532 203.147 569.592 204.047H565.272C565.152 203.117 564.852 202.397 564.372 201.857C563.892 201.317 563.262 201.047 562.512 201.047C561.462 201.047 560.682 201.497 560.172 202.367C559.662 203.237 559.392 204.467 559.392 206.057C559.392 207.647 559.662 208.877 560.172 209.807C560.682 210.737 561.462 211.217 562.512 211.217C563.322 211.217 563.952 210.917 564.402 210.317C564.852 209.747 565.152 208.997 565.272 208.097H569.472C569.412 209.027 569.232 209.897 568.902 210.647C568.572 211.427 568.152 212.087 567.582 212.657C567.012 213.227 566.292 213.677 565.452 213.977C564.582 214.307 563.622 214.457 562.512 214.457C561.252 214.457 560.142 214.247 559.212 213.857C558.252 213.467 557.472 212.897 556.842 212.147C556.212 211.427 555.732 210.557 555.432 209.507C555.102 208.457 554.952 207.317 554.952 206.057C554.952 203.507 555.582 201.497 556.842 200.027C558.102 198.557 559.992 197.807 562.512 197.807ZM579.871 211.217C580.801 211.217 581.521 210.857 581.971 210.137C582.421 209.417 582.631 208.217 582.631 206.537V198.257H586.831V213.977H582.991V211.937C582.571 212.717 581.941 213.317 581.071 213.707C580.201 214.097 579.271 214.307 578.311 214.307C577.231 214.307 576.361 214.127 575.701 213.767C575.041 213.407 574.531 212.897 574.171 212.267C573.811 211.637 573.571 210.917 573.451 210.047C573.331 209.177 573.271 208.247 573.271 207.257V198.257H577.471V207.137C577.471 207.707 577.501 208.247 577.561 208.727C577.621 209.237 577.741 209.657 577.921 210.017C578.101 210.407 578.341 210.677 578.671 210.887C578.971 211.097 579.361 211.217 579.871 211.217ZM595.189 198.947V193.937H599.389V198.947H604.549V202.067H599.389V208.457C599.389 208.907 599.479 209.297 599.659 209.567C599.839 209.867 600.079 210.107 600.379 210.257C600.649 210.437 600.979 210.557 601.369 210.617C601.729 210.707 602.119 210.737 602.509 210.737C602.899 210.737 603.319 210.707 603.709 210.647C604.099 210.617 604.459 210.557 604.789 210.497V213.977C604.249 214.037 603.709 214.097 603.139 214.127C602.569 214.187 601.999 214.217 601.429 214.217C600.619 214.217 599.839 214.127 599.089 213.947C598.339 213.767 597.649 213.437 597.079 212.987C596.509 212.537 596.029 211.937 595.699 211.157C595.369 210.407 595.189 209.417 595.189 208.217V202.067H590.749V198.947H595.189ZM610.057 198.947H618.937V210.857H623.497V213.977H610.057V210.857H614.737V202.067H610.057V198.947ZM614.377 192.257H619.297V196.337H614.377V192.257ZM634.106 211.187C635.096 211.187 635.846 210.737 636.356 209.807C636.866 208.877 637.106 207.647 637.106 206.057C637.106 204.497 636.866 203.267 636.356 202.367C635.846 201.497 635.096 201.047 634.106 201.047C633.116 201.047 632.366 201.497 631.856 202.367C631.346 203.267 631.106 204.497 631.106 206.057C631.106 207.647 631.346 208.877 631.856 209.807C632.366 210.737 633.116 211.187 634.106 211.187ZM634.106 214.427C632.876 214.427 631.796 214.217 630.866 213.827C629.936 213.437 629.156 212.867 628.526 212.117C627.896 211.397 627.446 210.527 627.146 209.477C626.816 208.457 626.666 207.317 626.666 206.057C626.666 204.797 626.816 203.657 627.146 202.637C627.446 201.647 627.896 200.777 628.526 200.057C629.156 199.337 629.936 198.767 630.866 198.377C631.796 197.987 632.876 197.807 634.106 197.807C635.336 197.807 636.446 197.987 637.376 198.377C638.306 198.767 639.056 199.337 639.686 200.057C640.316 200.777 640.766 201.647 641.096 202.637C641.396 203.657 641.546 204.797 641.546 206.057C641.546 207.317 641.396 208.457 641.096 209.477C640.766 210.527 640.316 211.397 639.686 212.117C639.056 212.867 638.306 213.437 637.376 213.827C636.446 214.217 635.336 214.427 634.106 214.427ZM652.334 201.017C651.404 201.017 650.714 201.377 650.264 202.097C649.814 202.817 649.574 204.017 649.574 205.697V213.977H645.374V198.257H649.214V200.297C649.634 199.517 650.294 198.917 651.164 198.527C652.034 198.137 652.934 197.927 653.894 197.927C654.974 197.927 655.844 198.107 656.504 198.467C657.164 198.827 657.674 199.307 658.034 199.937C658.394 200.567 658.634 201.317 658.754 202.187C658.874 203.057 658.934 203.987 658.934 204.977V213.977H654.734V205.097C654.734 204.527 654.704 204.017 654.644 203.507C654.584 202.997 654.464 202.577 654.284 202.187C654.104 201.827 653.864 201.527 653.564 201.317C653.234 201.107 652.844 201.017 652.334 201.017Z" fill="white"/>
<path d="M64.6114 167.867C64.5814 168.407 64.4914 169.007 64.4014 169.637C64.3114 170.267 64.2214 170.837 64.1314 171.347L62.9314 177.977H58.3714L56.0914 162.257H59.5114L60.6214 171.347C60.6814 171.857 60.7414 172.367 60.8314 172.877C60.8914 173.387 60.9514 173.927 60.9814 174.467H61.2214C61.2514 173.927 61.3114 173.387 61.3714 172.877C61.4014 172.367 61.4914 171.857 61.5814 171.347L63.2914 162.257H66.4714L68.1814 171.347C68.2714 171.857 68.3614 172.367 68.4214 172.877C68.4514 173.387 68.5114 173.927 68.5414 174.467H68.7814C68.8114 173.927 68.8714 173.387 68.9614 172.877C69.0214 172.367 69.0814 171.857 69.1414 171.347L70.2514 162.257H73.3714L71.0914 177.977H66.5314L65.3314 171.347C65.2414 170.837 65.1514 170.267 65.0614 169.637C64.9714 169.007 64.8814 168.407 64.8514 167.867H64.6114ZM86.7697 168.017C86.7097 167.147 86.4997 166.427 86.1097 165.857C85.7197 165.317 85.1197 165.047 84.2797 165.047C83.3197 165.047 82.5997 165.437 82.0897 166.217C81.5797 167.027 81.3097 168.257 81.3097 169.967V177.977H77.1097V162.257H80.9497V164.177C82.0597 162.677 83.5297 161.927 85.3897 161.927C86.3197 161.927 87.0997 162.077 87.7297 162.347C88.3597 162.647 88.8397 163.067 89.2297 163.577C89.6197 164.087 89.8897 164.747 90.0697 165.497C90.2197 166.247 90.3397 167.087 90.3697 168.017H86.7697ZM94.648 162.947H103.528V174.857H108.088V177.977H94.648V174.857H99.328V166.067H94.648V162.947ZM98.968 156.257H103.888V160.337H98.968V156.257ZM115.756 162.947V157.937H119.956V162.947H125.116V166.067H119.956V172.457C119.956 172.907 120.046 173.297 120.226 173.567C120.406 173.867 120.646 174.107 120.946 174.257C121.216 174.437 121.546 174.557 121.936 174.617C122.296 174.707 122.686 174.737 123.076 174.737C123.466 174.737 123.886 174.707 124.276 174.647C124.666 174.617 125.026 174.557 125.356 174.497V177.977C124.816 178.037 124.276 178.097 123.706 178.127C123.136 178.187 122.566 178.217 121.996 178.217C121.186 178.217 120.406 178.127 119.656 177.947C118.906 177.767 118.216 177.437 117.646 176.987C117.076 176.537 116.596 175.937 116.266 175.157C115.936 174.407 115.756 173.417 115.756 172.217V166.067H111.316V162.947H115.756ZM133.595 171.137C133.685 172.487 134.045 173.507 134.615 174.227C135.185 174.947 135.935 175.307 136.865 175.307C137.555 175.307 138.125 175.127 138.545 174.737C138.965 174.347 139.265 173.837 139.445 173.177H143.795C143.345 174.947 142.565 176.267 141.455 177.137C140.345 178.007 138.815 178.427 136.865 178.427C131.915 178.427 129.455 175.667 129.455 170.177C129.455 168.917 129.605 167.777 129.935 166.727C130.235 165.707 130.685 164.837 131.315 164.087C131.915 163.367 132.695 162.797 133.625 162.407C134.555 162.017 135.635 161.807 136.865 161.807C138.095 161.807 139.175 161.987 140.075 162.377C140.945 162.767 141.695 163.337 142.265 164.057C142.835 164.807 143.255 165.677 143.525 166.727C143.795 167.777 143.915 168.977 143.915 170.297V171.137H133.595ZM136.865 164.807C136.055 164.807 135.365 165.077 134.855 165.617C134.315 166.187 133.925 167.027 133.715 168.137H139.775C139.685 166.997 139.385 166.157 138.875 165.617C138.365 165.077 137.675 164.807 136.865 164.807ZM172.661 175.187C173.651 175.187 174.401 174.737 174.911 173.807C175.421 172.877 175.661 171.647 175.661 170.057C175.661 168.497 175.421 167.267 174.911 166.367C174.401 165.497 173.651 165.047 172.661 165.047C171.671 165.047 170.921 165.497 170.411 166.367C169.901 167.267 169.661 168.497 169.661 170.057C169.661 171.647 169.901 172.877 170.411 173.807C170.921 174.737 171.671 175.187 172.661 175.187ZM172.661 178.427C171.431 178.427 170.351 178.217 169.421 177.827C168.491 177.437 167.711 176.867 167.081 176.117C166.451 175.397 166.001 174.527 165.701 173.477C165.371 172.457 165.221 171.317 165.221 170.057C165.221 168.797 165.371 167.657 165.701 166.637C166.001 165.647 166.451 164.777 167.081 164.057C167.711 163.337 168.491 162.767 169.421 162.377C170.351 161.987 171.431 161.807 172.661 161.807C173.891 161.807 175.001 161.987 175.931 162.377C176.861 162.767 177.611 163.337 178.241 164.057C178.871 164.777 179.321 165.647 179.651 166.637C179.951 167.657 180.101 168.797 180.101 170.057C180.101 171.317 179.951 172.457 179.651 173.477C179.321 174.527 178.871 175.397 178.241 176.117C177.611 176.867 176.861 177.437 175.931 177.827C175.001 178.217 173.891 178.427 172.661 178.427ZM190.889 165.017C189.959 165.017 189.269 165.377 188.819 166.097C188.369 166.817 188.129 168.017 188.129 169.697V177.977H183.929V162.257H187.769V164.297C188.189 163.517 188.849 162.917 189.719 162.527C190.589 162.137 191.489 161.927 192.449 161.927C193.529 161.927 194.399 162.107 195.059 162.467C195.719 162.827 196.229 163.307 196.589 163.937C196.949 164.567 197.189 165.317 197.309 166.187C197.429 167.057 197.489 167.987 197.489 168.977V177.977H193.289V169.097C193.289 168.527 193.259 168.017 193.199 167.507C193.139 166.997 193.019 166.577 192.839 166.187C192.659 165.827 192.419 165.527 192.119 165.317C191.789 165.107 191.399 165.017 190.889 165.017ZM208.998 161.807C210.108 161.807 211.068 161.957 211.938 162.257C212.778 162.587 213.498 163.007 214.098 163.547C214.698 164.117 215.178 164.777 215.508 165.527C215.838 166.307 216.018 167.147 216.078 168.047H211.758C211.638 167.117 211.338 166.397 210.858 165.857C210.378 165.317 209.748 165.047 208.998 165.047C207.948 165.047 207.168 165.497 206.658 166.367C206.148 167.237 205.878 168.467 205.878 170.057C205.878 171.647 206.148 172.877 206.658 173.807C207.168 174.737 207.948 175.217 208.998 175.217C209.808 175.217 210.438 174.917 210.888 174.317C211.338 173.747 211.638 172.997 211.758 172.097H215.958C215.898 173.027 215.718 173.897 215.388 174.647C215.058 175.427 214.638 176.087 214.068 176.657C213.498 177.227 212.778 177.677 211.938 177.977C211.068 178.307 210.108 178.457 208.998 178.457C207.738 178.457 206.628 178.247 205.698 177.857C204.738 177.467 203.958 176.897 203.328 176.147C202.698 175.427 202.218 174.557 201.918 173.507C201.588 172.457 201.438 171.317 201.438 170.057C201.438 167.507 202.068 165.497 203.328 164.027C204.588 162.557 206.478 161.807 208.998 161.807ZM223.536 171.137C223.626 172.487 223.986 173.507 224.556 174.227C225.126 174.947 225.876 175.307 226.806 175.307C227.496 175.307 228.066 175.127 228.486 174.737C228.906 174.347 229.206 173.837 229.386 173.177H233.736C233.286 174.947 232.506 176.267 231.396 177.137C230.286 178.007 228.756 178.427 226.806 178.427C221.856 178.427 219.396 175.667 219.396 170.177C219.396 168.917 219.546 167.777 219.876 166.727C220.176 165.707 220.626 164.837 221.256 164.087C221.856 163.367 222.636 162.797 223.566 162.407C224.496 162.017 225.576 161.807 226.806 161.807C228.036 161.807 229.116 161.987 230.016 162.377C230.886 162.767 231.636 163.337 232.206 164.057C232.776 164.807 233.196 165.677 233.466 166.727C233.736 167.777 233.856 168.977 233.856 170.297V171.137H223.536ZM226.806 164.807C225.996 164.807 225.306 165.077 224.796 165.617C224.256 166.187 223.866 167.027 223.656 168.137H229.716C229.626 166.997 229.326 166.157 228.816 165.617C228.306 165.077 227.616 164.807 226.806 164.807ZM244.284 177.497H241.944V172.577H247.344V178.097L244.824 182.777H242.364L244.284 177.497Z" fill="#FF2A00"/>
<path d="M67.7914 213.977V212.027C67.2514 212.837 66.5914 213.407 65.7814 213.767C64.9714 214.127 64.1014 214.307 63.2314 214.307C62.3014 214.307 61.4614 214.157 60.7114 213.857C59.9314 213.557 59.2714 213.077 58.7314 212.417C58.1614 211.757 57.7414 210.917 57.4414 209.867C57.1414 208.817 56.9914 207.557 56.9914 206.057C56.9914 203.447 57.5614 201.437 58.7014 200.027C59.8114 198.617 61.3414 197.927 63.2314 197.927C64.1314 197.927 64.9114 198.077 65.6014 198.377C66.2914 198.707 66.8914 199.217 67.4314 199.937V192.257H71.6314V213.977H67.7914ZM64.4314 211.187C65.3914 211.187 66.1414 210.737 66.7114 209.807C67.2814 208.907 67.5514 207.647 67.5514 206.057C67.5514 204.347 67.2814 203.087 66.7114 202.277C66.1414 201.467 65.3914 201.047 64.4314 201.047C63.4414 201.047 62.6914 201.497 62.1514 202.397C61.5814 203.297 61.3114 204.527 61.3114 206.057C61.3114 207.827 61.5814 209.117 62.1514 209.927C62.7214 210.767 63.4714 211.187 64.4314 211.187ZM79.0297 207.137C79.1197 208.487 79.4797 209.507 80.0497 210.227C80.6197 210.947 81.3697 211.307 82.2997 211.307C82.9897 211.307 83.5597 211.127 83.9797 210.737C84.3997 210.347 84.6997 209.837 84.8797 209.177H89.2297C88.7797 210.947 87.9997 212.267 86.8897 213.137C85.7797 214.007 84.2497 214.427 82.2997 214.427C77.3497 214.427 74.8897 211.667 74.8897 206.177C74.8897 204.917 75.0397 203.777 75.3697 202.727C75.6697 201.707 76.1197 200.837 76.7497 200.087C77.3497 199.367 78.1297 198.797 79.0597 198.407C79.9897 198.017 81.0697 197.807 82.2997 197.807C83.5297 197.807 84.6097 197.987 85.5097 198.377C86.3797 198.767 87.1297 199.337 87.6997 200.057C88.2697 200.807 88.6897 201.677 88.9597 202.727C89.2297 203.777 89.3497 204.977 89.3497 206.297V207.137H79.0297ZM82.2997 200.807C81.4897 200.807 80.7997 201.077 80.2897 201.617C79.7497 202.187 79.3597 203.027 79.1497 204.137H85.2097C85.1197 202.997 84.8197 202.157 84.3097 201.617C83.7997 201.077 83.1097 200.807 82.2997 200.807ZM96.448 198.257V200.207C96.988 199.397 97.678 198.827 98.488 198.467C99.298 198.107 100.138 197.927 101.008 197.927C101.938 197.927 102.778 198.077 103.558 198.377C104.308 198.677 104.968 199.157 105.538 199.817C106.078 200.477 106.498 201.317 106.798 202.367C107.098 203.417 107.248 204.677 107.248 206.177C107.248 208.787 106.678 210.767 105.568 212.177C104.428 213.587 102.898 214.307 101.008 214.307C100.108 214.307 99.328 214.157 98.638 213.827C97.948 213.527 97.348 213.017 96.808 212.297V219.617H92.608V198.257H96.448ZM99.808 201.047C98.848 201.047 98.098 201.497 97.528 202.397C96.958 203.327 96.688 204.587 96.688 206.177C96.688 207.887 96.958 209.147 97.528 209.957C98.098 210.767 98.848 211.187 99.808 211.187C100.798 211.187 101.548 210.737 102.118 209.837C102.658 208.937 102.928 207.707 102.928 206.177C102.928 204.407 102.658 203.117 102.088 202.277C101.518 201.467 100.768 201.047 99.808 201.047ZM110.836 192.257H119.356V210.857H123.676V213.977H110.716V210.857H115.156V195.377H110.836V192.257ZM134.285 211.187C135.275 211.187 136.025 210.737 136.535 209.807C137.045 208.877 137.285 207.647 137.285 206.057C137.285 204.497 137.045 203.267 136.535 202.367C136.025 201.497 135.275 201.047 134.285 201.047C133.295 201.047 132.545 201.497 132.035 202.367C131.525 203.267 131.285 204.497 131.285 206.057C131.285 207.647 131.525 208.877 132.035 209.807C132.545 210.737 133.295 211.187 134.285 211.187ZM134.285 214.427C133.055 214.427 131.975 214.217 131.045 213.827C130.115 213.437 129.335 212.867 128.705 212.117C128.075 211.397 127.625 210.527 127.325 209.477C126.995 208.457 126.845 207.317 126.845 206.057C126.845 204.797 126.995 203.657 127.325 202.637C127.625 201.647 128.075 200.777 128.705 200.057C129.335 199.337 130.115 198.767 131.045 198.377C131.975 197.987 133.055 197.807 134.285 197.807C135.515 197.807 136.625 197.987 137.555 198.377C138.485 198.767 139.235 199.337 139.865 200.057C140.495 200.777 140.945 201.647 141.275 202.637C141.575 203.657 141.725 204.797 141.725 206.057C141.725 207.317 141.575 208.457 141.275 209.477C140.945 210.527 140.495 211.397 139.865 212.117C139.235 212.867 138.485 213.437 137.555 213.827C136.625 214.217 135.515 214.427 134.285 214.427ZM144.203 198.257H148.883L150.683 206.297C150.833 206.957 151.013 207.617 151.163 208.247C151.313 208.877 151.493 209.567 151.643 210.257H151.883C152.063 209.567 152.243 208.877 152.453 208.247C152.633 207.617 152.813 206.957 152.963 206.297L154.883 198.257H159.323L154.283 213.857C153.893 215.027 153.473 215.987 152.993 216.737C152.483 217.487 151.943 218.057 151.373 218.477C150.803 218.927 150.173 219.227 149.513 219.377C148.853 219.527 148.163 219.617 147.443 219.617C146.963 219.617 146.453 219.587 145.943 219.557C145.403 219.527 144.893 219.467 144.443 219.377V216.017C144.803 216.107 145.193 216.167 145.613 216.197C146.003 216.227 146.393 216.257 146.723 216.257C147.473 216.257 148.043 216.077 148.433 215.747C148.793 215.417 149.033 214.817 149.123 213.977L144.203 198.257ZM179.309 209.897C179.309 208.007 180.089 206.657 181.619 205.817C183.149 204.977 185.459 204.467 188.549 204.317V203.267C188.549 202.397 188.369 201.737 187.979 201.347C187.589 200.957 187.049 200.747 186.359 200.747C185.939 200.747 185.579 200.807 185.279 200.957C184.979 201.107 184.739 201.317 184.559 201.557C184.349 201.827 184.229 202.097 184.139 202.397C184.049 202.727 183.989 203.027 183.989 203.357H179.909C179.999 201.647 180.599 200.267 181.709 199.277C182.819 198.287 184.439 197.807 186.629 197.807C190.709 197.807 192.749 199.607 192.749 203.237V209.057C192.749 210.047 192.779 210.977 192.809 211.817C192.839 212.657 192.959 213.377 193.109 213.977H189.269C189.209 213.617 189.149 213.287 189.119 212.957C189.059 212.657 189.029 212.357 189.029 212.057C188.459 212.777 187.799 213.347 187.109 213.737C186.419 214.127 185.489 214.337 184.349 214.337C182.789 214.337 181.559 213.947 180.659 213.197C179.759 212.447 179.309 211.337 179.309 209.897ZM185.669 211.457C186.569 211.457 187.289 211.157 187.799 210.527C188.309 209.927 188.549 208.997 188.549 207.737V207.017C187.499 207.077 186.659 207.167 186.029 207.317C185.399 207.467 184.889 207.647 184.529 207.857C184.169 208.067 183.929 208.337 183.809 208.637C183.689 208.937 183.629 209.267 183.629 209.627C183.629 210.137 183.839 210.587 184.229 210.917C184.619 211.277 185.099 211.457 185.669 211.457ZM204.078 201.017C203.148 201.017 202.458 201.377 202.008 202.097C201.558 202.817 201.318 204.017 201.318 205.697V213.977H197.118V198.257H200.958V200.297C201.378 199.517 202.038 198.917 202.908 198.527C203.778 198.137 204.678 197.927 205.638 197.927C206.718 197.927 207.588 198.107 208.248 198.467C208.908 198.827 209.418 199.307 209.778 199.937C210.138 200.567 210.378 201.317 210.498 202.187C210.618 203.057 210.678 203.987 210.678 204.977V213.977H206.478V205.097C206.478 204.527 206.448 204.017 206.388 203.507C206.328 202.997 206.208 202.577 206.028 202.187C205.848 201.827 205.608 201.527 205.308 201.317C204.978 201.107 204.588 201.017 204.078 201.017ZM213.756 198.257H218.436L220.236 206.297C220.386 206.957 220.566 207.617 220.716 208.247C220.866 208.877 221.046 209.567 221.196 210.257H221.436C221.616 209.567 221.796 208.877 222.006 208.247C222.186 207.617 222.366 206.957 222.516 206.297L224.436 198.257H228.876L223.836 213.857C223.446 215.027 223.026 215.987 222.546 216.737C222.036 217.487 221.496 218.057 220.926 218.477C220.356 218.927 219.726 219.227 219.066 219.377C218.406 219.527 217.716 219.617 216.996 219.617C216.516 219.617 216.006 219.587 215.496 219.557C214.956 219.527 214.446 219.467 213.996 219.377V216.017C214.356 216.107 214.746 216.167 215.166 216.197C215.556 216.227 215.946 216.257 216.276 216.257C217.026 216.257 217.596 216.077 217.986 215.747C218.346 215.417 218.586 214.817 218.676 213.977L213.756 198.257ZM238.494 203.867C238.464 204.407 238.374 205.007 238.284 205.637C238.194 206.267 238.104 206.837 238.014 207.347L236.814 213.977H232.254L229.974 198.257H233.394L234.504 207.347C234.564 207.857 234.624 208.367 234.714 208.877C234.774 209.387 234.834 209.927 234.864 210.467H235.104C235.134 209.927 235.194 209.387 235.254 208.877C235.284 208.367 235.374 207.857 235.464 207.347L237.174 198.257H240.354L242.064 207.347C242.154 207.857 242.244 208.367 242.304 208.877C242.334 209.387 242.394 209.927 242.424 210.467H242.664C242.694 209.927 242.754 209.387 242.844 208.877C242.904 208.367 242.964 207.857 243.024 207.347L244.134 198.257H247.254L244.974 213.977H240.414L239.214 207.347C239.124 206.837 239.034 206.267 238.944 205.637C238.854 205.007 238.764 204.407 238.734 203.867H238.494ZM253.483 199.937C253.633 199.637 253.843 199.367 254.143 199.097C254.443 198.857 254.773 198.647 255.163 198.467C255.553 198.317 255.973 198.167 256.423 198.077C256.873 197.987 257.323 197.927 257.803 197.927C258.883 197.927 259.753 198.107 260.413 198.467C261.073 198.827 261.583 199.307 261.943 199.937C262.303 200.567 262.543 201.317 262.663 202.187C262.783 203.057 262.843 203.987 262.843 204.977V213.977H258.643V205.097C258.643 204.527 258.613 204.017 258.553 203.507C258.493 202.997 258.373 202.577 258.193 202.187C258.013 201.827 257.773 201.527 257.473 201.317C257.143 201.107 256.753 201.017 256.243 201.017C255.313 201.017 254.623 201.377 254.173 202.067C253.723 202.757 253.483 203.897 253.483 205.457V213.977H249.283V192.257H253.483V199.937ZM270.301 207.137C270.391 208.487 270.751 209.507 271.321 210.227C271.891 210.947 272.641 211.307 273.571 211.307C274.261 211.307 274.831 211.127 275.251 210.737C275.671 210.347 275.971 209.837 276.151 209.177H280.501C280.051 210.947 279.271 212.267 278.161 213.137C277.051 214.007 275.521 214.427 273.571 214.427C268.621 214.427 266.161 211.667 266.161 206.177C266.161 204.917 266.311 203.777 266.641 202.727C266.941 201.707 267.391 200.837 268.021 200.087C268.621 199.367 269.401 198.797 270.331 198.407C271.261 198.017 272.341 197.807 273.571 197.807C274.801 197.807 275.881 197.987 276.781 198.377C277.651 198.767 278.401 199.337 278.971 200.057C279.541 200.807 279.961 201.677 280.231 202.727C280.501 203.777 280.621 204.977 280.621 206.297V207.137H270.301ZM273.571 200.807C272.761 200.807 272.071 201.077 271.561 201.617C271.021 202.187 270.631 203.027 270.421 204.137H276.481C276.391 202.997 276.091 202.157 275.581 201.617C275.071 201.077 274.381 200.807 273.571 200.807ZM294.829 204.017C294.769 203.147 294.559 202.427 294.169 201.857C293.779 201.317 293.179 201.047 292.339 201.047C291.379 201.047 290.659 201.437 290.149 202.217C289.639 203.027 289.369 204.257 289.369 205.967V213.977H285.169V198.257H289.009V200.177C290.119 198.677 291.589 197.927 293.449 197.927C294.379 197.927 295.159 198.077 295.789 198.347C296.419 198.647 296.899 199.067 297.289 199.577C297.679 200.087 297.949 200.747 298.129 201.497C298.279 202.247 298.399 203.087 298.429 204.017H294.829ZM305.077 207.137C305.167 208.487 305.527 209.507 306.097 210.227C306.667 210.947 307.417 211.307 308.347 211.307C309.037 211.307 309.607 211.127 310.027 210.737C310.447 210.347 310.747 209.837 310.927 209.177H315.277C314.827 210.947 314.047 212.267 312.937 213.137C311.827 214.007 310.297 214.427 308.347 214.427C303.397 214.427 300.937 211.667 300.937 206.177C300.937 204.917 301.087 203.777 301.417 202.727C301.717 201.707 302.167 200.837 302.797 200.087C303.397 199.367 304.177 198.797 305.107 198.407C306.037 198.017 307.117 197.807 308.347 197.807C309.577 197.807 310.657 197.987 311.557 198.377C312.427 198.767 313.177 199.337 313.747 200.057C314.317 200.807 314.737 201.677 315.007 202.727C315.277 203.777 315.397 204.977 315.397 206.297V207.137H305.077ZM308.347 200.807C307.537 200.807 306.847 201.077 306.337 201.617C305.797 202.187 305.407 203.027 305.197 204.137H311.257C311.167 202.997 310.867 202.157 310.357 201.617C309.847 201.077 309.157 200.807 308.347 200.807Z" fill="white"/>
<path d="M561.626 525.939C562.556 525.939 563.276 525.579 563.726 524.859C564.176 524.139 564.386 522.939 564.386 521.259V512.979H568.586V528.699H564.746V526.659C564.326 527.439 563.696 528.039 562.826 528.429C561.956 528.819 561.026 529.029 560.066 529.029C558.986 529.029 558.116 528.849 557.456 528.489C556.796 528.129 556.286 527.619 555.926 526.989C555.566 526.359 555.326 525.639 555.206 524.769C555.086 523.899 555.026 522.969 555.026 521.979V512.979H559.226V521.859C559.226 522.429 559.256 522.969 559.316 523.449C559.376 523.959 559.496 524.379 559.676 524.739C559.856 525.129 560.096 525.399 560.426 525.609C560.726 525.819 561.116 525.939 561.626 525.939ZM580.124 515.739C579.194 515.739 578.504 516.099 578.054 516.819C577.604 517.539 577.364 518.739 577.364 520.419V528.699H573.164V512.979H577.004V515.019C577.424 514.239 578.084 513.639 578.954 513.249C579.824 512.859 580.724 512.649 581.684 512.649C582.764 512.649 583.634 512.829 584.294 513.189C584.954 513.549 585.464 514.029 585.824 514.659C586.184 515.289 586.424 516.039 586.544 516.909C586.664 517.779 586.724 518.709 586.724 519.699V528.699H582.524V519.819C582.524 519.249 582.494 518.739 582.434 518.229C582.374 517.719 582.254 517.299 582.074 516.909C581.894 516.549 581.654 516.249 581.354 516.039C581.024 515.829 580.634 515.739 580.124 515.739ZM591.812 513.669H600.692V525.579H605.252V528.699H591.812V525.579H596.492V516.789H591.812V513.669ZM596.132 506.979H601.052V511.059H596.132V506.979ZM609.35 513.669V512.379C609.35 511.239 609.5 510.309 609.83 509.559C610.13 508.839 610.55 508.269 611.09 507.819C611.6 507.399 612.23 507.099 612.92 506.949C613.61 506.799 614.36 506.709 615.11 506.709C615.47 506.709 615.83 506.709 616.19 506.739C616.55 506.769 616.91 506.829 617.27 506.859V510.339C617 510.309 616.76 510.279 616.49 510.249C616.22 510.219 615.98 510.219 615.71 510.219C615.11 510.219 614.6 510.369 614.18 510.639C613.76 510.909 613.55 511.509 613.55 512.379V513.669H617.03V516.789H613.55V528.699H609.35V516.789H606.83V513.669H609.35ZM619.34 513.669H623.54V528.699H619.34V513.669ZM618.98 506.979H623.9V511.059H618.98V506.979ZM630.759 521.859C630.849 523.209 631.209 524.229 631.779 524.949C632.349 525.669 633.099 526.029 634.029 526.029C634.719 526.029 635.289 525.849 635.709 525.459C636.129 525.069 636.429 524.559 636.609 523.899H640.959C640.509 525.669 639.729 526.989 638.619 527.859C637.509 528.729 635.979 529.149 634.029 529.149C629.079 529.149 626.619 526.389 626.619 520.899C626.619 519.639 626.769 518.499 627.099 517.449C627.399 516.429 627.849 515.559 628.479 514.809C629.079 514.089 629.859 513.519 630.789 513.129C631.719 512.739 632.799 512.529 634.029 512.529C635.259 512.529 636.339 512.709 637.239 513.099C638.109 513.489 638.859 514.059 639.429 514.779C639.999 515.529 640.419 516.399 640.689 517.449C640.959 518.499 641.079 519.699 641.079 521.019V521.859H630.759ZM634.029 515.529C633.219 515.529 632.529 515.799 632.019 516.339C631.479 516.909 631.089 517.749 630.879 518.859H636.939C636.849 517.719 636.549 516.879 636.039 516.339C635.529 515.799 634.839 515.529 634.029 515.529ZM654.897 528.699V526.749C654.357 527.559 653.697 528.129 652.887 528.489C652.077 528.849 651.207 529.029 650.337 529.029C649.407 529.029 648.567 528.879 647.817 528.579C647.037 528.279 646.377 527.799 645.837 527.139C645.267 526.479 644.847 525.639 644.547 524.589C644.247 523.539 644.097 522.279 644.097 520.779C644.097 518.169 644.667 516.159 645.807 514.749C646.917 513.339 648.447 512.649 650.337 512.649C651.237 512.649 652.017 512.799 652.707 513.099C653.397 513.429 653.997 513.939 654.537 514.659V506.979H658.737V528.699H654.897ZM651.537 525.909C652.497 525.909 653.247 525.459 653.817 524.529C654.387 523.629 654.657 522.369 654.657 520.779C654.657 519.069 654.387 517.809 653.817 516.999C653.247 516.189 652.497 515.769 651.537 515.769C650.547 515.769 649.797 516.219 649.257 517.119C648.687 518.019 648.417 519.249 648.417 520.779C648.417 522.549 648.687 523.839 649.257 524.649C649.827 525.489 650.577 525.909 651.537 525.909Z" fill="#FF2A00"/>
<path d="M472.314 548.529C473.424 548.529 474.384 548.679 475.254 548.979C476.094 549.309 476.814 549.729 477.414 550.269C478.014 550.839 478.494 551.499 478.824 552.249C479.154 553.029 479.334 553.869 479.394 554.769H475.074C474.954 553.839 474.654 553.119 474.174 552.579C473.694 552.039 473.064 551.769 472.314 551.769C471.264 551.769 470.484 552.219 469.974 553.089C469.464 553.959 469.194 555.189 469.194 556.779C469.194 558.369 469.464 559.599 469.974 560.529C470.484 561.459 471.264 561.939 472.314 561.939C473.124 561.939 473.754 561.639 474.204 561.039C474.654 560.469 474.954 559.719 475.074 558.819H479.274C479.214 559.749 479.034 560.619 478.704 561.369C478.374 562.149 477.954 562.809 477.384 563.379C476.814 563.949 476.094 564.399 475.254 564.699C474.384 565.029 473.424 565.179 472.314 565.179C471.054 565.179 469.944 564.969 469.014 564.579C468.054 564.189 467.274 563.619 466.644 562.869C466.014 562.149 465.534 561.279 465.234 560.229C464.904 559.179 464.754 558.039 464.754 556.779C464.754 554.229 465.384 552.219 466.644 550.749C467.904 549.279 469.794 548.529 472.314 548.529ZM493.992 554.739C493.932 553.869 493.722 553.149 493.332 552.579C492.942 552.039 492.342 551.769 491.502 551.769C490.542 551.769 489.822 552.159 489.312 552.939C488.802 553.749 488.532 554.979 488.532 556.689V564.699H484.332V548.979H488.172V550.899C489.282 549.399 490.752 548.649 492.612 548.649C493.542 548.649 494.322 548.799 494.952 549.069C495.582 549.369 496.062 549.789 496.452 550.299C496.842 550.809 497.112 551.469 497.292 552.219C497.442 552.969 497.562 553.809 497.592 554.739H493.992ZM507.931 561.909C508.921 561.909 509.671 561.459 510.181 560.529C510.691 559.599 510.931 558.369 510.931 556.779C510.931 555.219 510.691 553.989 510.181 553.089C509.671 552.219 508.921 551.769 507.931 551.769C506.941 551.769 506.191 552.219 505.681 553.089C505.171 553.989 504.931 555.219 504.931 556.779C504.931 558.369 505.171 559.599 505.681 560.529C506.191 561.459 506.941 561.909 507.931 561.909ZM507.931 565.149C506.701 565.149 505.621 564.939 504.691 564.549C503.761 564.159 502.981 563.589 502.351 562.839C501.721 562.119 501.271 561.249 500.971 560.199C500.641 559.179 500.491 558.039 500.491 556.779C500.491 555.519 500.641 554.379 500.971 553.359C501.271 552.369 501.721 551.499 502.351 550.779C502.981 550.059 503.761 549.489 504.691 549.099C505.621 548.709 506.701 548.529 507.931 548.529C509.161 548.529 510.271 548.709 511.201 549.099C512.131 549.489 512.881 550.059 513.511 550.779C514.141 551.499 514.591 552.369 514.921 553.359C515.221 554.379 515.371 555.519 515.371 556.779C515.371 558.039 515.221 559.179 514.921 560.199C514.591 561.249 514.141 562.119 513.511 562.839C512.881 563.589 512.131 564.159 511.201 564.549C510.271 564.939 509.161 565.149 507.931 565.149ZM519.079 553.449C519.079 551.919 519.679 550.719 520.879 549.849C522.049 548.979 523.699 548.529 525.829 548.529C528.019 548.529 529.699 548.979 530.899 549.879C532.099 550.779 532.699 552.129 532.699 553.929H528.319C528.289 553.029 528.049 552.399 527.659 552.039C527.269 551.709 526.639 551.529 525.829 551.529C525.139 551.529 524.599 551.679 524.209 551.949C523.789 552.249 523.579 552.639 523.579 553.089C523.579 553.599 523.819 553.989 524.299 554.259C524.749 554.529 525.349 554.769 526.039 554.949C526.729 555.159 527.509 555.339 528.319 555.519C529.129 555.729 529.909 555.969 530.599 556.299C531.289 556.629 531.889 557.079 532.369 557.649C532.819 558.219 533.059 558.969 533.059 559.899C533.059 561.519 532.429 562.809 531.169 563.739C529.909 564.669 528.169 565.149 525.949 565.149C523.639 565.149 521.869 564.669 520.639 563.739C519.409 562.809 518.749 561.369 518.719 559.419H523.219C523.219 560.379 523.459 561.069 523.909 561.489C524.359 561.939 525.049 562.149 525.949 562.149C526.669 562.149 527.269 561.999 527.749 561.669C528.199 561.369 528.439 560.949 528.439 560.379C528.439 559.869 528.199 559.479 527.749 559.209C527.299 558.939 526.699 558.729 526.009 558.549C525.319 558.369 524.569 558.189 523.759 557.979C522.949 557.799 522.199 557.529 521.509 557.169C520.819 556.839 520.219 556.359 519.769 555.789C519.319 555.219 519.079 554.439 519.079 553.449ZM537.067 553.449C537.067 551.919 537.667 550.719 538.867 549.849C540.037 548.979 541.687 548.529 543.817 548.529C546.007 548.529 547.687 548.979 548.887 549.879C550.087 550.779 550.687 552.129 550.687 553.929H546.307C546.277 553.029 546.037 552.399 545.647 552.039C545.257 551.709 544.627 551.529 543.817 551.529C543.127 551.529 542.587 551.679 542.197 551.949C541.777 552.249 541.567 552.639 541.567 553.089C541.567 553.599 541.807 553.989 542.287 554.259C542.737 554.529 543.337 554.769 544.027 554.949C544.717 555.159 545.497 555.339 546.307 555.519C547.117 555.729 547.897 555.969 548.587 556.299C549.277 556.629 549.877 557.079 550.357 557.649C550.807 558.219 551.047 558.969 551.047 559.899C551.047 561.519 550.417 562.809 549.157 563.739C547.897 564.669 546.157 565.149 543.937 565.149C541.627 565.149 539.857 564.669 538.627 563.739C537.397 562.809 536.737 561.369 536.707 559.419H541.207C541.207 560.379 541.447 561.069 541.897 561.489C542.347 561.939 543.037 562.149 543.937 562.149C544.657 562.149 545.257 561.999 545.737 561.669C546.187 561.369 546.427 560.949 546.427 560.379C546.427 559.869 546.187 559.479 545.737 559.209C545.287 558.939 544.687 558.729 543.997 558.549C543.307 558.369 542.557 558.189 541.747 557.979C540.937 557.799 540.187 557.529 539.497 557.169C538.807 556.839 538.207 556.359 537.757 555.789C537.307 555.219 537.067 554.439 537.067 553.449ZM557.456 558.099V554.259H566.336V558.099H557.456ZM580.244 548.529C581.354 548.529 582.314 548.679 583.184 548.979C584.024 549.309 584.744 549.729 585.344 550.269C585.944 550.839 586.424 551.499 586.754 552.249C587.084 553.029 587.264 553.869 587.324 554.769H583.004C582.884 553.839 582.584 553.119 582.104 552.579C581.624 552.039 580.994 551.769 580.244 551.769C579.194 551.769 578.414 552.219 577.904 553.089C577.394 553.959 577.124 555.189 577.124 556.779C577.124 558.369 577.394 559.599 577.904 560.529C578.414 561.459 579.194 561.939 580.244 561.939C581.054 561.939 581.684 561.639 582.134 561.039C582.584 560.469 582.884 559.719 583.004 558.819H587.204C587.144 559.749 586.964 560.619 586.634 561.369C586.304 562.149 585.884 562.809 585.314 563.379C584.744 563.949 584.024 564.399 583.184 564.699C582.314 565.029 581.354 565.179 580.244 565.179C578.984 565.179 577.874 564.969 576.944 564.579C575.984 564.189 575.204 563.619 574.574 562.869C573.944 562.149 573.464 561.279 573.164 560.229C572.834 559.179 572.684 558.039 572.684 556.779C572.684 554.229 573.314 552.219 574.574 550.749C575.834 549.279 577.724 548.529 580.244 548.529ZM595.352 550.659C595.502 550.359 595.712 550.089 596.012 549.819C596.312 549.579 596.642 549.369 597.032 549.189C597.422 549.039 597.842 548.889 598.292 548.799C598.742 548.709 599.192 548.649 599.672 548.649C600.752 548.649 601.622 548.829 602.282 549.189C602.942 549.549 603.452 550.029 603.812 550.659C604.172 551.289 604.412 552.039 604.532 552.909C604.652 553.779 604.712 554.709 604.712 555.699V564.699H600.512V555.819C600.512 555.249 600.482 554.739 600.422 554.229C600.362 553.719 600.242 553.299 600.062 552.909C599.882 552.549 599.642 552.249 599.342 552.039C599.012 551.829 598.622 551.739 598.112 551.739C597.182 551.739 596.492 552.099 596.042 552.789C595.592 553.479 595.352 554.619 595.352 556.179V564.699H591.152V542.979H595.352V550.659ZM608.72 560.619C608.72 558.729 609.5 557.379 611.03 556.539C612.56 555.699 614.87 555.189 617.96 555.039V553.989C617.96 553.119 617.78 552.459 617.39 552.069C617 551.679 616.46 551.469 615.77 551.469C615.35 551.469 614.99 551.529 614.69 551.679C614.39 551.829 614.15 552.039 613.97 552.279C613.76 552.549 613.64 552.819 613.55 553.119C613.46 553.449 613.4 553.749 613.4 554.079H609.32C609.41 552.369 610.01 550.989 611.12 549.999C612.23 549.009 613.85 548.529 616.04 548.529C620.12 548.529 622.16 550.329 622.16 553.959V559.779C622.16 560.769 622.19 561.699 622.22 562.539C622.25 563.379 622.37 564.099 622.52 564.699H618.68C618.62 564.339 618.56 564.009 618.53 563.679C618.47 563.379 618.44 563.079 618.44 562.779C617.87 563.499 617.21 564.069 616.52 564.459C615.83 564.849 614.9 565.059 613.76 565.059C612.2 565.059 610.97 564.669 610.07 563.919C609.17 563.169 608.72 562.059 608.72 560.619ZM615.08 562.179C615.98 562.179 616.7 561.879 617.21 561.249C617.72 560.649 617.96 559.719 617.96 558.459V557.739C616.91 557.799 616.07 557.889 615.44 558.039C614.81 558.189 614.3 558.369 613.94 558.579C613.58 558.789 613.34 559.059 613.22 559.359C613.1 559.659 613.04 559.989 613.04 560.349C613.04 560.859 613.25 561.309 613.64 561.639C614.03 561.999 614.51 562.179 615.08 562.179ZM627.789 549.669H636.669V561.579H641.229V564.699H627.789V561.579H632.469V552.789H627.789V549.669ZM632.109 542.979H637.029V547.059H632.109V542.979ZM652.077 551.739C651.147 551.739 650.457 552.099 650.007 552.819C649.557 553.539 649.317 554.739 649.317 556.419V564.699H645.117V548.979H648.957V551.019C649.377 550.239 650.037 549.639 650.907 549.249C651.777 548.859 652.677 548.649 653.637 548.649C654.717 548.649 655.587 548.829 656.247 549.189C656.907 549.549 657.417 550.029 657.777 550.659C658.137 551.289 658.377 552.039 658.497 552.909C658.617 553.779 658.677 554.709 658.677 555.699V564.699H654.477V555.819C654.477 555.249 654.447 554.739 654.387 554.229C654.327 553.719 654.207 553.299 654.027 552.909C653.847 552.549 653.607 552.249 653.307 552.039C652.977 551.829 652.587 551.739 652.077 551.739ZM583.784 589.779C583.784 587.469 583.364 585.669 582.524 584.439C581.654 583.209 580.244 582.579 578.264 582.579H576.824V596.979H578.264C580.154 596.979 581.534 596.409 582.434 595.299C583.334 594.189 583.784 592.359 583.784 589.779ZM588.344 589.659C588.344 591.759 588.104 593.499 587.654 594.909C587.174 596.319 586.484 597.459 585.614 598.329C584.744 599.199 583.664 599.799 582.374 600.159C581.084 600.519 579.644 600.699 578.024 600.699H572.384V578.979H578.144C579.524 578.979 580.844 579.129 582.074 579.459C583.304 579.789 584.384 580.329 585.314 581.139C586.244 581.949 586.964 583.059 587.534 584.409C588.074 585.789 588.344 587.529 588.344 589.659ZM594.782 593.859C594.872 595.209 595.232 596.229 595.802 596.949C596.372 597.669 597.122 598.029 598.052 598.029C598.742 598.029 599.312 597.849 599.732 597.459C600.152 597.069 600.452 596.559 600.632 595.899H604.982C604.532 597.669 603.752 598.989 602.642 599.859C601.532 600.729 600.002 601.149 598.052 601.149C593.102 601.149 590.642 598.389 590.642 592.899C590.642 591.639 590.792 590.499 591.122 589.449C591.422 588.429 591.872 587.559 592.502 586.809C593.102 586.089 593.882 585.519 594.812 585.129C595.742 584.739 596.822 584.529 598.052 584.529C599.282 584.529 600.362 584.709 601.262 585.099C602.132 585.489 602.882 586.059 603.452 586.779C604.022 587.529 604.442 588.399 604.712 589.449C604.982 590.499 605.102 591.699 605.102 593.019V593.859H594.782ZM598.052 587.529C597.242 587.529 596.552 587.799 596.042 588.339C595.502 588.909 595.112 589.749 594.902 590.859H600.962C600.872 589.719 600.572 588.879 600.062 588.339C599.552 587.799 598.862 587.529 598.052 587.529ZM608.36 584.979H613.04L614.84 593.019C614.99 593.679 615.17 594.339 615.32 594.969C615.47 595.599 615.65 596.289 615.8 596.979H616.04C616.22 596.289 616.4 595.599 616.61 594.969C616.79 594.339 616.97 593.679 617.12 593.019L619.04 584.979H623.48L618.44 600.699H613.16L608.36 584.979ZM627.579 578.979H640.599V582.579H632.019V587.859H640.119V591.459H632.019V596.979H641.079V600.699H627.579V578.979ZM654.057 592.599L659.757 600.699H655.077L651.657 595.869L648.117 600.699H643.917L649.617 592.929L644.037 584.979H648.717L651.987 589.659L655.437 584.979H659.637L654.057 592.599Z" fill="white"/>
</svg>
