<svg width="709" height="654" viewBox="0 0 709 654" fill="none" xmlns="http://www.w3.org/2000/svg">
<rect x="1.5" y="171.217" width="530" height="142.61" rx="71.3048" fill="white" stroke="black" stroke-width="3"/>
<path d="M58.8418 234.646V230.777L68.4395 227.004L58.8418 223.271V219.43L72.5957 225.377V228.658L58.8418 234.646ZM101.856 234.004C101.38 234.732 100.764 235.264 100.036 235.6C99.3076 235.964 98.5236 236.132 97.7116 236.132C96.8436 236.132 96.0596 235.992 95.3596 235.74C94.6316 235.488 94.0156 235.068 93.5116 234.48C92.9796 233.892 92.5876 233.164 92.3076 232.24C92.0276 231.344 91.8876 230.252 91.8876 228.964C91.8876 227.872 92.0276 226.864 92.3076 225.996C92.5876 225.128 92.9796 224.4 93.4836 223.784C93.9876 223.196 94.6036 222.72 95.3316 222.412C96.0316 222.104 96.8436 221.936 97.7116 221.936C98.4676 221.936 99.2236 222.076 99.9516 222.384C100.68 222.692 101.268 223.168 101.744 223.812V222.244H105.552V235.236C105.552 236.608 105.356 237.756 104.992 238.652C104.628 239.548 104.124 240.248 103.508 240.78C102.892 241.312 102.192 241.676 101.38 241.872C100.568 242.068 99.6996 242.18 98.8316 242.18C96.8996 242.18 95.3876 241.76 94.2956 240.948C93.1756 240.136 92.5316 238.932 92.3916 237.364H96.4796C96.5076 237.98 96.7596 238.484 97.2076 238.848C97.6556 239.24 98.2436 239.436 98.9436 239.436C100.876 239.436 101.856 238.148 101.856 235.572V234.004ZM98.8316 233.22C99.7276 233.22 100.428 232.856 100.96 232.1C101.492 231.344 101.744 230.308 101.744 228.964C101.744 227.592 101.492 226.556 100.96 225.856C100.428 225.184 99.7276 224.848 98.8316 224.848C97.9076 224.848 97.2076 225.212 96.7036 225.94C96.1716 226.668 95.9196 227.676 95.9196 228.964C95.9196 230.392 96.1716 231.456 96.7036 232.156C97.2356 232.856 97.9356 233.22 98.8316 233.22ZM119.653 227.62C119.597 226.808 119.401 226.136 119.037 225.604C118.673 225.1 118.113 224.848 117.329 224.848C116.433 224.848 115.761 225.212 115.285 225.94C114.809 226.696 114.557 227.844 114.557 229.44V236.916H110.637V222.244H114.221V224.036C115.257 222.636 116.629 221.936 118.365 221.936C119.233 221.936 119.961 222.076 120.549 222.328C121.137 222.608 121.585 223 121.949 223.476C122.313 223.952 122.565 224.568 122.733 225.268C122.873 225.968 122.985 226.752 123.013 227.62H119.653ZM125.998 233.108C125.998 231.344 126.726 230.084 128.154 229.3C129.582 228.516 131.738 228.04 134.622 227.9V226.92C134.622 226.108 134.454 225.492 134.09 225.128C133.726 224.764 133.222 224.568 132.578 224.568C132.186 224.568 131.85 224.624 131.57 224.764C131.29 224.904 131.066 225.1 130.898 225.324C130.702 225.576 130.59 225.828 130.506 226.108C130.422 226.416 130.366 226.696 130.366 227.004H126.558C126.642 225.408 127.202 224.12 128.238 223.196C129.274 222.272 130.786 221.824 132.83 221.824C136.638 221.824 138.542 223.504 138.542 226.892V232.324C138.542 233.248 138.57 234.116 138.598 234.9C138.626 235.684 138.738 236.356 138.878 236.916H135.294C135.238 236.58 135.182 236.272 135.154 235.964C135.098 235.684 135.07 235.404 135.07 235.124C134.538 235.796 133.922 236.328 133.278 236.692C132.634 237.056 131.766 237.252 130.702 237.252C129.246 237.252 128.098 236.888 127.258 236.188C126.418 235.488 125.998 234.452 125.998 233.108ZM131.934 234.564C132.774 234.564 133.446 234.284 133.922 233.696C134.398 233.136 134.622 232.268 134.622 231.092V230.42C133.642 230.476 132.858 230.56 132.27 230.7C131.682 230.84 131.206 231.008 130.87 231.204C130.534 231.4 130.31 231.652 130.198 231.932C130.086 232.212 130.03 232.52 130.03 232.856C130.03 233.332 130.226 233.752 130.59 234.06C130.954 234.396 131.402 234.564 131.934 234.564ZM149.675 224.82C148.807 224.82 148.163 225.156 147.743 225.828C147.323 226.5 147.099 227.62 147.099 229.188V236.916H143.179V222.244H146.763V224.148C147.155 223.42 147.771 222.86 148.583 222.496C149.395 222.132 150.235 221.936 151.131 221.936C152.139 221.936 152.951 222.104 153.567 222.44C154.183 222.776 154.659 223.224 154.995 223.812C155.331 224.4 155.555 225.1 155.667 225.912C155.779 226.724 155.835 227.592 155.835 228.516V236.916H151.915V228.628C151.915 228.096 151.887 227.62 151.831 227.144C151.775 226.668 151.663 226.276 151.495 225.912C151.327 225.576 151.103 225.296 150.823 225.1C150.515 224.904 150.151 224.82 149.675 224.82ZM165.988 234.34C166.856 234.34 167.528 234.004 167.948 233.332C168.368 232.66 168.564 231.54 168.564 229.972V222.244H172.484V236.916H168.9V235.012C168.508 235.74 167.92 236.3 167.108 236.664C166.296 237.028 165.428 237.224 164.532 237.224C163.524 237.224 162.712 237.056 162.096 236.72C161.48 236.384 161.004 235.908 160.668 235.32C160.332 234.732 160.108 234.06 159.996 233.248C159.884 232.436 159.828 231.568 159.828 230.644V222.244H163.748V230.532C163.748 231.064 163.776 231.568 163.832 232.016C163.888 232.492 164 232.884 164.168 233.22C164.336 233.584 164.56 233.836 164.868 234.032C165.148 234.228 165.512 234.34 165.988 234.34ZM177.373 216.644H185.325V234.004H189.357V236.916H177.261V234.004H181.405V219.556H177.373V216.644ZM193.154 233.108C193.154 231.344 193.882 230.084 195.31 229.3C196.738 228.516 198.894 228.04 201.778 227.9V226.92C201.778 226.108 201.61 225.492 201.246 225.128C200.882 224.764 200.378 224.568 199.734 224.568C199.342 224.568 199.006 224.624 198.726 224.764C198.446 224.904 198.222 225.1 198.054 225.324C197.858 225.576 197.746 225.828 197.662 226.108C197.578 226.416 197.522 226.696 197.522 227.004H193.714C193.798 225.408 194.358 224.12 195.394 223.196C196.43 222.272 197.942 221.824 199.986 221.824C203.794 221.824 205.698 223.504 205.698 226.892V232.324C205.698 233.248 205.726 234.116 205.754 234.9C205.782 235.684 205.894 236.356 206.034 236.916H202.45C202.394 236.58 202.338 236.272 202.31 235.964C202.254 235.684 202.226 235.404 202.226 235.124C201.694 235.796 201.078 236.328 200.434 236.692C199.79 237.056 198.922 237.252 197.858 237.252C196.402 237.252 195.254 236.888 194.414 236.188C193.574 235.488 193.154 234.452 193.154 233.108ZM199.09 234.564C199.93 234.564 200.602 234.284 201.078 233.696C201.554 233.136 201.778 232.268 201.778 231.092V230.42C200.798 230.476 200.014 230.56 199.426 230.7C198.838 230.84 198.362 231.008 198.026 231.204C197.69 231.4 197.466 231.652 197.354 231.932C197.242 232.212 197.186 232.52 197.186 232.856C197.186 233.332 197.382 233.752 197.746 234.06C198.11 234.396 198.558 234.564 199.09 234.564ZM220.387 227.62C220.331 226.808 220.135 226.136 219.771 225.604C219.407 225.1 218.847 224.848 218.063 224.848C217.167 224.848 216.495 225.212 216.019 225.94C215.543 226.696 215.291 227.844 215.291 229.44V236.916H211.371V222.244H214.955V224.036C215.991 222.636 217.363 221.936 219.099 221.936C219.967 221.936 220.695 222.076 221.283 222.328C221.871 222.608 222.319 223 222.683 223.476C223.047 223.952 223.299 224.568 223.467 225.268C223.607 225.968 223.719 226.752 223.747 227.62H220.387Z" fill="#00CBF3"/>
<path d="M69.723 261.62C69.667 260.808 69.471 260.136 69.107 259.604C68.743 259.1 68.183 258.848 67.399 258.848C66.503 258.848 65.831 259.212 65.355 259.94C64.879 260.696 64.627 261.844 64.627 263.44V270.916H60.707V256.244H64.291V258.036C65.327 256.636 66.699 255.936 68.435 255.936C69.303 255.936 70.031 256.076 70.619 256.328C71.207 256.608 71.655 257 72.019 257.476C72.383 257.952 72.635 258.568 72.803 259.268C72.943 259.968 73.055 260.752 73.083 261.62H69.723ZM79.848 264.532C79.932 265.792 80.268 266.744 80.8 267.416C81.332 268.088 82.032 268.424 82.9 268.424C83.544 268.424 84.076 268.256 84.468 267.892C84.86 267.528 85.14 267.052 85.308 266.436H89.368C88.948 268.088 88.22 269.32 87.184 270.132C86.148 270.944 84.72 271.336 82.9 271.336C78.28 271.336 75.984 268.76 75.984 263.636C75.984 262.46 76.124 261.396 76.432 260.416C76.712 259.464 77.132 258.652 77.72 257.952C78.28 257.28 79.008 256.748 79.876 256.384C80.744 256.02 81.752 255.824 82.9 255.824C84.048 255.824 85.056 255.992 85.896 256.356C86.708 256.72 87.408 257.252 87.94 257.924C88.472 258.624 88.864 259.436 89.116 260.416C89.368 261.396 89.48 262.516 89.48 263.748V264.532H79.848ZM82.9 258.624C82.144 258.624 81.5 258.876 81.024 259.38C80.52 259.912 80.156 260.696 79.96 261.732H85.616C85.532 260.668 85.252 259.884 84.776 259.38C84.3 258.876 83.656 258.624 82.9 258.624ZM93.1371 260.416C93.1371 258.988 93.6971 257.868 94.8171 257.056C95.9091 256.244 97.4491 255.824 99.4371 255.824C101.481 255.824 103.049 256.244 104.169 257.084C105.289 257.924 105.849 259.184 105.849 260.864H101.761C101.733 260.024 101.509 259.436 101.145 259.1C100.781 258.792 100.193 258.624 99.4371 258.624C98.7931 258.624 98.2891 258.764 97.9251 259.016C97.5331 259.296 97.3371 259.66 97.3371 260.08C97.3371 260.556 97.5611 260.92 98.0091 261.172C98.4291 261.424 98.9891 261.648 99.6331 261.816C100.277 262.012 101.005 262.18 101.761 262.348C102.517 262.544 103.245 262.768 103.889 263.076C104.533 263.384 105.093 263.804 105.541 264.336C105.961 264.868 106.185 265.568 106.185 266.436C106.185 267.948 105.597 269.152 104.421 270.02C103.245 270.888 101.621 271.336 99.5491 271.336C97.3931 271.336 95.7411 270.888 94.5931 270.02C93.4451 269.152 92.8291 267.808 92.8011 265.988H97.0011C97.0011 266.884 97.2251 267.528 97.6451 267.92C98.0651 268.34 98.7091 268.536 99.5491 268.536C100.221 268.536 100.781 268.396 101.229 268.088C101.649 267.808 101.873 267.416 101.873 266.884C101.873 266.408 101.649 266.044 101.229 265.792C100.809 265.54 100.249 265.344 99.6051 265.176C98.9611 265.008 98.2611 264.84 97.5051 264.644C96.7491 264.476 96.0491 264.224 95.4051 263.888C94.7611 263.58 94.2011 263.132 93.7811 262.6C93.3611 262.068 93.1371 261.34 93.1371 260.416ZM116.31 268.312C117.234 268.312 117.934 267.892 118.41 267.024C118.886 266.156 119.11 265.008 119.11 263.524C119.11 262.068 118.886 260.92 118.41 260.08C117.934 259.268 117.234 258.848 116.31 258.848C115.386 258.848 114.686 259.268 114.21 260.08C113.734 260.92 113.51 262.068 113.51 263.524C113.51 265.008 113.734 266.156 114.21 267.024C114.686 267.892 115.386 268.312 116.31 268.312ZM116.31 271.336C115.162 271.336 114.154 271.14 113.286 270.776C112.418 270.412 111.69 269.88 111.102 269.18C110.514 268.508 110.094 267.696 109.814 266.716C109.506 265.764 109.366 264.7 109.366 263.524C109.366 262.348 109.506 261.284 109.814 260.332C110.094 259.408 110.514 258.596 111.102 257.924C111.69 257.252 112.418 256.72 113.286 256.356C114.154 255.992 115.162 255.824 116.31 255.824C117.458 255.824 118.494 255.992 119.362 256.356C120.23 256.72 120.93 257.252 121.518 257.924C122.106 258.596 122.526 259.408 122.834 260.332C123.114 261.284 123.254 262.348 123.254 263.524C123.254 264.7 123.114 265.764 122.834 266.716C122.526 267.696 122.106 268.508 121.518 269.18C120.93 269.88 120.23 270.412 119.362 270.776C118.494 271.14 117.458 271.336 116.31 271.336ZM132.847 268.34C133.715 268.34 134.387 268.004 134.807 267.332C135.227 266.66 135.423 265.54 135.423 263.972V256.244H139.343V270.916H135.759V269.012C135.367 269.74 134.779 270.3 133.967 270.664C133.155 271.028 132.287 271.224 131.391 271.224C130.383 271.224 129.571 271.056 128.955 270.72C128.339 270.384 127.863 269.908 127.527 269.32C127.191 268.732 126.967 268.06 126.855 267.248C126.743 266.436 126.687 265.568 126.687 264.644V256.244H130.607V264.532C130.607 265.064 130.635 265.568 130.691 266.016C130.747 266.492 130.859 266.884 131.027 267.22C131.195 267.584 131.419 267.836 131.727 268.032C132.007 268.228 132.371 268.34 132.847 268.34ZM153.668 261.62C153.612 260.808 153.416 260.136 153.052 259.604C152.688 259.1 152.128 258.848 151.344 258.848C150.448 258.848 149.776 259.212 149.3 259.94C148.824 260.696 148.572 261.844 148.572 263.44V270.916H144.652V256.244H148.236V258.036C149.272 256.636 150.644 255.936 152.38 255.936C153.248 255.936 153.976 256.076 154.564 256.328C155.152 256.608 155.6 257 155.964 257.476C156.328 257.952 156.58 258.568 156.748 259.268C156.888 259.968 157 260.752 157.028 261.62H153.668ZM167.013 255.824C168.049 255.824 168.945 255.964 169.757 256.244C170.541 256.552 171.213 256.944 171.773 257.448C172.333 257.98 172.781 258.596 173.089 259.296C173.397 260.024 173.565 260.808 173.621 261.648H169.589C169.477 260.78 169.197 260.108 168.749 259.604C168.301 259.1 167.713 258.848 167.013 258.848C166.033 258.848 165.305 259.268 164.829 260.08C164.353 260.892 164.101 262.04 164.101 263.524C164.101 265.008 164.353 266.156 164.829 267.024C165.305 267.892 166.033 268.34 167.013 268.34C167.769 268.34 168.357 268.06 168.777 267.5C169.197 266.968 169.477 266.268 169.589 265.428H173.509C173.453 266.296 173.285 267.108 172.977 267.808C172.669 268.536 172.277 269.152 171.745 269.684C171.213 270.216 170.541 270.636 169.757 270.916C168.945 271.224 168.049 271.364 167.013 271.364C165.837 271.364 164.801 271.168 163.933 270.804C163.037 270.44 162.309 269.908 161.721 269.208C161.133 268.536 160.685 267.724 160.405 266.744C160.097 265.764 159.957 264.7 159.957 263.524C159.957 261.144 160.545 259.268 161.721 257.896C162.897 256.524 164.661 255.824 167.013 255.824ZM180.582 264.532C180.666 265.792 181.002 266.744 181.534 267.416C182.066 268.088 182.766 268.424 183.634 268.424C184.278 268.424 184.81 268.256 185.202 267.892C185.594 267.528 185.874 267.052 186.042 266.436H190.102C189.682 268.088 188.954 269.32 187.918 270.132C186.882 270.944 185.454 271.336 183.634 271.336C179.014 271.336 176.718 268.76 176.718 263.636C176.718 262.46 176.858 261.396 177.166 260.416C177.446 259.464 177.866 258.652 178.454 257.952C179.014 257.28 179.742 256.748 180.61 256.384C181.478 256.02 182.486 255.824 183.634 255.824C184.782 255.824 185.79 255.992 186.63 256.356C187.442 256.72 188.142 257.252 188.674 257.924C189.206 258.624 189.598 259.436 189.85 260.416C190.102 261.396 190.214 262.516 190.214 263.748V264.532H180.582ZM183.634 258.624C182.878 258.624 182.234 258.876 181.758 259.38C181.254 259.912 180.89 260.696 180.694 261.732H186.35C186.266 260.668 185.986 259.884 185.51 259.38C185.034 258.876 184.39 258.624 183.634 258.624ZM219.901 270.916V269.096C219.397 269.852 218.781 270.384 218.025 270.72C217.269 271.056 216.457 271.224 215.645 271.224C214.777 271.224 213.993 271.084 213.293 270.804C212.565 270.524 211.949 270.076 211.445 269.46C210.913 268.844 210.521 268.06 210.241 267.08C209.961 266.1 209.821 264.924 209.821 263.524C209.821 261.088 210.353 259.212 211.417 257.896C212.453 256.58 213.881 255.936 215.645 255.936C216.485 255.936 217.213 256.076 217.857 256.356C218.501 256.664 219.061 257.14 219.565 257.812V250.644H223.485V270.916H219.901ZM216.765 268.312C217.661 268.312 218.361 267.892 218.893 267.024C219.425 266.184 219.677 265.008 219.677 263.524C219.677 261.928 219.425 260.752 218.893 259.996C218.361 259.24 217.661 258.848 216.765 258.848C215.841 258.848 215.141 259.268 214.637 260.108C214.105 260.948 213.853 262.096 213.853 263.524C213.853 265.176 214.105 266.38 214.637 267.136C215.169 267.92 215.869 268.312 216.765 268.312ZM230.95 264.532C231.034 265.792 231.37 266.744 231.902 267.416C232.434 268.088 233.134 268.424 234.002 268.424C234.646 268.424 235.178 268.256 235.57 267.892C235.962 267.528 236.242 267.052 236.41 266.436H240.47C240.05 268.088 239.322 269.32 238.286 270.132C237.25 270.944 235.822 271.336 234.002 271.336C229.382 271.336 227.086 268.76 227.086 263.636C227.086 262.46 227.226 261.396 227.534 260.416C227.814 259.464 228.234 258.652 228.822 257.952C229.382 257.28 230.11 256.748 230.978 256.384C231.846 256.02 232.854 255.824 234.002 255.824C235.15 255.824 236.158 255.992 236.998 256.356C237.81 256.72 238.51 257.252 239.042 257.924C239.574 258.624 239.966 259.436 240.218 260.416C240.47 261.396 240.582 262.516 240.582 263.748V264.532H230.95ZM234.002 258.624C233.246 258.624 232.602 258.876 232.126 259.38C231.622 259.912 231.258 260.696 231.062 261.732H236.718C236.634 260.668 236.354 259.884 235.878 259.38C235.402 258.876 234.758 258.624 234.002 258.624ZM244.967 250.644H252.919V268.004H256.951V270.916H244.855V268.004H248.999V253.556H244.967V250.644ZM264.528 264.532C264.612 265.792 264.948 266.744 265.48 267.416C266.012 268.088 266.712 268.424 267.58 268.424C268.224 268.424 268.756 268.256 269.148 267.892C269.54 267.528 269.82 267.052 269.988 266.436H274.048C273.628 268.088 272.9 269.32 271.864 270.132C270.828 270.944 269.4 271.336 267.58 271.336C262.96 271.336 260.664 268.76 260.664 263.636C260.664 262.46 260.804 261.396 261.112 260.416C261.392 259.464 261.812 258.652 262.4 257.952C262.96 257.28 263.688 256.748 264.556 256.384C265.424 256.02 266.432 255.824 267.58 255.824C268.728 255.824 269.736 255.992 270.576 256.356C271.388 256.72 272.088 257.252 272.62 257.924C273.152 258.624 273.544 259.436 273.796 260.416C274.048 261.396 274.16 262.516 274.16 263.748V264.532H264.528ZM267.58 258.624C266.824 258.624 266.18 258.876 265.704 259.38C265.2 259.912 264.836 260.696 264.64 261.732H270.296C270.212 260.668 269.932 259.884 269.456 259.38C268.98 258.876 268.336 258.624 267.58 258.624ZM286.973 268.004C286.497 268.732 285.881 269.264 285.153 269.6C284.425 269.964 283.641 270.132 282.829 270.132C281.961 270.132 281.177 269.992 280.477 269.74C279.749 269.488 279.133 269.068 278.629 268.48C278.097 267.892 277.705 267.164 277.425 266.24C277.145 265.344 277.005 264.252 277.005 262.964C277.005 261.872 277.145 260.864 277.425 259.996C277.705 259.128 278.097 258.4 278.601 257.784C279.105 257.196 279.721 256.72 280.449 256.412C281.149 256.104 281.961 255.936 282.829 255.936C283.585 255.936 284.341 256.076 285.069 256.384C285.797 256.692 286.385 257.168 286.861 257.812V256.244H290.669V269.236C290.669 270.608 290.473 271.756 290.109 272.652C289.745 273.548 289.241 274.248 288.625 274.78C288.009 275.312 287.309 275.676 286.497 275.872C285.685 276.068 284.817 276.18 283.949 276.18C282.017 276.18 280.505 275.76 279.413 274.948C278.293 274.136 277.649 272.932 277.509 271.364H281.597C281.625 271.98 281.877 272.484 282.325 272.848C282.773 273.24 283.361 273.436 284.061 273.436C285.993 273.436 286.973 272.148 286.973 269.572V268.004ZM283.949 267.22C284.845 267.22 285.545 266.856 286.077 266.1C286.609 265.344 286.861 264.308 286.861 262.964C286.861 261.592 286.609 260.556 286.077 259.856C285.545 259.184 284.845 258.848 283.949 258.848C283.025 258.848 282.325 259.212 281.821 259.94C281.289 260.668 281.037 261.676 281.037 262.964C281.037 264.392 281.289 265.456 281.821 266.156C282.353 266.856 283.053 267.22 283.949 267.22ZM294.326 267.108C294.326 265.344 295.054 264.084 296.482 263.3C297.91 262.516 300.066 262.04 302.95 261.9V260.92C302.95 260.108 302.782 259.492 302.418 259.128C302.054 258.764 301.55 258.568 300.906 258.568C300.514 258.568 300.178 258.624 299.898 258.764C299.618 258.904 299.394 259.1 299.226 259.324C299.03 259.576 298.918 259.828 298.834 260.108C298.75 260.416 298.694 260.696 298.694 261.004H294.886C294.97 259.408 295.53 258.12 296.566 257.196C297.602 256.272 299.114 255.824 301.158 255.824C304.966 255.824 306.87 257.504 306.87 260.892V266.324C306.87 267.248 306.898 268.116 306.926 268.9C306.954 269.684 307.066 270.356 307.206 270.916H303.622C303.566 270.58 303.51 270.272 303.482 269.964C303.426 269.684 303.398 269.404 303.398 269.124C302.866 269.796 302.25 270.328 301.606 270.692C300.962 271.056 300.094 271.252 299.03 271.252C297.574 271.252 296.426 270.888 295.586 270.188C294.746 269.488 294.326 268.452 294.326 267.108ZM300.262 268.564C301.102 268.564 301.774 268.284 302.25 267.696C302.726 267.136 302.95 266.268 302.95 265.092V264.42C301.97 264.476 301.186 264.56 300.598 264.7C300.01 264.84 299.534 265.008 299.198 265.204C298.862 265.4 298.638 265.652 298.526 265.932C298.414 266.212 298.358 266.52 298.358 266.856C298.358 267.332 298.554 267.752 298.918 268.06C299.282 268.396 299.73 268.564 300.262 268.564ZM315.035 256.888V252.212H318.955V256.888H323.771V259.8H318.955V265.764C318.955 266.184 319.039 266.548 319.207 266.8C319.375 267.08 319.599 267.304 319.879 267.444C320.131 267.612 320.439 267.724 320.803 267.78C321.139 267.864 321.503 267.892 321.867 267.892C322.231 267.892 322.623 267.864 322.987 267.808C323.351 267.78 323.687 267.724 323.995 267.668V270.916C323.491 270.972 322.987 271.028 322.455 271.056C321.923 271.112 321.391 271.14 320.859 271.14C320.103 271.14 319.375 271.056 318.675 270.888C317.975 270.72 317.331 270.412 316.799 269.992C316.267 269.572 315.819 269.012 315.511 268.284C315.203 267.584 315.035 266.66 315.035 265.54V259.8H310.891V256.888H315.035ZM328.912 256.888H337.2V268.004H341.456V270.916H328.912V268.004H333.28V259.8H328.912V256.888ZM332.944 250.644H337.536V254.452H332.944V250.644ZM351.357 268.312C352.281 268.312 352.981 267.892 353.457 267.024C353.933 266.156 354.157 265.008 354.157 263.524C354.157 262.068 353.933 260.92 353.457 260.08C352.981 259.268 352.281 258.848 351.357 258.848C350.433 258.848 349.733 259.268 349.257 260.08C348.781 260.92 348.557 262.068 348.557 263.524C348.557 265.008 348.781 266.156 349.257 267.024C349.733 267.892 350.433 268.312 351.357 268.312ZM351.357 271.336C350.209 271.336 349.201 271.14 348.333 270.776C347.465 270.412 346.737 269.88 346.149 269.18C345.561 268.508 345.141 267.696 344.861 266.716C344.553 265.764 344.413 264.7 344.413 263.524C344.413 262.348 344.553 261.284 344.861 260.332C345.141 259.408 345.561 258.596 346.149 257.924C346.737 257.252 347.465 256.72 348.333 256.356C349.201 255.992 350.209 255.824 351.357 255.824C352.505 255.824 353.541 255.992 354.409 256.356C355.277 256.72 355.977 257.252 356.565 257.924C357.153 258.596 357.573 259.408 357.881 260.332C358.161 261.284 358.301 262.348 358.301 263.524C358.301 264.7 358.161 265.764 357.881 266.716C357.573 267.696 357.153 268.508 356.565 269.18C355.977 269.88 355.277 270.412 354.409 270.776C353.541 271.14 352.505 271.336 351.357 271.336ZM368.37 258.82C367.502 258.82 366.858 259.156 366.438 259.828C366.018 260.5 365.794 261.62 365.794 263.188V270.916H361.874V256.244H365.458V258.148C365.85 257.42 366.466 256.86 367.278 256.496C368.09 256.132 368.93 255.936 369.826 255.936C370.834 255.936 371.646 256.104 372.262 256.44C372.878 256.776 373.354 257.224 373.69 257.812C374.026 258.4 374.25 259.1 374.362 259.912C374.474 260.724 374.53 261.592 374.53 262.516V270.916H370.61V262.628C370.61 262.096 370.582 261.62 370.526 261.144C370.47 260.668 370.358 260.276 370.19 259.912C370.022 259.576 369.798 259.296 369.518 259.1C369.21 258.904 368.846 258.82 368.37 258.82Z" fill="black"/>
<rect width="386.098" height="145.819" rx="72.9093" fill="black"/>
<path d="M58.8247 65.0879V61.2188L68.4224 57.4453L58.8247 53.7129V49.8711L72.5786 55.8184V59.0996L58.8247 65.0879ZM89.9584 57.9214C89.9304 58.4254 89.8464 58.9854 89.7624 59.5734C89.6784 60.1614 89.5944 60.6934 89.5104 61.1694L88.3904 67.3574H84.1344L82.0064 52.6854H85.1984L86.2344 61.1694C86.2904 61.6454 86.3464 62.1214 86.4304 62.5974C86.4864 63.0734 86.5424 63.5774 86.5704 64.0814H86.7944C86.8224 63.5774 86.8784 63.0734 86.9344 62.5974C86.9624 62.1214 87.0464 61.6454 87.1304 61.1694L88.7264 52.6854H91.6944L93.2904 61.1694C93.3744 61.6454 93.4584 62.1214 93.5144 62.5974C93.5424 63.0734 93.5984 63.5774 93.6264 64.0814H93.8504C93.8784 63.5774 93.9344 63.0734 94.0184 62.5974C94.0744 62.1214 94.1304 61.6454 94.1864 61.1694L95.2224 52.6854H98.1344L96.0064 67.3574H91.7504L90.6304 61.1694C90.5464 60.6934 90.4624 60.1614 90.3784 59.5734C90.2944 58.9854 90.2104 58.4254 90.1824 57.9214H89.9584ZM110.639 58.0614C110.583 57.2494 110.387 56.5774 110.023 56.0454C109.659 55.5414 109.099 55.2894 108.315 55.2894C107.419 55.2894 106.747 55.6534 106.271 56.3814C105.795 57.1374 105.543 58.2854 105.543 59.8814V67.3574H101.623V52.6854H105.207V54.4774C106.243 53.0774 107.615 52.3774 109.351 52.3774C110.219 52.3774 110.947 52.5174 111.535 52.7694C112.123 53.0494 112.571 53.4414 112.935 53.9174C113.299 54.3934 113.551 55.0094 113.719 55.7094C113.859 56.4094 113.971 57.1934 113.999 58.0614H110.639ZM117.993 53.3294H126.281V64.4454H130.537V67.3574H117.993V64.4454H122.361V56.2414H117.993V53.3294ZM122.025 47.0854H126.617V50.8934H122.025V47.0854ZM137.694 53.3294V48.6534H141.614V53.3294H146.43V56.2414H141.614V62.2054C141.614 62.6254 141.698 62.9894 141.866 63.2414C142.034 63.5214 142.258 63.7454 142.538 63.8854C142.79 64.0534 143.098 64.1654 143.462 64.2214C143.798 64.3054 144.162 64.3334 144.526 64.3334C144.89 64.3334 145.282 64.3054 145.646 64.2494C146.01 64.2214 146.346 64.1654 146.654 64.1094V67.3574C146.15 67.4134 145.646 67.4694 145.114 67.4974C144.582 67.5534 144.05 67.5814 143.518 67.5814C142.762 67.5814 142.034 67.4974 141.334 67.3294C140.634 67.1614 139.99 66.8534 139.458 66.4334C138.926 66.0134 138.478 65.4534 138.17 64.7254C137.862 64.0254 137.694 63.1014 137.694 61.9814V56.2414H133.55V53.3294H137.694ZM154.343 60.9734C154.427 62.2334 154.763 63.1854 155.295 63.8574C155.827 64.5294 156.527 64.8654 157.395 64.8654C158.039 64.8654 158.571 64.6974 158.963 64.3334C159.355 63.9694 159.635 63.4934 159.803 62.8774H163.863C163.443 64.5294 162.715 65.7614 161.679 66.5734C160.643 67.3854 159.215 67.7774 157.395 67.7774C152.775 67.7774 150.479 65.2014 150.479 60.0774C150.479 58.9014 150.619 57.8374 150.927 56.8574C151.207 55.9054 151.627 55.0934 152.215 54.3934C152.775 53.7214 153.503 53.1894 154.371 52.8254C155.239 52.4614 156.247 52.2654 157.395 52.2654C158.543 52.2654 159.551 52.4334 160.391 52.7974C161.203 53.1614 161.903 53.6934 162.435 54.3654C162.967 55.0654 163.359 55.8774 163.611 56.8574C163.863 57.8374 163.975 58.9574 163.975 60.1894V60.9734H154.343ZM157.395 55.0654C156.639 55.0654 155.995 55.3174 155.519 55.8214C155.015 56.3534 154.651 57.1374 154.455 58.1734H160.111C160.027 57.1094 159.747 56.3254 159.271 55.8214C158.795 55.3174 158.151 55.0654 157.395 55.0654ZM190.805 64.7534C191.729 64.7534 192.429 64.3334 192.905 63.4654C193.381 62.5974 193.605 61.4494 193.605 59.9654C193.605 58.5094 193.381 57.3614 192.905 56.5214C192.429 55.7094 191.729 55.2894 190.805 55.2894C189.881 55.2894 189.181 55.7094 188.705 56.5214C188.229 57.3614 188.005 58.5094 188.005 59.9654C188.005 61.4494 188.229 62.5974 188.705 63.4654C189.181 64.3334 189.881 64.7534 190.805 64.7534ZM190.805 67.7774C189.657 67.7774 188.649 67.5814 187.781 67.2174C186.913 66.8534 186.185 66.3214 185.597 65.6214C185.009 64.9494 184.589 64.1374 184.309 63.1574C184.001 62.2054 183.861 61.1414 183.861 59.9654C183.861 58.7894 184.001 57.7254 184.309 56.7734C184.589 55.8494 185.009 55.0374 185.597 54.3654C186.185 53.6934 186.913 53.1614 187.781 52.7974C188.649 52.4334 189.657 52.2654 190.805 52.2654C191.953 52.2654 192.989 52.4334 193.857 52.7974C194.725 53.1614 195.425 53.6934 196.013 54.3654C196.601 55.0374 197.021 55.8494 197.329 56.7734C197.609 57.7254 197.749 58.7894 197.749 59.9654C197.749 61.1414 197.609 62.2054 197.329 63.1574C197.021 64.1374 196.601 64.9494 196.013 65.6214C195.425 66.3214 194.725 66.8534 193.857 67.2174C192.989 67.5814 191.953 67.7774 190.805 67.7774ZM207.818 55.2614C206.95 55.2614 206.306 55.5974 205.886 56.2694C205.466 56.9414 205.242 58.0614 205.242 59.6294V67.3574H201.322V52.6854H204.906V54.5894C205.298 53.8614 205.914 53.3014 206.726 52.9374C207.538 52.5734 208.378 52.3774 209.274 52.3774C210.282 52.3774 211.094 52.5454 211.71 52.8814C212.326 53.2174 212.802 53.6654 213.138 54.2534C213.474 54.8414 213.698 55.5414 213.81 56.3534C213.922 57.1654 213.978 58.0334 213.978 58.9574V67.3574H210.058V59.0694C210.058 58.5374 210.03 58.0614 209.974 57.5854C209.918 57.1094 209.806 56.7174 209.638 56.3534C209.47 56.0174 209.246 55.7374 208.966 55.5414C208.658 55.3454 208.294 55.2614 207.818 55.2614ZM224.719 52.2654C225.755 52.2654 226.651 52.4054 227.463 52.6854C228.247 52.9934 228.919 53.3854 229.479 53.8894C230.039 54.4214 230.487 55.0374 230.795 55.7374C231.103 56.4654 231.271 57.2494 231.327 58.0894H227.295C227.183 57.2214 226.903 56.5494 226.455 56.0454C226.007 55.5414 225.419 55.2894 224.719 55.2894C223.739 55.2894 223.011 55.7094 222.535 56.5214C222.059 57.3334 221.807 58.4814 221.807 59.9654C221.807 61.4494 222.059 62.5974 222.535 63.4654C223.011 64.3334 223.739 64.7814 224.719 64.7814C225.475 64.7814 226.063 64.5014 226.483 63.9414C226.903 63.4094 227.183 62.7094 227.295 61.8694H231.215C231.159 62.7374 230.991 63.5494 230.683 64.2494C230.375 64.9774 229.983 65.5934 229.451 66.1254C228.919 66.6574 228.247 67.0774 227.463 67.3574C226.651 67.6654 225.755 67.8054 224.719 67.8054C223.543 67.8054 222.507 67.6094 221.639 67.2454C220.743 66.8814 220.015 66.3494 219.427 65.6494C218.839 64.9774 218.391 64.1654 218.111 63.1854C217.803 62.2054 217.663 61.1414 217.663 59.9654C217.663 57.5854 218.251 55.7094 219.427 54.3374C220.603 52.9654 222.367 52.2654 224.719 52.2654ZM238.288 60.9734C238.372 62.2334 238.708 63.1854 239.24 63.8574C239.772 64.5294 240.472 64.8654 241.34 64.8654C241.984 64.8654 242.516 64.6974 242.908 64.3334C243.3 63.9694 243.58 63.4934 243.748 62.8774H247.808C247.388 64.5294 246.66 65.7614 245.624 66.5734C244.588 67.3854 243.16 67.7774 241.34 67.7774C236.72 67.7774 234.424 65.2014 234.424 60.0774C234.424 58.9014 234.564 57.8374 234.872 56.8574C235.152 55.9054 235.572 55.0934 236.16 54.3934C236.72 53.7214 237.448 53.1894 238.316 52.8254C239.184 52.4614 240.192 52.2654 241.34 52.2654C242.488 52.2654 243.496 52.4334 244.336 52.7974C245.148 53.1614 245.848 53.6934 246.38 54.3654C246.912 55.0654 247.304 55.8774 247.556 56.8574C247.808 57.8374 247.92 58.9574 247.92 60.1894V60.9734H238.288ZM241.34 55.0654C240.584 55.0654 239.94 55.3174 239.464 55.8214C238.96 56.3534 238.596 57.1374 238.4 58.1734H244.056C243.972 57.1094 243.692 56.3254 243.216 55.8214C242.74 55.3174 242.096 55.0654 241.34 55.0654Z" fill="#FF2A00"/>
<path d="M68.7819 101.357V99.5374C68.2779 100.293 67.6619 100.825 66.9059 101.161C66.1499 101.497 65.3379 101.665 64.5259 101.665C63.6579 101.665 62.8739 101.525 62.1739 101.245C61.4459 100.965 60.8299 100.517 60.3259 99.9014C59.7939 99.2854 59.4019 98.5014 59.1219 97.5214C58.8419 96.5414 58.7019 95.3654 58.7019 93.9654C58.7019 91.5294 59.2339 89.6534 60.2979 88.3374C61.3339 87.0214 62.7619 86.3774 64.5259 86.3774C65.3659 86.3774 66.0939 86.5174 66.7379 86.7974C67.3819 87.1054 67.9419 87.5814 68.4459 88.2534V81.0854H72.3659V101.357H68.7819ZM65.6459 98.7534C66.5419 98.7534 67.2419 98.3334 67.7739 97.4654C68.3059 96.6254 68.5579 95.4494 68.5579 93.9654C68.5579 92.3694 68.3059 91.1934 67.7739 90.4374C67.2419 89.6814 66.5419 89.2894 65.6459 89.2894C64.7219 89.2894 64.0219 89.7094 63.5179 90.5494C62.9859 91.3894 62.7339 92.5374 62.7339 93.9654C62.7339 95.6174 62.9859 96.8214 63.5179 97.5774C64.0499 98.3614 64.7499 98.7534 65.6459 98.7534ZM79.2709 94.9734C79.3549 96.2334 79.6909 97.1854 80.2229 97.8574C80.7549 98.5294 81.4549 98.8654 82.3229 98.8654C82.9669 98.8654 83.4989 98.6974 83.8909 98.3334C84.2829 97.9694 84.5629 97.4934 84.7309 96.8774H88.7909C88.3709 98.5294 87.6429 99.7614 86.6069 100.573C85.5709 101.385 84.1429 101.777 82.3229 101.777C77.7029 101.777 75.4069 99.2014 75.4069 94.0774C75.4069 92.9014 75.5469 91.8374 75.8549 90.8574C76.1349 89.9054 76.5549 89.0934 77.1429 88.3934C77.7029 87.7214 78.4309 87.1894 79.2989 86.8254C80.1669 86.4614 81.1749 86.2654 82.3229 86.2654C83.4709 86.2654 84.4789 86.4334 85.3189 86.7974C86.1309 87.1614 86.8309 87.6934 87.3629 88.3654C87.8949 89.0654 88.2869 89.8774 88.5389 90.8574C88.7909 91.8374 88.9029 92.9574 88.9029 94.1894V94.9734H79.2709ZM82.3229 89.0654C81.5669 89.0654 80.9229 89.3174 80.4469 89.8214C79.9429 90.3534 79.5789 91.1374 79.3829 92.1734H85.0389C84.9549 91.1094 84.6749 90.3254 84.1989 89.8214C83.7229 89.3174 83.0789 89.0654 82.3229 89.0654ZM95.528 86.6854V88.5054C96.032 87.7494 96.676 87.2174 97.432 86.8814C98.188 86.5454 98.972 86.3774 99.784 86.3774C100.652 86.3774 101.436 86.5174 102.164 86.7974C102.864 87.0774 103.48 87.5254 104.012 88.1414C104.516 88.7574 104.908 89.5414 105.188 90.5214C105.468 91.5014 105.608 92.6774 105.608 94.0774C105.608 96.5134 105.076 98.3614 104.04 99.6774C102.976 100.993 101.548 101.665 99.784 101.665C98.944 101.665 98.216 101.525 97.572 101.217C96.928 100.937 96.368 100.461 95.864 99.7894V106.621H91.944V86.6854H95.528ZM98.664 89.2894C97.768 89.2894 97.068 89.7094 96.536 90.5494C96.004 91.4174 95.752 92.5934 95.752 94.0774C95.752 95.6734 96.004 96.8494 96.536 97.6054C97.068 98.3614 97.768 98.7534 98.664 98.7534C99.588 98.7534 100.288 98.3334 100.82 97.4934C101.324 96.6534 101.576 95.5054 101.576 94.0774C101.576 92.4254 101.324 91.2214 100.792 90.4374C100.26 89.6814 99.56 89.2894 98.664 89.2894ZM108.957 81.0854H116.909V98.4454H120.941V101.357H108.845V98.4454H112.989V83.9974H108.957V81.0854ZM130.842 98.7534C131.766 98.7534 132.466 98.3334 132.942 97.4654C133.418 96.5974 133.642 95.4494 133.642 93.9654C133.642 92.5094 133.418 91.3614 132.942 90.5214C132.466 89.7094 131.766 89.2894 130.842 89.2894C129.918 89.2894 129.218 89.7094 128.742 90.5214C128.266 91.3614 128.042 92.5094 128.042 93.9654C128.042 95.4494 128.266 96.5974 128.742 97.4654C129.218 98.3334 129.918 98.7534 130.842 98.7534ZM130.842 101.777C129.694 101.777 128.686 101.581 127.818 101.217C126.95 100.853 126.222 100.321 125.634 99.6214C125.046 98.9494 124.626 98.1374 124.346 97.1574C124.038 96.2054 123.898 95.1414 123.898 93.9654C123.898 92.7894 124.038 91.7254 124.346 90.7734C124.626 89.8494 125.046 89.0374 125.634 88.3654C126.222 87.6934 126.95 87.1614 127.818 86.7974C128.686 86.4334 129.694 86.2654 130.842 86.2654C131.99 86.2654 133.026 86.4334 133.894 86.7974C134.762 87.1614 135.462 87.6934 136.05 88.3654C136.638 89.0374 137.058 89.8494 137.366 90.7734C137.646 91.7254 137.786 92.7894 137.786 93.9654C137.786 95.1414 137.646 96.2054 137.366 97.1574C137.058 98.1374 136.638 98.9494 136.05 99.6214C135.462 100.321 134.762 100.853 133.894 101.217C133.026 101.581 131.99 101.777 130.842 101.777ZM140.099 86.6854H144.467L146.147 94.1894C146.287 94.8054 146.455 95.4214 146.595 96.0094C146.735 96.5974 146.903 97.2414 147.043 97.8854H147.267C147.435 97.2414 147.603 96.5974 147.799 96.0094C147.967 95.4214 148.135 94.8054 148.275 94.1894L150.067 86.6854H154.211L149.507 101.245C149.143 102.337 148.751 103.233 148.303 103.933C147.827 104.633 147.323 105.165 146.791 105.557C146.259 105.977 145.671 106.257 145.055 106.397C144.439 106.537 143.795 106.621 143.123 106.621C142.675 106.621 142.199 106.593 141.723 106.565C141.219 106.537 140.743 106.481 140.323 106.397V103.261C140.659 103.345 141.023 103.401 141.415 103.429C141.779 103.457 142.143 103.485 142.451 103.485C143.151 103.485 143.683 103.317 144.047 103.009C144.383 102.701 144.607 102.141 144.691 101.357L140.099 86.6854ZM172.865 97.5494C172.865 95.7854 173.593 94.5254 175.021 93.7414C176.449 92.9574 178.605 92.4814 181.489 92.3414V91.3614C181.489 90.5494 181.321 89.9334 180.957 89.5694C180.593 89.2054 180.089 89.0094 179.445 89.0094C179.053 89.0094 178.717 89.0654 178.437 89.2054C178.157 89.3454 177.933 89.5414 177.765 89.7654C177.569 90.0174 177.457 90.2694 177.373 90.5494C177.289 90.8574 177.233 91.1374 177.233 91.4454H173.425C173.509 89.8494 174.069 88.5614 175.105 87.6374C176.141 86.7134 177.653 86.2654 179.697 86.2654C183.505 86.2654 185.409 87.9454 185.409 91.3334V96.7654C185.409 97.6894 185.437 98.5574 185.465 99.3414C185.493 100.125 185.605 100.797 185.745 101.357H182.161C182.105 101.021 182.049 100.713 182.021 100.405C181.965 100.125 181.937 99.8454 181.937 99.5654C181.405 100.237 180.789 100.769 180.145 101.133C179.501 101.497 178.633 101.693 177.569 101.693C176.113 101.693 174.965 101.329 174.125 100.629C173.285 99.9294 172.865 98.8934 172.865 97.5494ZM178.801 99.0054C179.641 99.0054 180.313 98.7254 180.789 98.1374C181.265 97.5774 181.489 96.7094 181.489 95.5334V94.8614C180.509 94.9174 179.725 95.0014 179.137 95.1414C178.549 95.2814 178.073 95.4494 177.737 95.6454C177.401 95.8414 177.177 96.0934 177.065 96.3734C176.953 96.6534 176.897 96.9614 176.897 97.2974C176.897 97.7734 177.093 98.1934 177.457 98.5014C177.821 98.8374 178.269 99.0054 178.801 99.0054ZM195.982 89.2614C195.114 89.2614 194.47 89.5974 194.05 90.2694C193.63 90.9414 193.406 92.0614 193.406 93.6294V101.357H189.486V86.6854H193.07V88.5894C193.462 87.8614 194.078 87.3014 194.89 86.9374C195.702 86.5734 196.542 86.3774 197.438 86.3774C198.446 86.3774 199.258 86.5454 199.874 86.8814C200.49 87.2174 200.966 87.6654 201.302 88.2534C201.638 88.8414 201.862 89.5414 201.974 90.3534C202.086 91.1654 202.142 92.0334 202.142 92.9574V101.357H198.222V93.0694C198.222 92.5374 198.194 92.0614 198.138 91.5854C198.082 91.1094 197.97 90.7174 197.802 90.3534C197.634 90.0174 197.41 89.7374 197.13 89.5414C196.822 89.3454 196.458 89.2614 195.982 89.2614ZM205.015 86.6854H209.383L211.063 94.1894C211.203 94.8054 211.371 95.4214 211.511 96.0094C211.651 96.5974 211.819 97.2414 211.959 97.8854H212.183C212.351 97.2414 212.519 96.5974 212.715 96.0094C212.883 95.4214 213.051 94.8054 213.191 94.1894L214.983 86.6854H219.127L214.423 101.245C214.059 102.337 213.667 103.233 213.219 103.933C212.743 104.633 212.239 105.165 211.707 105.557C211.175 105.977 210.587 106.257 209.971 106.397C209.355 106.537 208.711 106.621 208.039 106.621C207.591 106.621 207.115 106.593 206.639 106.565C206.135 106.537 205.659 106.481 205.239 106.397V103.261C205.575 103.345 205.939 103.401 206.331 103.429C206.695 103.457 207.059 103.485 207.367 103.485C208.067 103.485 208.599 103.317 208.963 103.009C209.299 102.701 209.523 102.141 209.607 101.357L205.015 86.6854ZM228.104 91.9214C228.076 92.4254 227.992 92.9854 227.908 93.5734C227.824 94.1614 227.74 94.6934 227.656 95.1694L226.536 101.357H222.28L220.152 86.6854H223.344L224.38 95.1694C224.436 95.6454 224.492 96.1214 224.576 96.5974C224.632 97.0734 224.688 97.5774 224.716 98.0814H224.94C224.968 97.5774 225.024 97.0734 225.08 96.5974C225.108 96.1214 225.192 95.6454 225.276 95.1694L226.872 86.6854H229.84L231.436 95.1694C231.52 95.6454 231.604 96.1214 231.66 96.5974C231.688 97.0734 231.744 97.5774 231.772 98.0814H231.996C232.024 97.5774 232.08 97.0734 232.164 96.5974C232.22 96.1214 232.276 95.6454 232.332 95.1694L233.368 86.6854H236.28L234.152 101.357H229.896L228.776 95.1694C228.692 94.6934 228.608 94.1614 228.524 93.5734C228.44 92.9854 228.356 92.4254 228.328 91.9214H228.104ZM242.094 88.2534C242.234 87.9734 242.43 87.7214 242.71 87.4694C242.99 87.2454 243.298 87.0494 243.662 86.8814C244.026 86.7414 244.418 86.6014 244.838 86.5174C245.258 86.4334 245.678 86.3774 246.126 86.3774C247.134 86.3774 247.946 86.5454 248.562 86.8814C249.178 87.2174 249.654 87.6654 249.99 88.2534C250.326 88.8414 250.55 89.5414 250.662 90.3534C250.774 91.1654 250.83 92.0334 250.83 92.9574V101.357H246.91V93.0694C246.91 92.5374 246.882 92.0614 246.826 91.5854C246.77 91.1094 246.658 90.7174 246.49 90.3534C246.322 90.0174 246.098 89.7374 245.818 89.5414C245.51 89.3454 245.146 89.2614 244.67 89.2614C243.802 89.2614 243.158 89.5974 242.738 90.2414C242.318 90.8854 242.094 91.9494 242.094 93.4054V101.357H238.174V81.0854H242.094V88.2534ZM257.791 94.9734C257.875 96.2334 258.211 97.1854 258.743 97.8574C259.275 98.5294 259.975 98.8654 260.843 98.8654C261.487 98.8654 262.019 98.6974 262.411 98.3334C262.803 97.9694 263.083 97.4934 263.251 96.8774H267.311C266.891 98.5294 266.163 99.7614 265.127 100.573C264.091 101.385 262.663 101.777 260.843 101.777C256.223 101.777 253.927 99.2014 253.927 94.0774C253.927 92.9014 254.067 91.8374 254.375 90.8574C254.655 89.9054 255.075 89.0934 255.663 88.3934C256.223 87.7214 256.951 87.1894 257.819 86.8254C258.687 86.4614 259.695 86.2654 260.843 86.2654C261.991 86.2654 262.999 86.4334 263.839 86.7974C264.651 87.1614 265.351 87.6934 265.883 88.3654C266.415 89.0654 266.807 89.8774 267.059 90.8574C267.311 91.8374 267.423 92.9574 267.423 94.1894V94.9734H257.791ZM260.843 89.0654C260.087 89.0654 259.443 89.3174 258.967 89.8214C258.463 90.3534 258.099 91.1374 257.903 92.1734H263.559C263.475 91.1094 263.195 90.3254 262.719 89.8214C262.243 89.3174 261.599 89.0654 260.843 89.0654ZM280.684 92.0614C280.628 91.2494 280.432 90.5774 280.068 90.0454C279.704 89.5414 279.144 89.2894 278.36 89.2894C277.464 89.2894 276.792 89.6534 276.316 90.3814C275.84 91.1374 275.588 92.2854 275.588 93.8814V101.357H271.668V86.6854H275.252V88.4774C276.288 87.0774 277.66 86.3774 279.396 86.3774C280.264 86.3774 280.992 86.5174 281.58 86.7694C282.168 87.0494 282.616 87.4414 282.98 87.9174C283.344 88.3934 283.596 89.0094 283.764 89.7094C283.904 90.4094 284.016 91.1934 284.044 92.0614H280.684ZM290.249 94.9734C290.333 96.2334 290.669 97.1854 291.201 97.8574C291.733 98.5294 292.433 98.8654 293.301 98.8654C293.945 98.8654 294.477 98.6974 294.869 98.3334C295.261 97.9694 295.541 97.4934 295.709 96.8774H299.769C299.349 98.5294 298.621 99.7614 297.585 100.573C296.549 101.385 295.121 101.777 293.301 101.777C288.681 101.777 286.385 99.2014 286.385 94.0774C286.385 92.9014 286.525 91.8374 286.833 90.8574C287.113 89.9054 287.533 89.0934 288.121 88.3934C288.681 87.7214 289.409 87.1894 290.277 86.8254C291.145 86.4614 292.153 86.2654 293.301 86.2654C294.449 86.2654 295.457 86.4334 296.297 86.7974C297.109 87.1614 297.809 87.6934 298.341 88.3654C298.873 89.0654 299.265 89.8774 299.517 90.8574C299.769 91.8374 299.881 92.9574 299.881 94.1894V94.9734H290.249ZM293.301 89.0654C292.545 89.0654 291.901 89.3174 291.425 89.8214C290.921 90.3534 290.557 91.1374 290.361 92.1734H296.017C295.933 91.1094 295.653 90.3254 295.177 89.8214C294.701 89.3174 294.057 89.0654 293.301 89.0654Z" fill="white"/>
<rect x="411.777" width="296.223" height="146.736" rx="73.3679" fill="#FF2A00"/>
<ellipse cx="633.256" cy="242.573" rx="74.7435" ry="72.9093" fill="#02D5FF"/>
<ellipse cx="74.7435" cy="580.355" rx="74.7435" ry="72.9093" fill="#02D5FF"/>
<rect y="338.409" width="292.554" height="146.736" rx="73.3679" fill="#FF2A00"/>
<rect x="322" y="339.326" width="386.098" height="145.819" rx="72.9093" fill="black"/>
<path d="M380.726 403.414V399.545L390.324 395.772L380.726 392.039V388.198L394.48 394.145V397.426L380.726 403.414ZM414.584 395.184C414.584 393.756 415.144 392.636 416.264 391.824C417.356 391.012 418.896 390.592 420.884 390.592C422.928 390.592 424.496 391.012 425.616 391.852C426.736 392.692 427.296 393.952 427.296 395.632H423.208C423.18 394.792 422.956 394.204 422.592 393.868C422.228 393.56 421.64 393.392 420.884 393.392C420.24 393.392 419.736 393.532 419.372 393.784C418.98 394.064 418.784 394.428 418.784 394.848C418.784 395.324 419.008 395.688 419.456 395.94C419.876 396.192 420.436 396.416 421.08 396.584C421.724 396.78 422.452 396.948 423.208 397.116C423.964 397.312 424.692 397.536 425.336 397.844C425.98 398.152 426.54 398.572 426.988 399.104C427.408 399.636 427.632 400.336 427.632 401.204C427.632 402.716 427.044 403.92 425.868 404.788C424.692 405.656 423.068 406.104 420.996 406.104C418.84 406.104 417.188 405.656 416.04 404.788C414.892 403.92 414.276 402.576 414.248 400.756H418.448C418.448 401.652 418.672 402.296 419.092 402.688C419.512 403.108 420.156 403.304 420.996 403.304C421.668 403.304 422.228 403.164 422.676 402.856C423.096 402.576 423.32 402.184 423.32 401.652C423.32 401.176 423.096 400.812 422.676 400.56C422.256 400.308 421.696 400.112 421.052 399.944C420.408 399.776 419.708 399.608 418.952 399.412C418.196 399.244 417.496 398.992 416.852 398.656C416.208 398.348 415.648 397.9 415.228 397.368C414.808 396.836 414.584 396.108 414.584 395.184ZM437.757 403.08C438.681 403.08 439.381 402.66 439.857 401.792C440.333 400.924 440.557 399.776 440.557 398.292C440.557 396.836 440.333 395.688 439.857 394.848C439.381 394.036 438.681 393.616 437.757 393.616C436.833 393.616 436.133 394.036 435.657 394.848C435.181 395.688 434.957 396.836 434.957 398.292C434.957 399.776 435.181 400.924 435.657 401.792C436.133 402.66 436.833 403.08 437.757 403.08ZM437.757 406.104C436.609 406.104 435.601 405.908 434.733 405.544C433.865 405.18 433.137 404.648 432.549 403.948C431.961 403.276 431.541 402.464 431.261 401.484C430.953 400.532 430.813 399.468 430.813 398.292C430.813 397.116 430.953 396.052 431.261 395.1C431.541 394.176 431.961 393.364 432.549 392.692C433.137 392.02 433.865 391.488 434.733 391.124C435.601 390.76 436.609 390.592 437.757 390.592C438.905 390.592 439.941 390.76 440.809 391.124C441.677 391.488 442.377 392.02 442.965 392.692C443.553 393.364 443.973 394.176 444.281 395.1C444.561 396.052 444.701 397.116 444.701 398.292C444.701 399.468 444.561 400.532 444.281 401.484C443.973 402.464 443.553 403.276 442.965 403.948C442.377 404.648 441.677 405.18 440.809 405.544C439.941 405.908 438.905 406.104 437.757 406.104ZM447.546 391.012H451.914L453.594 398.516C453.734 399.132 453.902 399.748 454.042 400.336C454.182 400.924 454.35 401.568 454.49 402.212H454.714C454.882 401.568 455.05 400.924 455.246 400.336C455.414 399.748 455.582 399.132 455.722 398.516L457.514 391.012H461.658L456.954 405.684H452.026L447.546 391.012ZM468.451 399.3C468.535 400.56 468.871 401.512 469.403 402.184C469.935 402.856 470.635 403.192 471.503 403.192C472.147 403.192 472.679 403.024 473.071 402.66C473.463 402.296 473.743 401.82 473.911 401.204H477.971C477.551 402.856 476.823 404.088 475.787 404.9C474.751 405.712 473.323 406.104 471.503 406.104C466.883 406.104 464.587 403.528 464.587 398.404C464.587 397.228 464.727 396.164 465.035 395.184C465.315 394.232 465.735 393.42 466.323 392.72C466.883 392.048 467.611 391.516 468.479 391.152C469.347 390.788 470.355 390.592 471.503 390.592C472.651 390.592 473.659 390.76 474.499 391.124C475.311 391.488 476.011 392.02 476.543 392.692C477.075 393.392 477.467 394.204 477.719 395.184C477.971 396.164 478.083 397.284 478.083 398.516V399.3H468.451ZM471.503 393.392C470.747 393.392 470.103 393.644 469.627 394.148C469.123 394.68 468.759 395.464 468.563 396.5H474.219C474.135 395.436 473.855 394.652 473.379 394.148C472.903 393.644 472.259 393.392 471.503 393.392ZM491.904 396.388C491.848 395.576 491.652 394.904 491.288 394.372C490.924 393.868 490.364 393.616 489.58 393.616C488.684 393.616 488.012 393.98 487.536 394.708C487.06 395.464 486.808 396.612 486.808 398.208V405.684H482.888V391.012H486.472V392.804C487.508 391.404 488.88 390.704 490.616 390.704C491.484 390.704 492.212 390.844 492.8 391.096C493.388 391.376 493.836 391.768 494.2 392.244C494.564 392.72 494.816 393.336 494.984 394.036C495.124 394.736 495.236 395.52 495.264 396.388H491.904ZM502.029 399.3C502.113 400.56 502.449 401.512 502.981 402.184C503.513 402.856 504.213 403.192 505.081 403.192C505.725 403.192 506.257 403.024 506.649 402.66C507.041 402.296 507.321 401.82 507.489 401.204H511.549C511.129 402.856 510.401 404.088 509.365 404.9C508.329 405.712 506.901 406.104 505.081 406.104C500.461 406.104 498.165 403.528 498.165 398.404C498.165 397.228 498.305 396.164 498.613 395.184C498.893 394.232 499.313 393.42 499.901 392.72C500.461 392.048 501.189 391.516 502.057 391.152C502.925 390.788 503.933 390.592 505.081 390.592C506.229 390.592 507.237 390.76 508.077 391.124C508.889 391.488 509.589 392.02 510.121 392.692C510.653 393.392 511.045 394.204 511.297 395.184C511.549 396.164 511.661 397.284 511.661 398.516V399.3H502.029ZM505.081 393.392C504.325 393.392 503.681 393.644 503.205 394.148C502.701 394.68 502.337 395.464 502.141 396.5H507.797C507.713 395.436 507.433 394.652 506.957 394.148C506.481 393.644 505.837 393.392 505.081 393.392ZM516.046 391.656H524.334V402.772H528.59V405.684H516.046V402.772H520.414V394.568H516.046V391.656ZM520.078 385.412H524.67V389.22H520.078V385.412ZM541.264 402.772C540.788 403.5 540.172 404.032 539.444 404.368C538.716 404.732 537.932 404.9 537.12 404.9C536.252 404.9 535.468 404.76 534.768 404.508C534.04 404.256 533.424 403.836 532.92 403.248C532.388 402.66 531.996 401.932 531.716 401.008C531.436 400.112 531.296 399.02 531.296 397.732C531.296 396.64 531.436 395.632 531.716 394.764C531.996 393.896 532.388 393.168 532.892 392.552C533.396 391.964 534.012 391.488 534.74 391.18C535.44 390.872 536.252 390.704 537.12 390.704C537.876 390.704 538.632 390.844 539.36 391.152C540.088 391.46 540.676 391.936 541.152 392.58V391.012H544.96V404.004C544.96 405.376 544.764 406.524 544.4 407.42C544.036 408.316 543.532 409.016 542.916 409.548C542.3 410.08 541.6 410.444 540.788 410.64C539.976 410.836 539.108 410.948 538.24 410.948C536.308 410.948 534.796 410.528 533.704 409.716C532.584 408.904 531.94 407.7 531.8 406.132H535.888C535.916 406.748 536.168 407.252 536.616 407.616C537.064 408.008 537.652 408.204 538.352 408.204C540.284 408.204 541.264 406.916 541.264 404.34V402.772ZM538.24 401.988C539.136 401.988 539.836 401.624 540.368 400.868C540.9 400.112 541.152 399.076 541.152 397.732C541.152 396.36 540.9 395.324 540.368 394.624C539.836 393.952 539.136 393.616 538.24 393.616C537.316 393.616 536.616 393.98 536.112 394.708C535.58 395.436 535.328 396.444 535.328 397.732C535.328 399.16 535.58 400.224 536.112 400.924C536.644 401.624 537.344 401.988 538.24 401.988ZM555.505 393.588C554.637 393.588 553.993 393.924 553.573 394.596C553.153 395.268 552.929 396.388 552.929 397.956V405.684H549.009V391.012H552.593V392.916C552.985 392.188 553.601 391.628 554.413 391.264C555.225 390.9 556.065 390.704 556.961 390.704C557.969 390.704 558.781 390.872 559.397 391.208C560.013 391.544 560.489 391.992 560.825 392.58C561.161 393.168 561.385 393.868 561.497 394.68C561.609 395.492 561.665 396.36 561.665 397.284V405.684H557.745V397.396C557.745 396.864 557.717 396.388 557.661 395.912C557.605 395.436 557.493 395.044 557.325 394.68C557.157 394.344 556.933 394.064 556.653 393.868C556.345 393.672 555.981 393.588 555.505 393.588ZM595.663 388.912L586.591 402.212H596.111V405.684H581.691V402.044L590.763 388.828H582.139V385.412H595.663V388.912ZM599.264 385.412H603.408V394.26L609.456 385.412H613.824L607.216 394.932L614.496 405.684H609.792L603.408 396.164V405.684H599.264V385.412Z" fill="#FF2A00"/>
<path d="M384.943 433.3C385.027 434.56 385.363 435.512 385.895 436.184C386.427 436.856 387.127 437.192 387.995 437.192C388.639 437.192 389.171 437.024 389.563 436.66C389.955 436.296 390.235 435.82 390.403 435.204H394.463C394.043 436.856 393.315 438.088 392.279 438.9C391.243 439.712 389.815 440.104 387.995 440.104C383.375 440.104 381.079 437.528 381.079 432.404C381.079 431.228 381.219 430.164 381.527 429.184C381.807 428.232 382.227 427.42 382.815 426.72C383.375 426.048 384.103 425.516 384.971 425.152C385.839 424.788 386.847 424.592 387.995 424.592C389.143 424.592 390.151 424.76 390.991 425.124C391.803 425.488 392.503 426.02 393.035 426.692C393.567 427.392 393.959 428.204 394.211 429.184C394.463 430.164 394.575 431.284 394.575 432.516V433.3H384.943ZM387.995 427.392C387.239 427.392 386.595 427.644 386.119 428.148C385.615 428.68 385.251 429.464 385.055 430.5H390.711C390.627 429.436 390.347 428.652 389.871 428.148C389.395 427.644 388.751 427.392 387.995 427.392ZM406.689 432.124L412.009 439.684H407.641L404.449 435.176L401.145 439.684H397.225L402.545 432.432L397.337 425.012H401.705L404.757 429.38L407.977 425.012H411.897L406.689 432.124ZM418.522 433.3C418.606 434.56 418.942 435.512 419.474 436.184C420.006 436.856 420.706 437.192 421.574 437.192C422.218 437.192 422.75 437.024 423.142 436.66C423.534 436.296 423.814 435.82 423.982 435.204H428.042C427.622 436.856 426.894 438.088 425.858 438.9C424.822 439.712 423.394 440.104 421.574 440.104C416.954 440.104 414.658 437.528 414.658 432.404C414.658 431.228 414.798 430.164 415.106 429.184C415.386 428.232 415.806 427.42 416.394 426.72C416.954 426.048 417.682 425.516 418.55 425.152C419.418 424.788 420.426 424.592 421.574 424.592C422.722 424.592 423.73 424.76 424.57 425.124C425.382 425.488 426.082 426.02 426.614 426.692C427.146 427.392 427.538 428.204 427.79 429.184C428.042 430.164 428.154 431.284 428.154 432.516V433.3H418.522ZM421.574 427.392C420.818 427.392 420.174 427.644 419.698 428.148C419.194 428.68 418.83 429.464 418.634 430.5H424.29C424.206 429.436 423.926 428.652 423.45 428.148C422.974 427.644 422.33 427.392 421.574 427.392ZM438.531 424.592C439.567 424.592 440.463 424.732 441.275 425.012C442.059 425.32 442.731 425.712 443.291 426.216C443.851 426.748 444.299 427.364 444.607 428.064C444.915 428.792 445.083 429.576 445.139 430.416H441.107C440.995 429.548 440.715 428.876 440.267 428.372C439.819 427.868 439.231 427.616 438.531 427.616C437.551 427.616 436.823 428.036 436.347 428.848C435.871 429.66 435.619 430.808 435.619 432.292C435.619 433.776 435.871 434.924 436.347 435.792C436.823 436.66 437.551 437.108 438.531 437.108C439.287 437.108 439.875 436.828 440.295 436.268C440.715 435.736 440.995 435.036 441.107 434.196H445.027C444.971 435.064 444.803 435.876 444.495 436.576C444.187 437.304 443.795 437.92 443.263 438.452C442.731 438.984 442.059 439.404 441.275 439.684C440.463 439.992 439.567 440.132 438.531 440.132C437.355 440.132 436.319 439.936 435.451 439.572C434.555 439.208 433.827 438.676 433.239 437.976C432.651 437.304 432.203 436.492 431.923 435.512C431.615 434.532 431.475 433.468 431.475 432.292C431.475 429.912 432.063 428.036 433.239 426.664C434.415 425.292 436.179 424.592 438.531 424.592ZM454.732 437.108C455.6 437.108 456.272 436.772 456.692 436.1C457.112 435.428 457.308 434.308 457.308 432.74V425.012H461.228V439.684H457.644V437.78C457.252 438.508 456.664 439.068 455.852 439.432C455.04 439.796 454.172 439.992 453.276 439.992C452.268 439.992 451.456 439.824 450.84 439.488C450.224 439.152 449.748 438.676 449.412 438.088C449.076 437.5 448.852 436.828 448.74 436.016C448.628 435.204 448.572 434.336 448.572 433.412V425.012H452.492V433.3C452.492 433.832 452.52 434.336 452.576 434.784C452.632 435.26 452.744 435.652 452.912 435.988C453.08 436.352 453.304 436.604 453.612 436.8C453.892 436.996 454.256 437.108 454.732 437.108ZM469.029 425.656V420.98H472.949V425.656H477.765V428.568H472.949V434.532C472.949 434.952 473.033 435.316 473.201 435.568C473.369 435.848 473.593 436.072 473.873 436.212C474.125 436.38 474.433 436.492 474.797 436.548C475.133 436.632 475.497 436.66 475.861 436.66C476.225 436.66 476.617 436.632 476.981 436.576C477.345 436.548 477.681 436.492 477.989 436.436V439.684C477.485 439.74 476.981 439.796 476.449 439.824C475.917 439.88 475.385 439.908 474.853 439.908C474.097 439.908 473.369 439.824 472.669 439.656C471.969 439.488 471.325 439.18 470.793 438.76C470.261 438.34 469.813 437.78 469.505 437.052C469.197 436.352 469.029 435.428 469.029 434.308V428.568H464.885V425.656H469.029ZM482.906 425.656H491.194V436.772H495.45V439.684H482.906V436.772H487.274V428.568H482.906V425.656ZM486.938 419.412H491.53V423.22H486.938V419.412ZM505.351 437.08C506.275 437.08 506.975 436.66 507.451 435.792C507.927 434.924 508.151 433.776 508.151 432.292C508.151 430.836 507.927 429.688 507.451 428.848C506.975 428.036 506.275 427.616 505.351 427.616C504.427 427.616 503.727 428.036 503.251 428.848C502.775 429.688 502.551 430.836 502.551 432.292C502.551 433.776 502.775 434.924 503.251 435.792C503.727 436.66 504.427 437.08 505.351 437.08ZM505.351 440.104C504.203 440.104 503.195 439.908 502.327 439.544C501.459 439.18 500.731 438.648 500.143 437.948C499.555 437.276 499.135 436.464 498.855 435.484C498.547 434.532 498.407 433.468 498.407 432.292C498.407 431.116 498.547 430.052 498.855 429.1C499.135 428.176 499.555 427.364 500.143 426.692C500.731 426.02 501.459 425.488 502.327 425.124C503.195 424.76 504.203 424.592 505.351 424.592C506.499 424.592 507.535 424.76 508.403 425.124C509.271 425.488 509.971 426.02 510.559 426.692C511.147 427.364 511.567 428.176 511.875 429.1C512.155 430.052 512.295 431.116 512.295 432.292C512.295 433.468 512.155 434.532 511.875 435.484C511.567 436.464 511.147 437.276 510.559 437.948C509.971 438.648 509.271 439.18 508.403 439.544C507.535 439.908 506.499 440.104 505.351 440.104ZM522.364 427.588C521.496 427.588 520.852 427.924 520.432 428.596C520.012 429.268 519.788 430.388 519.788 431.956V439.684H515.868V425.012H519.452V426.916C519.844 426.188 520.46 425.628 521.272 425.264C522.084 424.9 522.924 424.704 523.82 424.704C524.828 424.704 525.64 424.872 526.256 425.208C526.872 425.544 527.348 425.992 527.684 426.58C528.02 427.168 528.244 427.868 528.356 428.68C528.468 429.492 528.524 430.36 528.524 431.284V439.684H524.604V431.396C524.604 430.864 524.576 430.388 524.52 429.912C524.464 429.436 524.352 429.044 524.184 428.68C524.016 428.344 523.792 428.064 523.512 427.868C523.204 427.672 522.84 427.588 522.364 427.588Z" fill="white"/>
<rect x="176.5" y="509.946" width="530" height="142" rx="71" fill="white" stroke="black" stroke-width="3"/>
<path d="M233.825 573.155V569.286L243.422 565.513L233.825 561.78V557.938L247.579 563.886V567.167L233.825 573.155ZM273.815 572.849C274.683 572.849 275.355 572.513 275.775 571.841C276.195 571.169 276.391 570.049 276.391 568.481V560.753H280.311V575.425H276.727V573.521C276.335 574.249 275.747 574.809 274.935 575.173C274.123 575.537 273.255 575.733 272.359 575.733C271.351 575.733 270.539 575.565 269.923 575.229C269.307 574.893 268.831 574.417 268.495 573.829C268.159 573.241 267.935 572.569 267.823 571.757C267.711 570.945 267.655 570.077 267.655 569.153V560.753H271.575V569.041C271.575 569.573 271.603 570.077 271.659 570.525C271.715 571.001 271.827 571.393 271.995 571.729C272.163 572.093 272.387 572.345 272.695 572.541C272.975 572.737 273.339 572.849 273.815 572.849ZM291.08 563.329C290.212 563.329 289.568 563.665 289.148 564.337C288.728 565.009 288.504 566.129 288.504 567.697V575.425H284.584V560.753H288.168V562.657C288.56 561.929 289.176 561.369 289.988 561.005C290.8 560.641 291.64 560.445 292.536 560.445C293.544 560.445 294.356 560.613 294.972 560.949C295.588 561.285 296.064 561.733 296.4 562.321C296.736 562.909 296.96 563.609 297.072 564.421C297.184 565.233 297.24 566.101 297.24 567.025V575.425H293.32V567.137C293.32 566.605 293.292 566.129 293.236 565.653C293.18 565.177 293.068 564.785 292.9 564.421C292.732 564.085 292.508 563.805 292.228 563.609C291.92 563.413 291.556 563.329 291.08 563.329ZM301.989 561.397H310.277V572.513H314.533V575.425H301.989V572.513H306.357V564.309H301.989V561.397ZM306.021 555.153H310.613V558.961H306.021V555.153ZM318.358 561.397V560.193C318.358 559.129 318.498 558.261 318.806 557.561C319.086 556.889 319.478 556.357 319.982 555.937C320.458 555.545 321.046 555.265 321.69 555.125C322.334 554.985 323.034 554.901 323.734 554.901C324.07 554.901 324.406 554.901 324.742 554.929C325.078 554.957 325.414 555.013 325.75 555.041V558.289C325.498 558.261 325.274 558.233 325.022 558.205C324.77 558.177 324.546 558.177 324.294 558.177C323.734 558.177 323.258 558.317 322.866 558.569C322.474 558.821 322.278 559.381 322.278 560.193V561.397H325.526V564.309H322.278V575.425H318.358V564.309H316.006V561.397H318.358ZM327.682 561.397H331.602V575.425H327.682V561.397ZM327.346 555.153H331.938V558.961H327.346V555.153ZM338.339 569.041C338.423 570.301 338.759 571.253 339.291 571.925C339.823 572.597 340.523 572.933 341.391 572.933C342.035 572.933 342.567 572.765 342.959 572.401C343.351 572.037 343.631 571.561 343.799 570.945H347.859C347.439 572.597 346.711 573.829 345.675 574.641C344.639 575.453 343.211 575.845 341.391 575.845C336.771 575.845 334.475 573.269 334.475 568.145C334.475 566.969 334.615 565.905 334.923 564.925C335.203 563.973 335.623 563.161 336.211 562.461C336.771 561.789 337.499 561.257 338.367 560.893C339.235 560.529 340.243 560.333 341.391 560.333C342.539 560.333 343.547 560.501 344.387 560.865C345.199 561.229 345.899 561.761 346.431 562.433C346.963 563.133 347.355 563.945 347.607 564.925C347.859 565.905 347.971 567.025 347.971 568.257V569.041H338.339ZM341.391 563.133C340.635 563.133 339.991 563.385 339.515 563.889C339.011 564.421 338.647 565.205 338.451 566.241H344.107C344.023 565.177 343.743 564.393 343.267 563.889C342.791 563.385 342.147 563.133 341.391 563.133ZM360.868 575.425V573.605C360.364 574.361 359.748 574.893 358.992 575.229C358.236 575.565 357.424 575.733 356.612 575.733C355.744 575.733 354.96 575.593 354.26 575.313C353.532 575.033 352.916 574.585 352.412 573.969C351.88 573.353 351.488 572.569 351.208 571.589C350.928 570.609 350.788 569.433 350.788 568.033C350.788 565.597 351.32 563.721 352.384 562.405C353.42 561.089 354.848 560.445 356.612 560.445C357.452 560.445 358.18 560.585 358.824 560.865C359.468 561.173 360.028 561.649 360.532 562.321V555.153H364.452V575.425H360.868ZM357.732 572.821C358.628 572.821 359.328 572.401 359.86 571.533C360.392 570.693 360.644 569.517 360.644 568.033C360.644 566.437 360.392 565.261 359.86 564.505C359.328 563.749 358.628 563.357 357.732 563.357C356.808 563.357 356.108 563.777 355.604 564.617C355.072 565.457 354.82 566.605 354.82 568.033C354.82 569.685 355.072 570.889 355.604 571.645C356.136 572.429 356.836 572.821 357.732 572.821Z" fill="#00CBF3"/>
<path d="M241.262 594.333C242.298 594.333 243.194 594.473 244.006 594.753C244.79 595.061 245.462 595.453 246.022 595.957C246.582 596.489 247.03 597.105 247.338 597.805C247.646 598.533 247.814 599.317 247.87 600.157H243.838C243.726 599.289 243.446 598.617 242.998 598.113C242.55 597.609 241.962 597.357 241.262 597.357C240.282 597.357 239.554 597.777 239.078 598.589C238.602 599.401 238.35 600.549 238.35 602.033C238.35 603.517 238.602 604.665 239.078 605.533C239.554 606.401 240.282 606.849 241.262 606.849C242.018 606.849 242.606 606.569 243.026 606.009C243.446 605.477 243.726 604.777 243.838 603.937H247.758C247.702 604.805 247.534 605.617 247.226 606.317C246.918 607.045 246.526 607.661 245.994 608.193C245.462 608.725 244.79 609.145 244.006 609.425C243.194 609.733 242.298 609.873 241.262 609.873C240.086 609.873 239.05 609.677 238.182 609.313C237.286 608.949 236.558 608.417 235.97 607.717C235.382 607.045 234.934 606.233 234.654 605.253C234.346 604.273 234.206 603.209 234.206 602.033C234.206 599.653 234.794 597.777 235.97 596.405C237.146 595.033 238.91 594.333 241.262 594.333ZM261.495 600.129C261.439 599.317 261.243 598.645 260.879 598.113C260.515 597.609 259.955 597.357 259.171 597.357C258.275 597.357 257.603 597.721 257.127 598.449C256.651 599.205 256.399 600.353 256.399 601.949V609.425H252.479V594.753H256.063V596.545C257.099 595.145 258.471 594.445 260.207 594.445C261.075 594.445 261.803 594.585 262.391 594.837C262.979 595.117 263.427 595.509 263.791 595.985C264.155 596.461 264.407 597.077 264.575 597.777C264.715 598.477 264.827 599.261 264.855 600.129H261.495ZM274.504 606.821C275.428 606.821 276.128 606.401 276.604 605.533C277.08 604.665 277.304 603.517 277.304 602.033C277.304 600.577 277.08 599.429 276.604 598.589C276.128 597.777 275.428 597.357 274.504 597.357C273.58 597.357 272.88 597.777 272.404 598.589C271.928 599.429 271.704 600.577 271.704 602.033C271.704 603.517 271.928 604.665 272.404 605.533C272.88 606.401 273.58 606.821 274.504 606.821ZM274.504 609.845C273.356 609.845 272.348 609.649 271.48 609.285C270.612 608.921 269.884 608.389 269.296 607.689C268.708 607.017 268.288 606.205 268.008 605.225C267.7 604.273 267.56 603.209 267.56 602.033C267.56 600.857 267.7 599.793 268.008 598.841C268.288 597.917 268.708 597.105 269.296 596.433C269.884 595.761 270.612 595.229 271.48 594.865C272.348 594.501 273.356 594.333 274.504 594.333C275.652 594.333 276.688 594.501 277.556 594.865C278.424 595.229 279.124 595.761 279.712 596.433C280.3 597.105 280.72 597.917 281.028 598.841C281.308 599.793 281.448 600.857 281.448 602.033C281.448 603.209 281.308 604.273 281.028 605.225C280.72 606.205 280.3 607.017 279.712 607.689C279.124 608.389 278.424 608.921 277.556 609.285C276.688 609.649 275.652 609.845 274.504 609.845ZM284.909 598.925C284.909 597.497 285.469 596.377 286.589 595.565C287.681 594.753 289.221 594.333 291.209 594.333C293.253 594.333 294.821 594.753 295.941 595.593C297.061 596.433 297.621 597.693 297.621 599.373H293.533C293.505 598.533 293.281 597.945 292.917 597.609C292.553 597.301 291.965 597.133 291.209 597.133C290.565 597.133 290.061 597.273 289.697 597.525C289.305 597.805 289.109 598.169 289.109 598.589C289.109 599.065 289.333 599.429 289.781 599.681C290.201 599.933 290.761 600.157 291.405 600.325C292.049 600.521 292.777 600.689 293.533 600.857C294.289 601.053 295.017 601.277 295.661 601.585C296.305 601.893 296.865 602.313 297.313 602.845C297.733 603.377 297.957 604.077 297.957 604.945C297.957 606.457 297.369 607.661 296.193 608.529C295.017 609.397 293.393 609.845 291.321 609.845C289.165 609.845 287.513 609.397 286.365 608.529C285.217 607.661 284.601 606.317 284.573 604.497H288.773C288.773 605.393 288.997 606.037 289.417 606.429C289.837 606.849 290.481 607.045 291.321 607.045C291.993 607.045 292.553 606.905 293.001 606.597C293.421 606.317 293.645 605.925 293.645 605.393C293.645 604.917 293.421 604.553 293.001 604.301C292.581 604.049 292.021 603.853 291.377 603.685C290.733 603.517 290.033 603.349 289.277 603.153C288.521 602.985 287.821 602.733 287.177 602.397C286.533 602.089 285.973 601.641 285.553 601.109C285.133 600.577 284.909 599.849 284.909 598.925ZM301.698 598.925C301.698 597.497 302.258 596.377 303.378 595.565C304.47 594.753 306.01 594.333 307.998 594.333C310.042 594.333 311.61 594.753 312.73 595.593C313.85 596.433 314.41 597.693 314.41 599.373H310.322C310.294 598.533 310.07 597.945 309.706 597.609C309.342 597.301 308.754 597.133 307.998 597.133C307.354 597.133 306.85 597.273 306.486 597.525C306.094 597.805 305.898 598.169 305.898 598.589C305.898 599.065 306.122 599.429 306.57 599.681C306.99 599.933 307.55 600.157 308.194 600.325C308.838 600.521 309.566 600.689 310.322 600.857C311.078 601.053 311.806 601.277 312.45 601.585C313.094 601.893 313.654 602.313 314.102 602.845C314.522 603.377 314.746 604.077 314.746 604.945C314.746 606.457 314.158 607.661 312.982 608.529C311.806 609.397 310.182 609.845 308.11 609.845C305.954 609.845 304.302 609.397 303.154 608.529C302.006 607.661 301.39 606.317 301.362 604.497H305.562C305.562 605.393 305.786 606.037 306.206 606.429C306.626 606.849 307.27 607.045 308.11 607.045C308.782 607.045 309.342 606.905 309.79 606.597C310.21 606.317 310.434 605.925 310.434 605.393C310.434 604.917 310.21 604.553 309.79 604.301C309.37 604.049 308.81 603.853 308.166 603.685C307.522 603.517 306.822 603.349 306.066 603.153C305.31 602.985 304.61 602.733 303.966 602.397C303.322 602.089 302.762 601.641 302.342 601.109C301.922 600.577 301.698 599.849 301.698 598.925ZM320.727 603.265V599.681H329.015V603.265H320.727ZM341.996 594.333C343.032 594.333 343.928 594.473 344.74 594.753C345.524 595.061 346.196 595.453 346.756 595.957C347.316 596.489 347.764 597.105 348.072 597.805C348.38 598.533 348.548 599.317 348.604 600.157H344.572C344.46 599.289 344.18 598.617 343.732 598.113C343.284 597.609 342.696 597.357 341.996 597.357C341.016 597.357 340.288 597.777 339.812 598.589C339.336 599.401 339.084 600.549 339.084 602.033C339.084 603.517 339.336 604.665 339.812 605.533C340.288 606.401 341.016 606.849 341.996 606.849C342.752 606.849 343.34 606.569 343.76 606.009C344.18 605.477 344.46 604.777 344.572 603.937H348.492C348.436 604.805 348.268 605.617 347.96 606.317C347.652 607.045 347.26 607.661 346.728 608.193C346.196 608.725 345.524 609.145 344.74 609.425C343.928 609.733 343.032 609.873 341.996 609.873C340.82 609.873 339.784 609.677 338.916 609.313C338.02 608.949 337.292 608.417 336.704 607.717C336.116 607.045 335.668 606.233 335.388 605.253C335.08 604.273 334.94 603.209 334.94 602.033C334.94 599.653 335.528 597.777 336.704 596.405C337.88 595.033 339.644 594.333 341.996 594.333ZM356.097 596.321C356.237 596.041 356.433 595.789 356.713 595.537C356.993 595.313 357.301 595.117 357.665 594.949C358.029 594.809 358.421 594.669 358.841 594.585C359.261 594.501 359.681 594.445 360.129 594.445C361.137 594.445 361.949 594.613 362.565 594.949C363.181 595.285 363.657 595.733 363.993 596.321C364.329 596.909 364.553 597.609 364.665 598.421C364.777 599.233 364.833 600.101 364.833 601.025V609.425H360.913V601.137C360.913 600.605 360.885 600.129 360.829 599.653C360.773 599.177 360.661 598.785 360.493 598.421C360.325 598.085 360.101 597.805 359.821 597.609C359.513 597.413 359.149 597.329 358.673 597.329C357.805 597.329 357.161 597.665 356.741 598.309C356.321 598.953 356.097 600.017 356.097 601.473V609.425H352.177V589.153H356.097V596.321ZM368.574 605.617C368.574 603.853 369.302 602.593 370.73 601.809C372.158 601.025 374.314 600.549 377.198 600.409V599.429C377.198 598.617 377.03 598.001 376.666 597.637C376.302 597.273 375.798 597.077 375.154 597.077C374.762 597.077 374.426 597.133 374.146 597.273C373.866 597.413 373.642 597.609 373.474 597.833C373.278 598.085 373.166 598.337 373.082 598.617C372.998 598.925 372.942 599.205 372.942 599.513H369.134C369.218 597.917 369.778 596.629 370.814 595.705C371.85 594.781 373.362 594.333 375.406 594.333C379.214 594.333 381.118 596.013 381.118 599.401V604.833C381.118 605.757 381.146 606.625 381.174 607.409C381.202 608.193 381.314 608.865 381.454 609.425H377.87C377.814 609.089 377.758 608.781 377.73 608.473C377.674 608.193 377.646 607.913 377.646 607.633C377.114 608.305 376.498 608.837 375.854 609.201C375.21 609.565 374.342 609.761 373.278 609.761C371.822 609.761 370.674 609.397 369.834 608.697C368.994 607.997 368.574 606.961 368.574 605.617ZM374.51 607.073C375.35 607.073 376.022 606.793 376.498 606.205C376.974 605.645 377.198 604.777 377.198 603.601V602.929C376.218 602.985 375.434 603.069 374.846 603.209C374.258 603.349 373.782 603.517 373.446 603.713C373.11 603.909 372.886 604.161 372.774 604.441C372.662 604.721 372.606 605.029 372.606 605.365C372.606 605.841 372.802 606.261 373.166 606.569C373.53 606.905 373.978 607.073 374.51 607.073ZM386.371 595.397H394.659V606.513H398.915V609.425H386.371V606.513H390.739V598.309H386.371V595.397ZM390.403 589.153H394.995V592.961H390.403V589.153ZM409.041 597.329C408.173 597.329 407.529 597.665 407.109 598.337C406.689 599.009 406.465 600.129 406.465 601.697V609.425H402.545V594.753H406.129V596.657C406.521 595.929 407.137 595.369 407.949 595.005C408.761 594.641 409.601 594.445 410.497 594.445C411.505 594.445 412.317 594.613 412.933 594.949C413.549 595.285 414.025 595.733 414.361 596.321C414.697 596.909 414.921 597.609 415.033 598.421C415.145 599.233 415.201 600.101 415.201 601.025V609.425H411.281V601.137C411.281 600.605 411.253 600.129 411.197 599.653C411.141 599.177 411.029 598.785 410.861 598.421C410.693 598.085 410.469 597.805 410.189 597.609C409.881 597.413 409.517 597.329 409.041 597.329ZM445.251 609.425V607.605C444.747 608.361 444.131 608.893 443.375 609.229C442.619 609.565 441.807 609.733 440.995 609.733C440.127 609.733 439.343 609.593 438.643 609.313C437.915 609.033 437.299 608.585 436.795 607.969C436.263 607.353 435.871 606.569 435.591 605.589C435.311 604.609 435.171 603.433 435.171 602.033C435.171 599.597 435.703 597.721 436.767 596.405C437.803 595.089 439.231 594.445 440.995 594.445C441.835 594.445 442.563 594.585 443.207 594.865C443.851 595.173 444.411 595.649 444.915 596.321V589.153H448.835V609.425H445.251ZM442.115 606.821C443.011 606.821 443.711 606.401 444.243 605.533C444.775 604.693 445.027 603.517 445.027 602.033C445.027 600.437 444.775 599.261 444.243 598.505C443.711 597.749 443.011 597.357 442.115 597.357C441.191 597.357 440.491 597.777 439.987 598.617C439.455 599.457 439.203 600.605 439.203 602.033C439.203 603.685 439.455 604.889 439.987 605.645C440.519 606.429 441.219 606.821 442.115 606.821ZM456.3 603.041C456.384 604.301 456.72 605.253 457.252 605.925C457.784 606.597 458.484 606.933 459.352 606.933C459.996 606.933 460.528 606.765 460.92 606.401C461.312 606.037 461.592 605.561 461.76 604.945H465.82C465.4 606.597 464.672 607.829 463.636 608.641C462.6 609.453 461.172 609.845 459.352 609.845C454.732 609.845 452.436 607.269 452.436 602.145C452.436 600.969 452.576 599.905 452.884 598.925C453.164 597.973 453.584 597.161 454.172 596.461C454.732 595.789 455.46 595.257 456.328 594.893C457.196 594.529 458.204 594.333 459.352 594.333C460.5 594.333 461.508 594.501 462.348 594.865C463.16 595.229 463.86 595.761 464.392 596.433C464.924 597.133 465.316 597.945 465.568 598.925C465.82 599.905 465.932 601.025 465.932 602.257V603.041H456.3ZM459.352 597.133C458.596 597.133 457.952 597.385 457.476 597.889C456.972 598.421 456.608 599.205 456.412 600.241H462.068C461.984 599.177 461.704 598.393 461.228 597.889C460.752 597.385 460.108 597.133 459.352 597.133ZM468.973 594.753H473.341L475.021 602.257C475.161 602.873 475.329 603.489 475.469 604.077C475.609 604.665 475.777 605.309 475.917 605.953H476.141C476.309 605.309 476.477 604.665 476.673 604.077C476.841 603.489 477.009 602.873 477.149 602.257L478.941 594.753H483.085L478.381 609.425H473.453L468.973 594.753ZM489.878 603.041C489.962 604.301 490.298 605.253 490.83 605.925C491.362 606.597 492.062 606.933 492.93 606.933C493.574 606.933 494.106 606.765 494.498 606.401C494.89 606.037 495.17 605.561 495.338 604.945H499.398C498.978 606.597 498.25 607.829 497.214 608.641C496.178 609.453 494.75 609.845 492.93 609.845C488.31 609.845 486.014 607.269 486.014 602.145C486.014 600.969 486.154 599.905 486.462 598.925C486.742 597.973 487.162 597.161 487.75 596.461C488.31 595.789 489.038 595.257 489.906 594.893C490.774 594.529 491.782 594.333 492.93 594.333C494.078 594.333 495.086 594.501 495.926 594.865C496.738 595.229 497.438 595.761 497.97 596.433C498.502 597.133 498.894 597.945 499.146 598.925C499.398 599.905 499.51 601.025 499.51 602.257V603.041H489.878ZM492.93 597.133C492.174 597.133 491.53 597.385 491.054 597.889C490.55 598.421 490.186 599.205 489.99 600.241H495.646C495.562 599.177 495.282 598.393 494.806 597.889C494.33 597.385 493.686 597.133 492.93 597.133ZM503.895 589.153H511.847V606.513H515.879V609.425H503.783V606.513H507.927V592.065H503.895V589.153ZM526.34 606.821C527.264 606.821 527.964 606.401 528.44 605.533C528.916 604.665 529.14 603.517 529.14 602.033C529.14 600.577 528.916 599.429 528.44 598.589C527.964 597.777 527.264 597.357 526.34 597.357C525.416 597.357 524.716 597.777 524.24 598.589C523.764 599.429 523.54 600.577 523.54 602.033C523.54 603.517 523.764 604.665 524.24 605.533C524.716 606.401 525.416 606.821 526.34 606.821ZM526.34 609.845C525.192 609.845 524.184 609.649 523.316 609.285C522.448 608.921 521.72 608.389 521.132 607.689C520.544 607.017 520.124 606.205 519.844 605.225C519.536 604.273 519.396 603.209 519.396 602.033C519.396 600.857 519.536 599.793 519.844 598.841C520.124 597.917 520.544 597.105 521.132 596.433C521.72 595.761 522.448 595.229 523.316 594.865C524.184 594.501 525.192 594.333 526.34 594.333C527.488 594.333 528.524 594.501 529.392 594.865C530.26 595.229 530.96 595.761 531.548 596.433C532.136 597.105 532.556 597.917 532.864 598.841C533.144 599.793 533.284 600.857 533.284 602.033C533.284 603.209 533.144 604.273 532.864 605.225C532.556 606.205 532.136 607.017 531.548 607.689C530.96 608.389 530.26 608.921 529.392 609.285C528.524 609.649 527.488 609.845 526.34 609.845ZM540.273 594.753V596.573C540.777 595.817 541.421 595.285 542.177 594.949C542.933 594.613 543.717 594.445 544.529 594.445C545.397 594.445 546.181 594.585 546.909 594.865C547.609 595.145 548.225 595.593 548.757 596.209C549.261 596.825 549.653 597.609 549.933 598.589C550.213 599.569 550.353 600.745 550.353 602.145C550.353 604.581 549.821 606.429 548.785 607.745C547.721 609.061 546.293 609.733 544.529 609.733C543.689 609.733 542.961 609.593 542.317 609.285C541.673 609.005 541.113 608.529 540.609 607.857V614.689H536.689V594.753H540.273ZM543.409 597.357C542.513 597.357 541.813 597.777 541.281 598.617C540.749 599.485 540.497 600.661 540.497 602.145C540.497 603.741 540.749 604.917 541.281 605.673C541.813 606.429 542.513 606.821 543.409 606.821C544.333 606.821 545.033 606.401 545.565 605.561C546.069 604.721 546.321 603.573 546.321 602.145C546.321 600.493 546.069 599.289 545.537 598.505C545.005 597.749 544.305 597.357 543.409 597.357ZM557.146 597.133C556.67 597.133 556.306 597.329 556.11 597.721C555.914 598.113 555.802 598.757 555.802 599.653V609.425H552.722V594.753H555.27V596.573C555.382 596.209 555.55 595.901 555.802 595.621C556.026 595.369 556.306 595.145 556.614 594.949C556.922 594.781 557.23 594.641 557.594 594.557C557.93 594.473 558.266 594.445 558.63 594.445C559.33 594.445 559.862 594.613 560.282 594.921C560.674 595.229 560.982 595.649 561.178 596.125C561.486 595.537 561.934 595.117 562.522 594.837C563.11 594.585 563.698 594.445 564.342 594.445C564.902 594.445 565.378 594.557 565.742 594.753C566.106 594.949 566.414 595.229 566.638 595.593C566.834 595.957 567.002 596.349 567.086 596.797C567.17 597.245 567.226 597.721 567.226 598.225V609.425H564.034V599.653C564.034 598.757 563.95 598.113 563.81 597.721C563.67 597.329 563.334 597.133 562.858 597.133C562.382 597.133 562.018 597.329 561.822 597.721C561.626 598.113 561.514 598.757 561.514 599.653V609.425H558.322V599.653C558.322 598.757 558.238 598.113 558.098 597.721C557.958 597.329 557.622 597.133 557.146 597.133ZM573.823 603.041C573.907 604.301 574.243 605.253 574.775 605.925C575.307 606.597 576.007 606.933 576.875 606.933C577.519 606.933 578.051 606.765 578.443 606.401C578.835 606.037 579.115 605.561 579.283 604.945H583.343C582.923 606.597 582.195 607.829 581.159 608.641C580.123 609.453 578.695 609.845 576.875 609.845C572.255 609.845 569.959 607.269 569.959 602.145C569.959 600.969 570.099 599.905 570.407 598.925C570.687 597.973 571.107 597.161 571.695 596.461C572.255 595.789 572.983 595.257 573.851 594.893C574.719 594.529 575.727 594.333 576.875 594.333C578.023 594.333 579.031 594.501 579.871 594.865C580.683 595.229 581.383 595.761 581.915 596.433C582.447 597.133 582.839 597.945 583.091 598.925C583.343 599.905 583.455 601.025 583.455 602.257V603.041H573.823ZM576.875 597.133C576.119 597.133 575.475 597.385 574.999 597.889C574.495 598.421 574.131 599.205 573.935 600.241H579.591C579.507 599.177 579.227 598.393 578.751 597.889C578.275 597.385 577.631 597.133 576.875 597.133ZM593.72 597.329C592.852 597.329 592.208 597.665 591.788 598.337C591.368 599.009 591.144 600.129 591.144 601.697V609.425H587.224V594.753H590.808V596.657C591.2 595.929 591.816 595.369 592.628 595.005C593.44 594.641 594.28 594.445 595.176 594.445C596.184 594.445 596.996 594.613 597.612 594.949C598.228 595.285 598.704 595.733 599.04 596.321C599.376 596.909 599.6 597.609 599.712 598.421C599.824 599.233 599.88 600.101 599.88 601.025V609.425H595.96V601.137C595.96 600.605 595.932 600.129 595.876 599.653C595.82 599.177 595.708 598.785 595.54 598.421C595.372 598.085 595.148 597.805 594.868 597.609C594.56 597.413 594.196 597.329 593.72 597.329ZM607.541 595.397V590.721H611.461V595.397H616.277V598.309H611.461V604.273C611.461 604.693 611.545 605.057 611.713 605.309C611.881 605.589 612.105 605.813 612.385 605.953C612.637 606.121 612.945 606.233 613.309 606.289C613.645 606.373 614.009 606.401 614.373 606.401C614.737 606.401 615.129 606.373 615.493 606.317C615.857 606.289 616.193 606.233 616.501 606.177V609.425C615.997 609.481 615.493 609.537 614.961 609.565C614.429 609.621 613.897 609.649 613.365 609.649C612.609 609.649 611.881 609.565 611.181 609.397C610.481 609.229 609.837 608.921 609.305 608.501C608.773 608.081 608.325 607.521 608.017 606.793C607.709 606.093 607.541 605.169 607.541 604.049V598.309H603.397V595.397H607.541Z" fill="black"/>
</svg>
