<svg width="669" height="669" viewBox="0 0 669 669" fill="none" xmlns="http://www.w3.org/2000/svg">
<circle cx="334.5" cy="334.5" r="332.5" fill="black" stroke="black" stroke-width="4"/>
<circle cx="275.5" cy="215.5" r="44" fill="black" stroke="#797979" stroke-width="3"/>
<circle cx="394.5" cy="215.5" r="44" fill="black" stroke="#797979" stroke-width="3"/>
<circle cx="513.5" cy="215.5" r="44" fill="#FF2A00" stroke="#FF2A00" stroke-width="3"/>
<circle cx="275.5" cy="334.5" r="44" fill="black" stroke="#797979" stroke-width="3"/>
<circle cx="394.5" cy="334.5" r="44" fill="black" stroke="#797979" stroke-width="3"/>
<circle cx="513.5" cy="334.5" r="44" fill="black" stroke="#797979" stroke-width="3"/>
<circle cx="156.5" cy="215.5" r="44" fill="black" stroke="#797979" stroke-width="3"/>
<circle cx="156.5" cy="334.5" r="44" fill="black" stroke="#797979" stroke-width="3"/>
<circle cx="156.5" cy="453.5" r="44" fill="black" stroke="#797979" stroke-width="3"/>
<circle cx="275.5" cy="453.5" r="44" fill="black" stroke="#797979" stroke-width="3"/>
<circle cx="394.5" cy="453.5" r="44" fill="black" stroke="#797979" stroke-width="3"/>
<circle cx="513.5" cy="453.5" r="44" fill="#02D5FF" stroke="#02D5FF" stroke-width="3"/>
<path d="M148.561 229.112H155.761V207.272H148.561V204.152C149.905 204.104 151.057 203.912 152.017 203.672C152.929 203.432 153.745 203.096 154.369 202.616C154.993 202.184 155.425 201.56 155.761 200.84C156.097 200.12 156.289 199.256 156.433 198.248H160.129V229.112H167.329V233H148.561V229.112Z" fill="white"/>
<path d="M265.017 233V231.608C265.017 229.784 265.257 228.152 265.737 226.712C266.217 225.272 266.889 223.976 267.753 222.776C268.617 221.576 269.673 220.472 270.873 219.464C272.073 218.456 273.417 217.448 274.905 216.488C276.297 215.576 277.449 214.76 278.361 213.992C279.273 213.224 280.041 212.456 280.617 211.736C281.193 211.016 281.625 210.248 281.865 209.432C282.105 208.664 282.201 207.8 282.201 206.84C282.201 205.064 281.625 203.672 280.521 202.664C279.417 201.656 277.929 201.176 276.105 201.176C274.041 201.176 272.409 201.8 271.305 203.048C270.153 204.296 269.529 206.168 269.433 208.664H264.969C265.017 206.888 265.305 205.304 265.881 203.912C266.457 202.52 267.273 201.368 268.281 200.408C269.289 199.496 270.489 198.776 271.881 198.248C273.273 197.768 274.809 197.528 276.489 197.528C278.073 197.528 279.465 197.768 280.761 198.248C282.057 198.728 283.113 199.4 284.025 200.216C284.937 201.08 285.609 202.088 286.089 203.24C286.569 204.44 286.809 205.688 286.809 207.08C286.809 208.28 286.665 209.384 286.329 210.392C285.993 211.4 285.513 212.408 284.793 213.32C284.073 214.28 283.209 215.24 282.105 216.152C281.001 217.112 279.705 218.12 278.121 219.176C277.305 219.752 276.441 220.376 275.529 221C274.617 221.624 273.801 222.344 273.033 223.16C272.265 223.976 271.593 224.84 271.065 225.8C270.489 226.808 270.153 227.912 270.009 229.112H287.001V233H265.017Z" fill="white"/>
<path d="M387.809 222.632C387.809 224.984 388.433 226.808 389.681 228.104C390.929 229.4 392.657 230.072 394.913 230.072C395.969 230.072 396.929 229.88 397.793 229.544C398.657 229.208 399.377 228.776 400.001 228.152C400.577 227.528 401.009 226.808 401.345 225.992C401.681 225.176 401.825 224.312 401.825 223.352C401.825 221.384 401.201 219.848 399.953 218.744C398.657 217.688 396.881 217.16 394.625 217.16H393.089V213.464H394.145C396.497 213.464 398.273 212.936 399.569 211.88C400.817 210.872 401.441 209.288 401.441 207.176C401.441 205.352 400.865 203.912 399.713 202.808C398.513 201.704 396.929 201.176 394.961 201.176C392.849 201.176 391.169 201.752 389.969 202.952C388.769 204.152 388.097 205.88 388.049 208.136H383.489C383.633 204.728 384.737 202.136 386.801 200.264C388.865 198.44 391.649 197.528 395.201 197.528C396.833 197.528 398.321 197.768 399.665 198.2C400.961 198.68 402.113 199.304 403.073 200.12C404.033 200.936 404.801 201.944 405.329 203.048C405.857 204.2 406.097 205.448 406.097 206.792C406.097 207.8 405.953 208.712 405.665 209.624C405.329 210.536 404.945 211.352 404.417 212.072C403.889 212.792 403.265 213.416 402.545 213.944C401.825 214.472 401.009 214.808 400.145 215.048V215.288C404.417 216.392 406.529 219.128 406.529 223.448C406.529 224.936 406.241 226.28 405.713 227.528C405.185 228.776 404.369 229.832 403.361 230.744C402.353 231.656 401.105 232.376 399.665 232.904C398.177 233.432 396.545 233.72 394.673 233.72C392.897 233.72 391.265 233.432 389.873 232.904C388.433 232.376 387.233 231.656 386.225 230.696C385.217 229.736 384.449 228.584 383.921 227.192C383.393 225.848 383.105 224.312 383.105 222.632H387.809Z" fill="white"/>
<path d="M169.585 342.928H163.681V352H159.217V342.928H144.193V339.28L158.353 317.248H163.681V339.136H169.585V342.928ZM148.897 339.136H159.457V331.504C159.457 330.928 159.457 330.256 159.457 329.44C159.457 328.624 159.457 327.808 159.505 326.944C159.553 326.08 159.553 325.216 159.601 324.4C159.601 323.584 159.649 322.912 159.697 322.288L159.361 322.24C158.833 323.2 158.305 324.016 157.825 324.736C157.345 325.456 156.817 326.32 156.193 327.28L148.897 339.136Z" fill="white"/>
<path d="M266.889 317.248H285.753V321.088H270.585L269.433 332.416C270.345 331.12 271.449 330.208 272.745 329.68C273.993 329.2 275.433 328.96 277.065 328.96C278.745 328.96 280.233 329.248 281.529 329.824C282.825 330.4 283.977 331.216 284.889 332.224C285.801 333.28 286.521 334.528 287.049 335.92C287.529 337.36 287.769 338.944 287.769 340.624C287.769 342.4 287.481 344.032 286.905 345.52C286.329 347.008 285.513 348.256 284.505 349.312C283.449 350.416 282.201 351.232 280.809 351.808C279.369 352.432 277.785 352.72 276.057 352.72C274.473 352.72 272.985 352.48 271.689 352.048C270.393 351.616 269.241 350.944 268.281 350.128C267.273 349.312 266.505 348.352 265.881 347.152C265.257 346 264.825 344.704 264.633 343.264H269.241C269.481 345.088 270.201 346.528 271.401 347.536C272.601 348.544 274.137 349.072 276.009 349.072C278.169 349.072 279.897 348.352 281.193 346.912C282.489 345.472 283.113 343.456 283.113 340.864C283.113 339.664 282.969 338.56 282.681 337.552C282.345 336.544 281.913 335.632 281.337 334.912C280.713 334.192 279.993 333.664 279.129 333.232C278.265 332.8 277.305 332.608 276.201 332.608C273.033 332.608 270.873 334.144 269.769 337.168L265.065 336.736L266.889 317.248Z" fill="white"/>
<path d="M401.681 325.552C401.489 323.776 400.913 322.432 399.953 321.52C398.945 320.608 397.601 320.176 395.921 320.176C394.673 320.176 393.569 320.464 392.609 321.088C391.601 321.712 390.785 322.528 390.113 323.632C389.441 324.736 388.913 326.08 388.577 327.664C388.193 329.248 388.001 331.024 388.001 332.944V334.144C389.873 330.928 392.657 329.296 396.353 329.296C397.745 329.296 399.041 329.536 400.289 330.064C401.537 330.592 402.641 331.312 403.601 332.272C404.561 333.28 405.329 334.48 405.905 335.872C406.433 337.264 406.721 338.896 406.721 340.72C406.721 342.592 406.433 344.272 405.905 345.76C405.329 347.248 404.561 348.544 403.601 349.552C402.593 350.56 401.441 351.376 400.049 351.904C398.657 352.432 397.169 352.72 395.537 352.72C391.313 352.72 388.241 351.136 386.321 348.016C384.401 344.896 383.441 340.528 383.441 334.816C383.441 329.008 384.545 324.544 386.705 321.328C388.865 318.112 391.937 316.528 395.921 316.528C398.945 316.528 401.345 317.296 403.169 318.88C404.993 320.464 406.049 322.672 406.385 325.552H401.681ZM395.729 332.944C394.721 332.944 393.809 333.136 392.993 333.52C392.129 333.952 391.409 334.48 390.785 335.2C390.161 335.92 389.633 336.736 389.297 337.696C388.961 338.656 388.769 339.712 388.769 340.816C388.769 342.016 388.961 343.072 389.297 344.08C389.633 345.088 390.161 346 390.785 346.72C391.409 347.488 392.129 348.064 392.993 348.496C393.809 348.928 394.721 349.12 395.729 349.12C397.649 349.12 399.233 348.352 400.433 346.864C401.633 345.376 402.209 343.408 402.209 340.912C402.209 338.56 401.633 336.64 400.481 335.152C399.329 333.664 397.745 332.944 395.729 332.944Z" fill="white"/>
<path d="M151.441 471C152.449 465.912 153.937 460.776 156.001 455.64C158.065 450.504 160.465 445.32 163.297 440.136H146.017V436.248H168.145V439.56C165.505 444.456 163.153 449.496 161.089 454.68C159.025 459.864 157.441 465.288 156.385 471H151.441Z" fill="white"/>
<path d="M276.057 471.72C274.281 471.72 272.697 471.48 271.257 471C269.769 470.568 268.521 469.896 267.513 469.032C266.457 468.168 265.641 467.112 265.065 465.864C264.489 464.616 264.201 463.224 264.201 461.688C264.201 459.384 264.777 457.512 265.881 456.12C266.985 454.728 268.713 453.672 271.065 453.048V452.808C269.145 452.376 267.657 451.416 266.649 449.976C265.641 448.536 265.113 446.808 265.113 444.792C265.113 443.4 265.353 442.152 265.881 441C266.409 439.896 267.129 438.888 268.089 438.072C269.001 437.256 270.153 436.632 271.497 436.2C272.841 435.768 274.377 435.528 276.057 435.528C277.737 435.528 279.225 435.768 280.569 436.2C281.913 436.632 283.065 437.256 283.977 438.072C284.889 438.888 285.609 439.896 286.137 441C286.665 442.152 286.905 443.4 286.905 444.792C286.905 446.808 286.425 448.536 285.417 449.976C284.409 451.416 282.921 452.376 280.953 452.808V453.048C283.305 453.672 285.081 454.728 286.185 456.12C287.289 457.512 287.817 459.384 287.817 461.688C287.817 463.224 287.529 464.616 286.953 465.864C286.377 467.112 285.561 468.168 284.553 469.032C283.497 469.896 282.249 470.568 280.809 471C279.369 471.48 277.785 471.72 276.057 471.72ZM276.057 468.168C278.169 468.168 279.897 467.544 281.193 466.344C282.489 465.144 283.113 463.512 283.113 461.4C283.113 459.384 282.489 457.8 281.193 456.6C279.897 455.4 278.169 454.824 276.057 454.824C273.897 454.824 272.217 455.4 270.921 456.6C269.625 457.8 268.953 459.384 268.953 461.4C268.953 463.512 269.625 465.144 270.921 466.344C272.217 467.544 273.897 468.168 276.057 468.168ZM276.057 451.128C277.977 451.128 279.513 450.552 280.713 449.448C281.865 448.344 282.441 446.856 282.441 444.984C282.441 443.208 281.865 441.816 280.761 440.712C279.609 439.608 278.025 439.08 276.057 439.08C274.041 439.08 272.457 439.608 271.305 440.712C270.153 441.816 269.577 443.208 269.577 444.984C269.577 446.856 270.153 448.344 271.353 449.448C272.553 450.552 274.089 451.128 276.057 451.128Z" fill="white"/>
<path d="M388.145 462.792C388.385 464.52 389.105 465.816 390.209 466.728C391.313 467.64 392.705 468.072 394.433 468.072C395.633 468.072 396.737 467.784 397.697 467.16C398.609 466.536 399.425 465.672 400.049 464.568C400.673 463.464 401.105 462.168 401.441 460.584C401.777 459 401.921 457.272 401.921 455.4V453.528C400.145 456.552 397.505 458.04 393.905 458.04C392.321 458.04 390.929 457.752 389.633 457.224C388.337 456.696 387.185 455.976 386.273 454.968C385.313 453.96 384.593 452.808 384.065 451.416C383.537 450.024 383.297 448.488 383.297 446.808C383.297 445.128 383.585 443.544 384.161 442.152C384.737 440.76 385.505 439.608 386.513 438.6C387.521 437.64 388.673 436.872 390.065 436.344C391.409 435.816 392.897 435.528 394.481 435.528C398.465 435.528 401.489 436.92 403.505 439.704C405.473 442.536 406.481 446.568 406.481 451.896C406.481 455.064 406.289 457.896 405.905 460.344C405.473 462.792 404.801 464.856 403.889 466.536C402.977 468.216 401.729 469.512 400.241 470.376C398.705 471.288 396.833 471.72 394.577 471.72C393.041 471.72 391.649 471.528 390.353 471.096C389.057 470.712 387.905 470.136 386.993 469.368C386.033 468.6 385.265 467.64 384.689 466.536C384.113 465.432 383.777 464.184 383.633 462.792H388.145ZM394.337 439.128C393.377 439.128 392.513 439.32 391.697 439.704C390.881 440.088 390.161 440.616 389.585 441.288C388.961 442.008 388.529 442.824 388.193 443.736C387.857 444.696 387.713 445.704 387.713 446.808C387.713 447.864 387.857 448.872 388.193 449.784C388.529 450.696 388.961 451.512 389.537 452.184C390.113 452.904 390.785 453.432 391.601 453.816C392.369 454.248 393.233 454.44 394.193 454.44C395.201 454.44 396.113 454.248 396.977 453.816C397.793 453.432 398.561 452.904 399.185 452.232C399.809 451.56 400.289 450.744 400.625 449.832C400.961 448.92 401.153 447.96 401.153 446.904C401.153 445.8 401.009 444.744 400.673 443.784C400.337 442.872 399.905 442.056 399.329 441.336C398.753 440.616 398.033 440.088 397.217 439.704C396.353 439.32 395.393 439.128 394.337 439.128Z" fill="white"/>
<path d="M513.961 316.528C517.657 316.528 520.585 318.064 522.745 321.136C524.905 324.256 525.961 328.768 525.961 334.672C525.961 337.696 525.673 340.288 525.145 342.544C524.569 344.8 523.753 346.72 522.745 348.208C521.689 349.696 520.441 350.848 518.953 351.568C517.465 352.336 515.833 352.72 513.961 352.72C510.265 352.72 507.337 351.184 505.225 348.112C503.065 345.088 502.009 340.576 502.009 334.672C502.009 328.768 503.065 324.256 505.225 321.136C507.337 318.064 510.265 316.528 513.961 316.528ZM513.961 320.176C511.465 320.176 509.641 321.376 508.489 323.824C507.289 326.272 506.713 329.92 506.713 334.672C506.713 338.032 507.001 340.816 507.625 343.024L518.809 322.816C517.609 321.04 515.977 320.176 513.961 320.176ZM521.209 334.672C521.209 331.36 520.921 328.624 520.345 326.464L509.209 346.576C510.409 348.256 511.993 349.072 513.961 349.072C516.409 349.072 518.233 347.824 519.433 345.376C520.633 342.928 521.209 339.328 521.209 334.672Z" fill="white"/>
<path d="M514.633 460.824H509.785L506.905 471H502.537L505.417 460.824H500.329L501.145 457.656H506.329L508.537 449.976H503.209L504.025 446.808H509.449L512.473 436.248H516.793L513.769 446.808H518.665L521.689 436.248H526.009L522.985 446.808H527.641L526.777 449.976H522.073L519.913 457.656H524.761L523.897 460.824H519.001L516.121 471H511.753L514.633 460.824ZM510.697 457.656H515.545L517.753 449.976H512.857L510.697 457.656Z" fill="black"/>
<path d="M509.875 228.14L506.083 225.98L510.739 217.868H501.427V213.5H510.739L506.083 205.388L509.875 203.276L514.483 211.34L519.187 203.276L522.931 205.388L518.227 213.5H527.587V217.868H518.227L522.931 225.98L519.139 228.14L514.531 220.076L509.875 228.14Z" fill="black"/>
</svg>
